# converted from glTF by glb_parts.py
v -83.250935 184.295863 137.552664
v -82.608659 185.972838 136.815409
v -83.250935 186.667459 135.181067
v -81.058107 186.667459 135.035567
v -81.058107 186.667415 -135.035613
v -82.608680 185.972794 -136.815484
v -83.250935 186.667415 -135.181113
v -83.250935 184.295818 -137.552709
v -77.773972 27.256135 -0.000004
v 79.655628 27.256135 0.000010
v 79.655628 27.256113 -132.075728
v -77.773972 27.256113 -132.075728
v -77.773972 27.256135 -0.000004
v -77.773972 27.256113 -132.075728
v -76.543264 104.310784 -130.845019
v -76.543264 104.310805 -0.000017
v 79.655628 27.256156 132.075734
v -77.773972 27.256156 132.075734
v -76.543264 104.310827 130.844999
v 78.424920 104.310827 130.844999
v 79.655628 27.256135 0.000010
v 79.655628 27.256156 132.075734
v 78.424920 104.310827 130.844999
v 78.424920 104.310805 -0.000003
v -77.773972 27.256113 -132.075728
v 79.655628 27.256113 -132.075728
v 78.424920 104.310784 -130.845019
v -76.543264 104.310784 -130.845019
v 85.132590 24.150748 -135.181087
v 85.132590 101.939187 -135.181100
v 85.132590 101.939209 -0.000002
v 85.132590 24.150770 0.000010
v -83.250935 21.779172 -0.000004
v -83.250935 21.779150 -135.181087
v 82.760994 21.779150 -135.181087
v 82.760994 21.779172 0.000010
v -83.250935 21.779194 135.181094
v -83.250935 104.310827 135.181080
v -83.250935 104.310805 -0.000017
v -83.250935 21.779172 -0.000004
v -80.879338 24.150748 -137.552683
v -80.879338 101.939186 -137.552696
v 82.760994 101.939186 -137.552696
v 82.760994 24.150748 -137.552683
v -83.250935 104.310783 -135.181100
v -83.250935 21.779150 -135.181087
v 78.424920 104.310784 -130.845019
v 78.424920 104.310805 -0.000003
v 82.760994 104.310805 -0.000003
v 82.760994 104.310783 -135.181100
v 78.424920 104.310827 130.844999
v 82.760994 104.310827 135.181080
v -76.543264 104.310784 -130.845019
v 82.760994 104.310783 -135.181100
v -83.250935 104.310783 -135.181100
v -76.543264 104.310805 -0.000017
v -76.543264 104.310784 -130.845019
v -83.250935 104.310783 -135.181100
v -83.250935 104.310805 -0.000017
v -75.910672 119.313713 -0.000005
v 77.792328 119.313713 -0.000005
v 77.792328 119.313692 -128.949294
v -75.910672 119.313692 -128.949294
v -75.910672 119.313713 -0.000005
v -75.910672 119.313692 -128.949294
v -74.709098 186.667416 -127.747731
v -74.709098 186.667437 -0.000030
v 77.792328 119.313734 128.949283
v -75.910672 119.313734 128.949283
v -74.709098 186.667458 127.747670
v 76.590747 186.667458 127.747670
v 77.792328 119.313713 -0.000005
v 77.792328 119.313734 128.949283
v 76.590747 186.667458 127.747670
v 76.590747 186.667437 -0.000030
v -75.910672 119.313692 -128.949294
v 77.792328 119.313692 -128.949294
v 76.590747 186.667416 -127.747731
v -74.709098 186.667416 -127.747731
v 85.132590 116.208318 -135.181102
v 85.132590 184.295818 -135.181113
v 85.132590 184.295840 -0.000016
v 85.132590 116.208340 -0.000005
v -83.250935 113.836743 -0.000019
v -83.250935 113.836721 -135.181102
v 82.760994 113.836721 -135.181102
v 82.760994 113.836743 -0.000005
v -83.250935 116.208317 -137.552698
v -83.250935 184.295818 -137.552709
v 82.760994 184.295818 -137.552709
v 82.760994 116.208317 -137.552698
v 76.590747 186.667416 -127.747731
v 76.590747 186.667437 -0.000030
v 82.928009 186.667437 -0.000020
v 82.934688 186.667415 -135.029789
v 76.590747 186.667458 127.747670
v 82.934688 186.667459 135.029743
v 82.928009 186.667437 -0.000020
v -74.709098 186.667416 -127.747731
v 82.934688 186.667415 -135.029789
v -81.058107 186.667415 -135.035613
v -74.709098 186.667458 127.747670
v -81.058107 186.667459 135.035567
v 85.132590 184.295862 135.181067
v 85.132590 116.208362 135.181078
v 82.760994 116.208362 137.552675
v 82.760994 184.295863 137.552664
v -83.250935 116.208362 137.552675
v 77.792328 119.313692 -128.949294
v 76.590747 186.667416 -127.747731
v -75.910672 119.313734 128.949283
v -74.709098 186.667458 127.747670
v -75.910672 119.313734 128.949283
v 77.792328 119.313734 128.949283
v -83.250935 113.836765 135.181079
v 82.760994 113.836765 135.181079
v -76.543264 104.310827 130.844999
v -83.250935 104.310827 135.181080
v -76.543264 104.310827 130.844999
v -83.250935 104.310827 135.181080
v 85.132590 101.939209 -0.000002
v 85.132590 101.939231 135.181080
v 85.132590 24.150792 135.181093
v 82.760994 24.150793 137.552690
v 82.760994 101.939231 137.552677
v -80.879338 101.939231 137.552677
v -80.879338 24.150793 137.552690
v 79.655628 27.256113 -132.075728
v 78.424920 104.310784 -130.845019
v -77.773972 27.256156 132.075734
v -76.543264 104.310827 130.844999
v -77.773972 27.256156 132.075734
v 79.655628 27.256156 132.075734
v 82.760994 21.779194 135.181094
v 84.437970 22.473818 135.181079
v 84.130240 22.781548 136.550318
v 82.761001 22.473818 136.858055
v 84.437970 24.150791 136.858055
v 84.130240 22.781548 136.550318
v 84.437970 22.473818 135.181079
v 82.761001 22.473818 136.858055
v 84.130240 22.781548 136.550318
v 84.437970 24.150791 136.858055
v 84.437970 22.473774 -135.181087
v 84.130240 22.781504 -136.550326
v 84.437970 24.150746 -136.858063
v 82.761001 22.473774 -136.858063
v 84.130240 22.781504 -136.550326
v 84.437970 22.473774 -135.181087
v 84.437970 24.150746 -136.858063
v 84.130240 22.781504 -136.550326
v 82.761001 22.473774 -136.858063
v 84.437970 101.939231 136.858042
v 84.130240 103.308470 136.550305
v 82.761001 103.616200 136.858042
v 84.437970 103.616200 135.181066
v 84.130240 103.308470 136.550305
v 84.437970 101.939231 136.858042
v 82.761001 103.616200 136.858042
v 84.130240 103.308470 136.550305
v 84.437970 103.616200 135.181066
v 84.437970 101.939186 -136.858075
v 84.130240 103.308425 -136.550339
v 84.437970 103.616156 -135.181100
v 82.761001 103.616155 -136.858076
v 84.130240 103.308425 -136.550339
v 84.437970 101.939186 -136.858075
v 84.437970 103.616156 -135.181100
v 84.130240 103.308425 -136.550339
v 82.761001 103.616155 -136.858076
v 84.437970 114.531393 135.181064
v 84.130240 114.839123 136.550303
v 82.761001 114.531393 136.858040
v 84.437970 116.208362 136.858040
v 84.130240 114.839123 136.550303
v 84.437970 114.531393 135.181064
v 82.761001 114.531393 136.858040
v 84.130240 114.839123 136.550303
v 84.437970 116.208362 136.858040
v 84.437970 114.531349 -135.181102
v 84.130240 114.839078 -136.550341
v 84.437970 116.208317 -136.858078
v 82.761001 114.531348 -136.858078
v 84.130240 114.839078 -136.550341
v 84.437970 114.531349 -135.181102
v 84.437970 116.208317 -136.858078
v 84.130240 114.839078 -136.550341
v 82.761001 114.531348 -136.858078
v 84.401987 184.295877 136.889368
v 84.166937 185.665116 136.518316
v 82.847837 185.972853 136.782374
v 84.524806 185.972852 135.105398
v 84.166937 185.665116 136.518316
v 84.401987 184.295877 136.889368
v 82.847837 185.972853 136.782374
v 84.166937 185.665116 136.518316
v 84.524806 185.972852 135.105398
v 84.401987 184.295832 -136.889414
v 84.166937 185.665071 -136.518363
v 84.524806 185.972808 -135.105444
v 82.847837 185.972808 -136.782420
v 84.166937 185.665071 -136.518363
v 84.401987 184.295832 -136.889414
v 84.524806 185.972808 -135.105444
v 84.166937 185.665071 -136.518363
v 82.847837 185.972808 -136.782420
v -83.250935 21.779194 135.181094
v -82.556314 22.473820 136.858069
v -82.556314 22.473820 136.858069
v 84.437963 22.473796 0.000010
v 84.437963 22.473796 0.000010
v -82.556314 22.473776 -136.858063
v -82.556314 22.473776 -136.858063
v -82.556307 103.616200 136.858056
v -82.556307 103.616200 136.858056
v 84.437963 103.616178 -0.000003
v 84.437963 103.616178 -0.000003
v -82.556307 103.616155 -136.858076
v 82.761001 103.616155 -136.858076
v -82.556307 103.616155 -136.858076
v -82.556307 103.616200 136.858056
v -82.556314 22.473820 136.858069
v -82.556314 22.473820 136.858069
v -82.556307 103.616200 136.858056
v -82.556307 103.616155 -136.858076
v -82.556314 22.473776 -136.858063
v -82.556314 22.473776 -136.858063
v -82.556307 103.616155 -136.858076
v -83.250935 114.531393 136.858054
v -83.250935 114.531393 136.858054
v 84.437963 114.531371 -0.000005
v 84.437963 114.531371 -0.000005
v -83.250935 114.531348 -136.858078
v -83.250935 114.531348 -136.858078
v -82.608659 185.972838 136.815409
v -82.608659 185.972838 136.815409
v 84.486887 185.972816 -0.000017
v 84.486887 185.972816 -0.000017
v -82.608680 185.972794 -136.815484
v 82.847837 185.972808 -136.782420
v -82.608680 185.972794 -136.815484
v 84.524806 185.972852 135.105398
v 82.760994 21.779172 0.000010
v 84.437970 103.616200 135.181066
v -83.250935 113.836765 135.181079
v -83.250935 114.531393 136.858054
v -83.250935 116.208362 137.552675
v -83.250935 184.295863 137.552664
v -83.250935 186.667459 135.181067
v -83.250935 186.667437 -0.000030
v -83.250935 113.836743 -0.000019
v -83.250935 186.667415 -135.181113
v -83.250935 184.295818 -137.552709
v -83.250935 116.208317 -137.552698
v -83.250935 114.531348 -136.858078
v -83.250935 113.836721 -135.181102
v -74.709098 186.667437 -0.000030
v -74.709098 186.667416 -127.747731
v -83.250935 186.667437 -0.000030
v -74.709098 186.667458 127.747670
v -83.250935 186.667459 135.181067
v -81.058107 186.667459 135.035567
vt 0.683191 0.284203
vt 0.684297 0.284203
vt 0.684755 0.284203
vt 0.684755 0.285648
vt 0.249715 0.088943
vt 0.250165 0.088492
vt 0.249475 0.088306
vt 0.250352 0.088306
vt 0.974216 0.666913
vt 0.974216 0.642252
vt 0.953527 0.642252
vt 0.953527 0.666913
vt 0.503064 0.520424
vt 0.503064 0.499735
vt 0.490993 0.499928
vt 0.490992 0.520424
vt 0.994968 0.641741
vt 0.994969 0.603452
vt 0.976226 0.603752
vt 0.976225 0.641442
vt 0.979325 0.535520
vt 0.979325 0.556210
vt 0.991396 0.556017
vt 0.991396 0.535521
vt 0.965747 0.752440
vt 0.965747 0.727779
vt 0.953675 0.727972
vt 0.953675 0.752247
vt 0.798649 0.995939
vt 0.898919 0.995939
vt 0.898919 0.821689
vt 0.798649 0.821689
vt 0.490991 0.560144
vt 0.490990 0.576077
vt 0.510557 0.576077
vt 0.510557 0.560144
vt 0.981895 0.600413
vt 0.994823 0.600413
vt 0.994823 0.579238
vt 0.981895 0.579238
vt 0.973868 0.430030
vt 0.987354 0.430030
vt 0.987354 0.401662
vt 0.973868 0.401662
vt 0.994823 0.558062
vt 0.981895 0.558062
vt 0.004266 0.014692
vt 0.067767 0.014693
vt 0.067767 0.012588
vt 0.002162 0.012588
vt 0.131267 0.014693
vt 0.133371 0.012588
vt 0.004266 0.089900
vt 0.002162 0.012588
vt 0.002162 0.093155
vt 0.299817 0.088314
vt 0.251442 0.088313
vt 0.249839 0.090793
vt 0.299817 0.090794
vt 0.970082 0.692072
vt 0.970082 0.667411
vt 0.949393 0.667411
vt 0.949393 0.692072
vt 0.950697 0.434977
vt 0.930008 0.434977
vt 0.930201 0.445530
vt 0.950697 0.445530
vt 0.686769 0.300839
vt 0.686769 0.391207
vt 0.725437 0.390501
vt 0.725437 0.301546
vt 0.950737 0.430437
vt 0.971426 0.430436
vt 0.971233 0.419884
vt 0.950737 0.419885
vt 0.954663 0.349445
vt 0.930002 0.349446
vt 0.930195 0.359998
vt 0.954470 0.359998
vt 0.886419 0.285175
vt 0.798653 0.285175
vt 0.798653 0.459425
vt 0.886418 0.459425
vt 0.973622 0.616942
vt 0.973622 0.597493
vt 0.949737 0.597493
vt 0.949737 0.616942
vt 0.970082 0.366030
vt 0.958279 0.366030
vt 0.958279 0.394808
vt 0.970082 0.394808
vt 0.913388 0.005711
vt 0.913388 0.097485
vt 0.916878 0.097485
vt 0.916882 0.002216
vt 0.913388 0.189259
vt 0.916882 0.192753
vt 0.916878 0.097485
vt 0.804694 0.005711
vt 0.916882 0.002216
vt 0.801197 0.002214
vt 0.804694 0.189259
vt 0.801197 0.192755
vt 0.798653 0.633675
vt 0.886418 0.633675
vt 0.638299 0.393659
vt 0.683191 0.393659
vt 0.638300 0.284203
vt 0.930048 0.430438
vt 0.930240 0.419886
vt 0.971386 0.434977
vt 0.971194 0.445530
vt 0.990771 0.692072
vt 0.990771 0.667411
vt 0.973622 0.636392
vt 0.949737 0.636392
vt 0.131267 0.089900
vt 0.133371 0.093155
vt 0.348192 0.088315
vt 0.349795 0.090795
vt 0.898919 0.821689
vt 0.898920 0.647439
vt 0.798650 0.647439
vt 0.958808 0.414932
vt 0.958808 0.401447
vt 0.930440 0.401447
vt 0.930440 0.414932
vt 0.979325 0.514831
vt 0.991396 0.515024
vt 0.503064 0.541114
vt 0.490992 0.540921
vt 0.994905 0.666913
vt 0.994905 0.642252
vt 0.510557 0.544211
vt 0.510836 0.544211
vt 0.510836 0.544050
vt 0.510557 0.543931
vt 0.798650 0.644382
vt 0.796885 0.644382
vt 0.795593 0.647439
vt 0.958808 0.415343
vt 0.959045 0.415343
vt 0.959219 0.414932
vt 0.795592 0.995939
vt 0.795592 0.997704
vt 0.798649 0.998996
vt 0.510557 0.576356
vt 0.510718 0.576356
vt 0.510836 0.576077
vt 0.973868 0.401251
vt 0.973631 0.401251
vt 0.973457 0.401662
vt 0.959219 0.401447
vt 0.959219 0.401210
vt 0.958808 0.401036
vt 0.901977 0.647439
vt 0.901977 0.645674
vt 0.898920 0.644382
vt 0.134522 0.012588
vt 0.134522 0.011924
vt 0.133371 0.011437
vt 0.898919 0.998996
vt 0.900684 0.998996
vt 0.901976 0.995939
vt 0.987765 0.401662
vt 0.987765 0.401425
vt 0.987354 0.401251
vt 0.002162 0.011437
vt 0.001497 0.011437
vt 0.001011 0.012588
vt 0.949396 0.636392
vt 0.949396 0.636589
vt 0.949737 0.636733
vt 0.886418 0.636732
vt 0.888183 0.636732
vt 0.889475 0.633675
vt 0.636736 0.393659
vt 0.636736 0.394561
vt 0.638300 0.395222
vt 0.889476 0.285175
vt 0.889476 0.283410
vt 0.886419 0.282118
vt 0.949737 0.597152
vt 0.949540 0.597152
vt 0.949396 0.597493
vt 0.970082 0.395219
vt 0.970319 0.395219
vt 0.970493 0.394808
vt 0.683191 0.395222
vt 0.684094 0.395222
vt 0.684755 0.393716
vt 0.795596 0.633577
vt 0.795596 0.635399
vt 0.798653 0.636732
vt 0.916490 0.193963
vt 0.917415 0.193963
vt 0.918423 0.192789
vt 0.798653 0.282118
vt 0.796888 0.282118
vt 0.795596 0.285272
vt 0.957868 0.394823
vt 0.957868 0.395052
vt 0.958279 0.395219
vt 0.918093 0.002722
vt 0.918093 0.001731
vt 0.916834 0.000415
vt 0.490991 0.544211
vt 0.491072 0.543931
vt 0.930149 0.415343
vt 0.510836 0.560144
vt 0.795592 0.821689
vt 0.491072 0.576356
vt 0.973457 0.430321
vt 0.930149 0.401036
vt 0.134522 0.092818
vt 0.901976 0.821689
vt 0.067767 0.011437
vt 0.987765 0.430321
vt 0.001011 0.012588
vt 0.001011 0.092818
vt 0.930029 0.401156
vt 0.930029 0.415223
vt 0.982004 0.600785
vt 0.994714 0.600785
vt 0.994714 0.557691
vt 0.982004 0.557691
vt 0.973578 0.430441
vt 0.987644 0.430441
vt 0.973622 0.636733
vt 0.636736 0.284203
vt 0.949396 0.616942
vt 0.889475 0.459425
vt 0.973622 0.597152
vt 0.970493 0.366030
vt 0.684755 0.284626
vt 0.800440 0.193963
vt 0.795596 0.459425
vt 0.918093 0.097485
vt 0.957868 0.366141
vt 0.916490 0.001006
vt 0.800440 0.001006
vt 0.918093 0.192247
vt 0.510557 0.560144
vt 0.133371 0.011437
vt 0.984194 0.475348
vt 0.984302 0.475610
vt 0.984565 0.475719
vt 0.995230 0.475719
vt 0.995602 0.475348
vt 0.995602 0.454172
vt 0.984194 0.454172
vt 0.995602 0.432996
vt 0.995231 0.432625
vt 0.984565 0.432625
vt 0.984303 0.432734
vt 0.984194 0.432996
vt 0.199497 0.090786
vt 0.247872 0.090786
vt 0.199497 0.088306
vt 0.151123 0.090786
vt 0.149520 0.088306
vt 0.149280 0.088943
vn -0.799023 0.000004 0.601300
vn 0.000054 0.618099 0.786100
vn -0.997413 0.071887 -0.000030
vn 0.000012 1.000000 -0.000002
vn 0.000000 1.000000 0.000003
vn 0.000095 0.618079 -0.786116
vn -0.997414 0.071869 -0.000047
vn -0.799022 -0.000003 -0.601302
vn 0.440738 0.897636 0.000158
vn -0.440737 0.897636 0.000016
vn -0.390173 0.795509 0.463606
vn 0.390178 0.795510 0.463600
vn 0.440738 0.897636 0.000158
vn 0.390178 0.795510 0.463600
vn -0.000023 1.000000 0.000031
vn 0.000011 1.000000 0.000068
vn -0.390173 0.795509 -0.463606
vn 0.390156 0.795505 -0.463626
vn 0.000031 1.000000 0.000023
vn -0.000093 1.000000 0.000083
vn -0.440737 0.897636 0.000016
vn -0.390173 0.795509 -0.463606
vn -0.000093 1.000000 0.000083
vn -0.000011 1.000000 -0.000069
vn 0.390178 0.795510 0.463600
vn -0.390173 0.795509 0.463606
vn -0.000032 1.000000 -0.000022
vn -0.000023 1.000000 0.000031
vn 1.000000 -0.000019 0.000012
vn 1.000000 -0.000011 -0.000018
vn 1.000000 -0.000003 0.000000
vn 1.000000 0.000003 0.000009
vn -0.445144 -0.895459 0.000015
vn -0.445156 -0.895453 0.000026
vn -0.000011 -1.000000 -0.000018
vn -0.000003 -1.000000 0.000000
vn -0.445158 -0.895452 -0.000029
vn -0.997307 0.073337 0.000010
vn -0.996817 0.079721 -0.000000
vn -0.445144 -0.895459 0.000015
vn -0.000029 -0.000007 -1.000000
vn -0.000007 0.000027 -1.000000
vn -0.000012 0.000017 -1.000000
vn 0.000018 0.000012 -1.000000
vn -0.997307 0.073336 -0.000014
vn -0.445156 -0.895453 0.000026
vn -0.000032 1.000000 -0.000022
vn -0.000011 1.000000 -0.000069
vn -0.000003 1.000000 0.000009
vn 0.000004 1.000000 -0.000005
vn -0.000093 1.000000 0.000083
vn -0.000012 1.000000 0.000020
vn -0.000023 1.000000 0.000031
vn 0.000004 1.000000 -0.000005
vn -0.997307 0.073336 -0.000014
vn 0.000011 1.000000 0.000068
vn -0.000023 1.000000 0.000031
vn -0.997307 0.073336 -0.000014
vn -0.996817 0.079721 -0.000000
vn 0.402410 0.915459 -0.000107
vn -0.402410 0.915459 0.000018
vn -0.362492 0.826494 0.430705
vn 0.362486 0.826493 0.430712
vn 0.402410 0.915459 -0.000107
vn 0.362486 0.826493 0.430712
vn -0.000013 1.000000 0.000018
vn -0.000023 1.000000 0.000068
vn -0.362492 0.826494 -0.430706
vn 0.362512 0.826497 -0.430683
vn 0.000018 1.000000 0.000014
vn 0.000028 1.000000 -0.000032
vn -0.402410 0.915459 0.000018
vn -0.362492 0.826494 -0.430706
vn 0.000028 1.000000 -0.000032
vn 0.000023 1.000000 -0.000069
vn 0.362486 0.826493 0.430712
vn -0.362492 0.826494 0.430705
vn -0.000019 1.000000 -0.000014
vn -0.000013 1.000000 0.000018
vn 1.000000 -0.000004 -0.000029
vn 1.000000 -0.000004 -0.000026
vn 1.000000 0.000012 -0.000000
vn 1.000000 0.000003 0.000009
vn -0.407476 -0.913216 0.000017
vn -0.615443 -0.788181 0.000003
vn -0.000011 -1.000000 -0.000019
vn -0.000002 -1.000000 0.000000
vn -0.840348 -0.000007 -0.542047
vn -0.799022 -0.000003 -0.601302
vn -0.000001 0.000024 -1.000000
vn 0.000025 0.000004 -1.000000
vn -0.000019 1.000000 -0.000014
vn 0.000023 1.000000 -0.000069
vn 0.000020 1.000000 -0.000000
vn -0.000010 1.000000 -0.000007
vn 0.000028 1.000000 -0.000032
vn -0.000017 1.000000 0.000016
vn 0.000020 1.000000 -0.000000
vn -0.000013 1.000000 0.000018
vn -0.000010 1.000000 -0.000007
vn 0.000000 1.000000 0.000003
vn 0.000018 1.000000 0.000014
vn 0.000012 1.000000 -0.000002
vn 1.000000 -0.000003 0.000028
vn 1.000000 -0.000027 0.000008
vn 0.000028 0.000005 1.000000
vn 0.000016 0.000012 1.000000
vn -0.840348 -0.000005 0.542047
vn -0.362492 0.826494 0.430705
vn -0.000019 1.000000 -0.000014
vn 0.362512 0.826497 -0.430683
vn 0.000018 1.000000 0.000014
vn 0.362512 0.826497 -0.430683
vn -0.362492 0.826494 -0.430706
vn -0.615458 -0.788170 -0.000013
vn 0.000018 -1.000000 -0.000011
vn 0.000031 1.000000 0.000023
vn -0.997307 0.073337 0.000010
vn 0.000031 1.000000 0.000023
vn -0.997307 0.073337 0.000010
vn 1.000000 -0.000003 0.000000
vn 1.000000 0.000019 -0.000010
vn 1.000000 0.000010 0.000019
vn -0.000010 -0.000021 1.000000
vn 0.000020 -0.000010 1.000000
vn -0.000029 0.000007 1.000000
vn 0.000030 0.000006 1.000000
vn -0.390173 0.795509 0.463606
vn -0.000032 1.000000 -0.000022
vn 0.390156 0.795505 -0.463626
vn 0.000031 1.000000 0.000023
vn 0.390156 0.795505 -0.463626
vn -0.390173 0.795509 -0.463606
vn 0.000001 -1.000000 0.000007
vn 0.707118 -0.707095 -0.000014
vn 0.577350 -0.577354 0.577347
vn -0.000005 -0.708157 0.706055
vn 0.707096 0.000009 0.707118
vn 0.577350 -0.577354 0.577347
vn 0.707118 -0.707095 -0.000014
vn -0.000005 -0.708157 0.706055
vn 0.577350 -0.577354 0.577347
vn 0.707096 0.000009 0.707118
vn 0.707095 -0.707118 0.000013
vn 0.577352 -0.577350 -0.577349
vn 0.707103 0.000013 -0.707110
vn -0.000005 -0.708169 -0.706043
vn 0.577352 -0.577350 -0.577349
vn 0.707095 -0.707118 0.000013
vn 0.707103 0.000013 -0.707110
vn 0.577352 -0.577350 -0.577349
vn -0.000005 -0.708169 -0.706043
vn 0.707119 -0.000009 0.707095
vn 0.577348 0.577355 0.577347
vn -0.000006 0.708164 0.706048
vn 0.707093 0.707120 -0.000013
vn 0.577348 0.577355 0.577347
vn 0.707119 -0.000009 0.707095
vn -0.000006 0.708164 0.706048
vn 0.577348 0.577355 0.577347
vn 0.707093 0.707120 -0.000013
vn 0.707095 -0.000012 -0.707119
vn 0.577350 0.577352 -0.577349
vn 0.707103 0.707110 0.000013
vn -0.000007 0.708169 -0.706043
vn 0.577350 0.577352 -0.577349
vn 0.707095 -0.000012 -0.707119
vn 0.707103 0.707110 0.000013
vn 0.577350 0.577352 -0.577349
vn -0.000007 0.708169 -0.706043
vn 0.707141 -0.707072 -0.000013
vn 0.577350 -0.577354 0.577347
vn -0.000011 -0.707104 0.707110
vn 0.707225 0.000028 0.706989
vn 0.577350 -0.577354 0.577347
vn 0.707141 -0.707072 -0.000013
vn -0.000011 -0.707104 0.707110
vn 0.577350 -0.577354 0.577347
vn 0.707225 0.000028 0.706989
vn 0.707095 -0.707118 0.000013
vn 0.577351 -0.577351 -0.577349
vn 0.707221 0.000032 -0.706992
vn -0.000012 -0.707095 -0.707119
vn 0.577351 -0.577351 -0.577349
vn 0.707095 -0.707118 0.000013
vn 0.707221 0.000032 -0.706992
vn 0.577351 -0.577351 -0.577349
vn -0.000012 -0.707095 -0.707119
vn 0.706998 0.000001 0.707216
vn 0.584074 0.573553 0.574364
vn 0.000062 0.735597 0.677419
vn 0.740845 0.671676 -0.000111
vn 0.584074 0.573553 0.574364
vn 0.706998 0.000001 0.707216
vn 0.000062 0.735597 0.677419
vn 0.584074 0.573553 0.574364
vn 0.740845 0.671676 -0.000111
vn 0.706994 0.000053 -0.707220
vn 0.584076 0.573550 -0.574366
vn 0.740835 0.671687 0.000112
vn 0.000064 0.735610 -0.677405
vn 0.584076 0.573550 -0.574366
vn 0.706994 0.000053 -0.707220
vn 0.740835 0.671687 0.000112
vn 0.584076 0.573550 -0.574366
vn 0.000064 0.735610 -0.677405
vn -0.445158 -0.895452 -0.000029
vn -0.320027 -0.649999 0.689264
vn -0.320027 -0.649999 0.689264
vn 0.707107 -0.707107 0.000000
vn 0.707107 -0.707107 0.000000
vn -0.320034 -0.650004 -0.689256
vn -0.320034 -0.650004 -0.689256
vn -0.320039 0.650010 0.689248
vn -0.320039 0.650010 0.689248
vn 0.707107 0.707107 -0.000000
vn 0.707107 0.707107 -0.000000
vn -0.320033 0.650003 -0.689257
vn -0.000007 0.708169 -0.706043
vn -0.320033 0.650003 -0.689257
vn -0.320039 0.650010 0.689248
vn -0.320027 -0.649999 0.689264
vn -0.320027 -0.649999 0.689264
vn -0.320039 0.650010 0.689248
vn -0.320033 0.650003 -0.689257
vn -0.320034 -0.650004 -0.689256
vn -0.320034 -0.650004 -0.689256
vn -0.320033 0.650003 -0.689257
vn -1.000000 -0.000005 0.000010
vn -1.000000 -0.000005 0.000010
vn 0.707107 -0.707106 0.000000
vn 0.707107 -0.707106 0.000000
vn -1.000000 -0.000011 -0.000006
vn -1.000000 -0.000011 -0.000006
vn 0.000054 0.618099 0.786100
vn 0.000054 0.618099 0.786100
vn 0.733005 0.680224 -0.000000
vn 0.733005 0.680224 -0.000000
vn 0.000095 0.618079 -0.786116
vn 0.000064 0.735610 -0.677405
vn 0.000095 0.618079 -0.786116
vn 0.740845 0.671676 -0.000111
vn -0.000003 -1.000000 0.000000
vn 0.707093 0.707120 -0.000013
vn -0.615458 -0.788170 -0.000013
vn -1.000000 -0.000005 0.000010
vn -0.840348 -0.000005 0.542047
vn -0.799023 0.000004 0.601300
vn -0.997413 0.071887 -0.000030
vn -0.993689 0.112167 -0.000000
vn -0.407476 -0.913216 0.000017
vn -0.997414 0.071869 -0.000047
vn -0.799022 -0.000003 -0.601302
vn -0.840348 -0.000007 -0.542047
vn -1.000000 -0.000011 -0.000006
vn -0.615443 -0.788181 0.000003
vn -0.000023 1.000000 0.000068
vn -0.000013 1.000000 0.000018
vn -0.993689 0.112167 -0.000000
vn 0.000018 1.000000 0.000014
vn -0.997413 0.071887 -0.000030
vn 0.000012 1.000000 -0.000002
g DrawerChest
usemtl DrawerChest
f 1/1/1 2/2/2 3/3/3
f 2/2/2 4/4/4 3/3/3
f 5/5/5 6/6/6 7/7/7
f 6/6/6 8/8/8 7/7/7
f 9/9/9 10/10/10 11/11/11
f 9/9/9 11/11/11 12/12/12
f 13/13/13 14/14/14 15/15/15
f 13/13/13 15/15/15 16/16/16
f 17/17/17 18/18/18 19/19/19
f 17/17/17 19/19/19 20/20/20
f 21/21/21 22/22/22 23/23/23
f 21/21/21 23/23/23 24/24/24
f 25/25/25 26/26/26 27/27/27
f 25/25/25 27/27/27 28/28/28
f 29/29/29 30/30/30 31/31/31
f 29/29/29 31/31/31 32/32/32
f 33/33/33 34/34/34 35/35/35
f 33/33/33 35/35/35 36/36/36
f 37/37/37 38/38/38 39/39/39
f 37/37/37 39/39/39 40/40/40
f 41/41/41 42/42/42 43/43/43
f 41/41/41 43/43/43 44/44/44
f 40/40/40 39/39/39 45/45/45
f 40/40/40 45/45/45 46/46/46
f 47/47/47 48/48/48 49/49/49
f 47/47/47 49/49/49 50/50/50
f 48/48/48 51/51/51 52/52/52
f 48/48/48 52/52/52 49/49/49
f 53/53/53 47/47/47 54/54/54
f 53/53/53 54/54/54 55/55/55
f 56/56/56 57/57/57 58/58/58
f 56/56/56 58/58/58 59/59/59
f 60/60/60 61/61/61 62/62/62
f 60/60/60 62/62/62 63/63/63
f 64/64/64 65/65/65 66/66/66
f 64/64/64 66/66/66 67/67/67
f 68/68/68 69/69/69 70/70/70
f 68/68/68 70/70/70 71/71/71
f 72/72/72 73/73/73 74/74/74
f 72/72/72 74/74/74 75/75/75
f 76/76/76 77/77/77 78/78/78
f 76/76/76 78/78/78 79/79/79
f 80/80/80 81/81/81 82/82/82
f 80/80/80 82/82/82 83/83/83
f 84/84/84 85/85/85 86/86/86
f 84/84/84 86/86/86 87/87/87
f 88/88/88 89/89/89 90/90/90
f 88/88/88 90/90/90 91/91/91
f 92/92/92 93/93/93 94/94/94
f 92/92/92 94/94/94 95/95/95
f 93/93/93 96/96/96 97/97/97
f 93/93/93 97/97/97 98/98/98
f 99/99/99 92/92/92 100/100/100
f 99/99/99 100/100/100 101/101/101
f 96/96/96 102/102/102 103/103/103
f 96/96/96 103/103/103 97/97/97
f 83/83/83 82/82/82 104/104/104
f 83/83/83 104/104/104 105/105/105
f 106/106/106 107/107/107 1/1/1
f 106/106/106 1/1/1 108/108/108
f 109/109/109 72/72/72 75/75/75
f 109/109/109 75/75/75 110/110/110
f 111/111/111 64/64/64 67/67/67
f 111/111/111 67/67/67 112/112/112
f 113/113/113 114/114/114 61/61/61
f 113/113/113 61/61/61 60/60/60
f 115/115/115 84/84/84 87/87/87
f 115/115/115 87/87/87 116/116/116
f 51/51/51 117/117/117 118/118/118
f 51/51/51 118/118/118 52/52/52
f 119/119/119 56/56/56 59/59/59
f 119/119/119 59/59/59 120/120/120
f 32/32/32 121/121/121 122/122/122
f 32/32/32 122/122/122 123/123/123
f 124/124/124 125/125/125 126/126/126
f 124/124/124 126/126/126 127/127/127
f 128/128/128 21/21/21 24/24/24
f 128/128/128 24/24/24 129/129/129
f 130/130/130 13/13/13 16/16/16
f 130/130/130 16/16/16 131/131/131
f 132/132/132 133/133/133 10/10/10
f 132/132/132 10/10/10 9/9/9
f 134/134/134 135/135/135 136/136/136
f 134/134/134 136/136/136 137/137/137
f 123/123/123 138/138/138 139/139/139
f 123/123/123 139/139/139 140/140/140
f 124/124/124 141/141/141 142/142/142
f 124/124/124 142/142/142 143/143/143
f 29/29/29 144/144/144 145/145/145
f 29/29/29 145/145/145 146/146/146
f 35/35/35 147/147/147 148/148/148
f 35/35/35 148/148/148 149/149/149
f 44/44/44 150/150/150 151/151/151
f 44/44/44 151/151/151 152/152/152
f 125/125/125 153/153/153 154/154/154
f 125/125/125 154/154/154 155/155/155
f 122/122/122 156/156/156 157/157/157
f 122/122/122 157/157/157 158/158/158
f 52/52/52 159/159/159 160/160/160
f 52/52/52 160/160/160 161/161/161
f 30/30/30 162/162/162 163/163/163
f 30/30/30 163/163/163 164/164/164
f 43/43/43 165/165/165 166/166/166
f 43/43/43 166/166/166 167/167/167
f 50/50/50 168/168/168 169/169/169
f 50/50/50 169/169/169 170/170/170
f 116/116/116 171/171/171 172/172/172
f 116/116/116 172/172/172 173/173/173
f 105/105/105 174/174/174 175/175/175
f 105/105/105 175/175/175 176/176/176
f 106/106/106 177/177/177 178/178/178
f 106/106/106 178/178/178 179/179/179
f 80/80/80 180/180/180 181/181/181
f 80/80/80 181/181/181 182/182/182
f 86/86/86 183/183/183 184/184/184
f 86/86/86 184/184/184 185/185/185
f 91/91/91 186/186/186 187/187/187
f 91/91/91 187/187/187 188/188/188
f 107/107/107 189/189/189 190/190/190
f 107/107/107 190/190/190 191/191/191
f 104/104/104 192/192/192 193/193/193
f 104/104/104 193/193/193 194/194/194
f 97/97/97 195/195/195 196/196/196
f 97/97/97 196/196/196 197/197/197
f 81/81/81 198/198/198 199/199/199
f 81/81/81 199/199/199 200/200/200
f 90/90/90 201/201/201 202/202/202
f 90/90/90 202/202/202 203/203/203
f 95/95/95 204/204/204 205/205/205
f 95/95/95 205/205/205 206/206/206
f 207/207/207 134/134/134 137/137/137
f 207/207/207 137/137/137 208/208/208
f 209/209/209 141/141/141 124/124/124
f 209/209/209 124/124/124 127/127/127
f 36/36/36 35/35/35 149/149/149
f 36/36/36 149/149/149 210/210/210
f 211/211/211 144/144/144 29/29/29
f 211/211/211 29/29/29 32/32/32
f 35/35/35 34/34/34 212/212/212
f 35/35/35 212/212/212 147/147/147
f 152/152/152 213/213/213 41/41/41
f 152/152/152 41/41/41 44/44/44
f 126/126/126 125/125/125 155/155/155
f 126/126/126 155/155/155 214/214/214
f 215/215/215 159/159/159 52/52/52
f 215/215/215 52/52/52 118/118/118
f 31/31/31 30/30/30 164/164/164
f 31/31/31 164/164/164 216/216/216
f 217/217/217 168/168/168 50/50/50
f 217/217/217 50/50/50 49/49/49
f 43/43/43 42/42/42 218/218/218
f 43/43/43 218/218/218 165/165/165
f 219/219/219 220/220/220 55/55/55
f 219/219/219 55/55/55 54/54/54
f 127/127/127 126/126/126 221/221/221
f 127/127/127 221/221/221 222/222/222
f 223/223/223 224/224/224 38/38/38
f 223/223/223 38/38/38 37/37/37
f 123/123/123 122/122/122 158/158/158
f 123/123/123 158/158/158 138/138/138
f 143/143/143 153/153/153 125/125/125
f 143/143/143 125/125/125 124/124/124
f 46/46/46 45/45/45 225/225/225
f 46/46/46 225/225/225 226/226/226
f 227/227/227 228/228/228 42/42/42
f 227/227/227 42/42/42 41/41/41
f 44/44/44 43/43/43 167/167/167
f 44/44/44 167/167/167 150/150/150
f 146/146/146 162/162/162 30/30/30
f 146/146/146 30/30/30 29/29/29
f 115/115/115 116/116/116 173/173/173
f 115/115/115 173/173/173 229/229/229
f 230/230/230 177/177/177 106/106/106
f 230/230/230 106/106/106 108/108/108
f 87/87/87 86/86/86 185/185/185
f 87/87/87 185/185/185 231/231/231
f 232/232/232 180/180/180 80/80/80
f 232/232/232 80/80/80 83/83/83
f 86/86/86 85/85/85 233/233/233
f 86/86/86 233/233/233 183/183/183
f 188/188/188 234/234/234 88/88/88
f 188/188/188 88/88/88 91/91/91
f 1/1/1 107/107/107 191/191/191
f 1/1/1 191/191/191 235/235/235
f 236/236/236 195/195/195 97/97/97
f 236/236/236 97/97/97 103/103/103
f 82/82/82 81/81/81 200/200/200
f 82/82/82 200/200/200 237/237/237
f 238/238/238 204/204/204 95/95/95
f 238/238/238 95/95/95 94/94/94
f 90/90/90 89/89/89 239/239/239
f 90/90/90 239/239/239 201/201/201
f 240/240/240 241/241/241 101/101/101
f 240/240/240 101/101/101 100/100/100
f 105/105/105 104/104/104 194/194/194
f 105/105/105 194/194/194 174/174/174
f 179/179/179 189/189/189 107/107/107
f 179/179/179 107/107/107 106/106/106
f 91/91/91 90/90/90 203/203/203
f 91/91/91 203/203/203 186/186/186
f 182/182/182 198/198/198 81/81/81
f 182/182/182 81/81/81 80/80/80
f 116/116/116 87/87/87 231/231/231
f 116/116/116 231/231/231 171/171/171
f 176/176/176 232/232/232 83/83/83
f 176/176/176 83/83/83 105/105/105
f 104/104/104 82/82/82 237/237/237
f 104/104/104 237/237/237 192/192/192
f 242/242/242 238/238/238 98/98/98
f 242/242/242 98/98/98 97/97/97
f 134/134/134 243/243/243 210/210/210
f 134/134/134 210/210/210 135/135/135
f 140/140/140 211/211/211 32/32/32
f 140/140/140 32/32/32 123/123/123
f 122/122/122 121/121/121 216/216/216
f 122/122/122 216/216/216 156/156/156
f 244/244/244 217/217/217 49/49/49
f 244/244/244 49/49/49 52/52/52
f 207/207/207 33/33/33 243/243/243
f 207/207/207 243/243/243 134/134/134
f 249/249/249 247/247/247 248/248/248
f 247/247/247 249/249/249 246/246/246
f 246/246/246 249/249/249 245/245/245
f 245/245/245 249/249/249 250/250/250
f 245/245/245 250/250/250 251/251/251
f 252/252/252 251/251/251 250/250/250
f 251/251/251 252/252/252 256/256/256
f 256/256/256 252/252/252 253/253/253
f 256/256/256 253/253/253 255/255/255
f 255/255/255 253/253/253 254/254/254
f 257/257/257 7/7/7 259/259/259
f 7/7/7 257/257/257 5/5/5
f 5/5/5 257/257/257 258/258/258
f 262/262/262 259/259/259 261/261/261
f 259/259/259 262/262/262 257/257/257
f 257/257/257 262/262/262 260/260/260
