# converted from glTF by glb_parts.py
v -0.088684 0.267090 -0.132723
v -0.031142 0.267090 -0.156557
v -0.031270 0.327990 -0.157199
v -0.089046 0.327990 -0.133267
v -0.034676 0.265602 -0.174321
v -0.034813 0.327748 -0.175013
v 0.034811 0.327748 -0.175013
v 0.034674 0.265602 -0.174321
v 0.099136 0.327748 -0.148369
v 0.098744 0.265602 -0.147782
v 0.098744 0.265602 -0.147782
v 0.099136 0.327748 -0.148369
v 0.148116 0.327748 -0.099137
v 0.147781 0.265602 -0.098745
v 0.174407 0.327748 -0.034812
v 0.174320 0.265602 -0.034674
v 0.174407 0.327748 0.034813
v 0.174320 0.265602 0.034675
v 0.148116 0.327748 0.099138
v 0.147781 0.265602 0.098746
v 0.099136 0.327748 0.148370
v 0.098744 0.265602 0.147783
v 0.098744 0.265602 0.147783
v 0.099136 0.327748 0.148370
v 0.034811 0.327748 0.175014
v 0.034674 0.265602 0.174322
v -0.034813 0.327748 0.175014
v -0.034676 0.265602 0.174322
v -0.099138 0.327748 0.148370
v -0.098746 0.265602 0.147783
v -0.098746 0.265602 0.147783
v -0.099138 0.327748 0.148370
v -0.148118 0.327748 0.099138
v -0.147783 0.265602 0.098746
v -0.174408 0.327748 0.034813
v -0.174323 0.265602 0.034675
v -0.174408 0.327748 -0.034812
v -0.174322 0.265602 -0.034674
v -0.174322 0.265602 -0.034674
v -0.174408 0.327748 -0.034812
v -0.148118 0.327748 -0.099137
v -0.147783 0.265602 -0.098745
v -0.099138 0.327748 -0.148369
v -0.098746 0.265602 -0.147782
v -0.077792 0.009838 -0.116422
v -0.089520 0.138400 -0.133975
v -0.031436 0.138400 -0.158034
v -0.027318 0.009838 -0.137330
v -0.090493 0.151812 -0.135431
v -0.098746 0.265602 -0.147782
v -0.031778 0.151812 -0.159752
v -0.116424 0.009838 -0.077791
v -0.133976 0.138400 -0.089519
v -0.135432 0.151812 -0.090492
v -0.147783 0.265602 -0.098745
v -0.137331 0.009838 -0.027316
v -0.158036 0.138400 -0.031435
v -0.133976 0.138400 -0.089519
v -0.116424 0.009838 -0.077791
v -0.159753 0.151812 -0.031776
v -0.135432 0.151812 -0.090492
v -0.137331 0.009838 0.027317
v -0.158036 0.138400 0.031435
v -0.158036 0.138400 -0.031435
v -0.137331 0.009838 -0.027316
v -0.159753 0.151812 0.031777
v -0.159753 0.151812 -0.031776
v -0.116424 0.009838 0.077792
v -0.133976 0.138400 0.089520
v -0.135432 0.151812 0.090493
v -0.077792 0.009838 0.116423
v -0.089520 0.138400 0.133976
v -0.133976 0.138400 0.089520
v -0.116424 0.009838 0.077792
v -0.090493 0.151812 0.135432
v -0.147783 0.265602 0.098746
v -0.135432 0.151812 0.090493
v -0.027318 0.009838 0.137331
v -0.031436 0.138400 0.158035
v -0.031777 0.151812 0.159753
v 0.027316 0.009838 0.137331
v 0.031434 0.138400 0.158035
v 0.031776 0.151812 0.159753
v 0.077790 0.009838 0.116423
v 0.089519 0.138400 0.133976
v 0.090491 0.151812 0.135432
v 0.116422 0.009838 0.077792
v 0.133975 0.138400 0.089520
v 0.135430 0.151812 0.090493
v 0.147781 0.265602 0.098746
v 0.137329 0.009838 0.027317
v 0.158034 0.138400 0.031435
v 0.133975 0.138400 0.089520
v 0.116422 0.009838 0.077792
v 0.159751 0.151812 0.031777
v 0.135430 0.151812 0.090493
v 0.137329 0.009838 -0.027316
v 0.158034 0.138400 -0.031435
v 0.159751 0.151812 -0.031776
v 0.116422 0.009838 -0.077791
v 0.133975 0.138400 -0.089519
v 0.135430 0.151812 -0.090492
v 0.077790 0.009838 -0.116422
v 0.089519 0.138400 -0.133975
v 0.133975 0.138400 -0.089519
v 0.116422 0.009838 -0.077791
v 0.090491 0.151812 -0.135431
v 0.147781 0.265602 -0.098745
v 0.135430 0.151812 -0.090492
v 0.027316 0.009838 -0.137330
v 0.031434 0.138400 -0.158034
v 0.031776 0.151812 -0.159752
v 0.031140 0.267090 -0.156557
v 0.031268 0.327990 -0.157199
v 0.088682 0.267090 -0.132722
v 0.089044 0.327990 -0.133267
v 0.088682 0.267090 -0.132722
v 0.132722 0.267090 -0.088682
v 0.132995 0.327990 -0.089046
v 0.089044 0.327990 -0.133267
v 0.156556 0.267090 -0.031141
v 0.156614 0.327990 -0.031269
v 0.156557 0.267090 0.031142
v 0.156614 0.327990 0.031269
v 0.132722 0.267090 0.088683
v 0.132994 0.327990 0.089047
v 0.088682 0.267090 0.132724
v 0.089044 0.327990 0.133268
v 0.088682 0.267090 0.132724
v 0.031140 0.267090 0.156558
v 0.031268 0.327990 0.157200
v 0.089044 0.327990 0.133268
v -0.031142 0.267090 0.156558
v -0.031270 0.327990 0.157200
v -0.088684 0.267090 0.132723
v -0.089046 0.327990 0.133268
v -0.088684 0.267090 0.132723
v -0.132724 0.267090 0.088683
v -0.132997 0.327990 0.089047
v -0.089046 0.327990 0.133268
v -0.156558 0.267090 0.031142
v -0.156616 0.327990 0.031269
v -0.156559 0.267090 -0.031141
v -0.156616 0.327990 -0.031269
v -0.132724 0.267090 -0.088682
v -0.132996 0.327990 -0.089046
v -0.088684 0.267090 -0.132723
v -0.089046 0.327990 -0.133267
v -0.022587 0.014334 -0.113546
v -0.064320 0.014334 -0.096259
v 0.064318 0.014334 -0.096259
v 0.022585 0.014334 -0.113546
v -0.071320 0.032075 -0.106735
v -0.025045 0.032075 -0.125903
v -0.027936 0.141490 -0.140441
v -0.079555 0.141490 -0.119060
v -0.106737 0.032075 -0.071318
v -0.071320 0.032075 -0.106735
v -0.079555 0.141490 -0.119060
v -0.119061 0.141490 -0.079553
v -0.125905 0.032075 -0.025043
v -0.140442 0.141490 -0.027935
v -0.125905 0.032075 0.025044
v -0.140442 0.141490 0.027936
v -0.106737 0.032075 0.071319
v -0.119061 0.141490 0.079554
v -0.071320 0.032075 0.106736
v -0.079555 0.141490 0.119061
v -0.025045 0.032075 0.125904
v -0.071320 0.032075 0.106736
v -0.079555 0.141490 0.119061
v -0.027936 0.141490 0.140442
v 0.025043 0.032075 0.125904
v 0.027935 0.141490 0.140442
v 0.071318 0.032075 0.106736
v 0.079553 0.141490 0.119061
v 0.106735 0.032075 0.071319
v 0.071318 0.032075 0.106736
v 0.079553 0.141490 0.119061
v 0.119060 0.141490 0.079554
v 0.125903 0.032075 0.025044
v 0.140440 0.141490 0.027936
v 0.125903 0.032075 -0.025043
v 0.140440 0.141490 -0.027935
v 0.106735 0.032075 -0.071318
v 0.119060 0.141490 -0.079553
v 0.071318 0.032075 -0.106735
v 0.079553 0.141490 -0.119060
v 0.025043 0.032075 -0.125903
v 0.071318 0.032075 -0.106735
v 0.079553 0.141490 -0.119060
v 0.027935 0.141490 -0.140441
v -0.099138 0.327748 -0.148369
v -0.034813 0.327748 -0.175013
v -0.031270 0.327990 -0.157199
v 0.031268 0.327990 -0.157199
v 0.034811 0.327748 -0.175013
v 0.089044 0.327990 -0.133267
v 0.099136 0.327748 -0.148369
v 0.132995 0.327990 -0.089046
v 0.148116 0.327748 -0.099137
v 0.156614 0.327990 -0.031269
v 0.174407 0.327748 -0.034812
v 0.174407 0.327748 0.034813
v 0.156614 0.327990 0.031269
v 0.132994 0.327990 0.089047
v 0.148116 0.327748 0.099138
v 0.089044 0.327990 0.133268
v 0.099136 0.327748 0.148370
v 0.031268 0.327990 0.157200
v 0.034811 0.327748 0.175014
v -0.031270 0.327990 0.157200
v -0.034813 0.327748 0.175014
v -0.089046 0.327990 0.133268
v -0.099138 0.327748 0.148370
v -0.132997 0.327990 0.089047
v -0.148118 0.327748 0.099138
v -0.156616 0.327990 0.031269
v -0.174408 0.327748 0.034813
v 0.148735 0.490894 -0.034812
v 0.133479 0.491135 -0.031269
v 0.114166 0.546853 -0.031269
v 0.127217 0.546628 -0.034812
v -0.174408 0.327748 -0.034812
v -0.156616 0.327990 -0.031269
v -0.132996 0.327990 -0.089046
v -0.148118 0.327748 -0.099137
v -0.089046 0.327990 -0.133267
v -0.099138 0.327748 -0.148369
v 0.133479 0.491135 -0.031269
v 0.133479 0.491135 0.031269
v 0.114166 0.546853 0.031269
v 0.114166 0.546853 -0.031269
v -0.133481 0.491135 0.031269
v -0.133481 0.491135 -0.031269
v -0.114168 0.546853 -0.031269
v -0.114168 0.546853 0.031269
v -0.117244 0.572466 0.009941
v -0.105207 0.572708 0.006397
v -0.105207 0.572708 -0.006396
v -0.117244 0.572466 -0.009940
v -0.148737 0.490894 -0.034812
v -0.148737 0.490894 0.034813
v -0.127219 0.546628 0.034813
v -0.127219 0.546628 -0.034812
v 0.117242 0.572466 -0.009940
v 0.105205 0.572708 -0.006396
v 0.105205 0.572708 0.006397
v 0.117242 0.572466 0.009941
v -0.148737 0.490894 0.034813
v -0.133481 0.491135 0.031269
v -0.114168 0.546853 0.031269
v -0.127219 0.546628 0.034813
v 0.174407 0.327748 -0.034812
v 0.156614 0.327990 -0.031269
v 0.150170 0.409562 -0.031269
v 0.167152 0.409321 -0.034812
v 0.167152 0.409321 -0.034812
v 0.167152 0.409321 0.034813
v 0.148735 0.490894 -0.034812
v 0.148735 0.490894 0.034813
v 0.150170 0.409562 0.031269
v 0.150170 0.409562 -0.031269
v -0.167154 0.409321 0.034813
v -0.167154 0.409321 -0.034812
v -0.174408 0.327748 0.034813
v -0.156616 0.327990 0.031269
v -0.150172 0.409562 0.031269
v -0.167154 0.409321 0.034813
v -0.150172 0.409562 -0.031269
v -0.150172 0.409562 0.031269
v 0.107830 0.565135 -0.023984
v 0.120163 0.564899 -0.027527
v 0.120163 0.564899 -0.027527
v 0.107830 0.565135 -0.023984
v 0.107830 0.565135 0.023985
v 0.120163 0.564898 0.027528
v 0.120163 0.564898 0.027528
v 0.107830 0.565135 0.023985
v 0.114166 0.546853 0.031269
v 0.127217 0.546628 0.034813
v -0.107832 0.565135 0.023984
v -0.120165 0.564899 0.027528
v -0.120165 0.564899 0.027528
v -0.107832 0.565135 0.023984
v -0.107832 0.565135 -0.023984
v -0.120165 0.564898 -0.027527
v 0.127217 0.546628 -0.034812
v 0.127217 0.546628 0.034813
v 0.133479 0.491135 0.031269
v 0.148735 0.490894 0.034813
v -0.133481 0.491135 -0.031269
v -0.148737 0.490894 -0.034812
v -0.127219 0.546628 -0.034812
v -0.114168 0.546853 -0.031269
v 0.156614 0.327990 0.031269
v 0.174407 0.327748 0.034813
v 0.167152 0.409321 0.034813
v 0.150170 0.409562 0.031269
v -0.156616 0.327990 -0.031269
v -0.174408 0.327748 -0.034812
v -0.167154 0.409321 -0.034812
v -0.150172 0.409562 -0.031269
v -0.120165 0.564898 -0.027527
v -0.107832 0.565135 -0.023984
v 0.137329 0.009838 0.027317
v 0.116422 0.009838 0.077792
v 0.121788 0.009838 0.081378
v 0.143660 0.009838 0.028576
v 0.137329 0.009838 -0.027316
v 0.143660 0.009838 -0.028575
v 0.116422 0.009838 -0.077791
v 0.121788 0.009838 -0.081377
v 0.077790 0.009838 -0.116422
v 0.081376 0.009838 -0.121789
v -0.077792 0.009838 -0.116422
v -0.027318 0.009838 -0.137330
v -0.028577 0.009838 -0.143660
v -0.081378 0.009838 -0.121789
v 0.027316 0.009838 -0.137330
v 0.028575 0.009838 -0.143660
v -0.116424 0.009838 -0.077791
v -0.121790 0.009838 -0.081377
v -0.137331 0.009838 -0.027316
v -0.143661 0.009838 -0.028575
v -0.024576 0.014334 -0.123546
v 0.024574 0.014334 -0.123546
v 0.069983 0.014334 -0.104737
v 0.069983 0.014334 -0.104737
v 0.104736 0.014334 -0.069983
v 0.123545 0.014334 -0.024574
v 0.123545 0.014334 0.024575
v 0.104736 0.014334 0.069983
v 0.069983 0.014334 0.104738
v 0.069983 0.014334 0.104738
v 0.024574 0.014334 0.123547
v -0.024576 0.014334 0.123547
v -0.069984 0.014334 0.104738
v -0.069984 0.014334 0.104738
v -0.104738 0.014334 0.069984
v -0.123547 0.014334 0.024575
v -0.123547 0.014334 -0.024574
v -0.104738 0.014334 -0.069983
v -0.069984 0.014334 -0.104737
v -0.069984 0.014334 -0.104737
v -0.028247 0.000004 -0.142003
v -0.028577 0.009838 -0.143660
v 0.028575 0.009838 -0.143660
v 0.028245 0.000004 -0.142003
v 0.081376 0.009838 -0.121789
v 0.080438 0.000004 -0.120384
v 0.121788 0.009838 -0.081377
v 0.120384 0.000004 -0.080438
v 0.120384 0.000004 -0.080438
v 0.121788 0.009838 -0.081377
v 0.143660 0.009838 -0.028575
v 0.142003 0.000004 -0.028246
v 0.143660 0.009838 0.028576
v 0.142003 0.000004 0.028247
v 0.121788 0.009838 0.081378
v 0.120384 0.000004 0.080439
v 0.120384 0.000004 0.080439
v 0.121788 0.009838 0.081378
v 0.081376 0.009838 0.121790
v 0.080438 0.000004 0.120385
v 0.028575 0.009838 0.143661
v 0.028245 0.000004 0.142004
v -0.028577 0.009838 0.143661
v -0.028247 0.000004 0.142004
v -0.081378 0.009838 0.121790
v -0.080440 0.000004 0.120386
v -0.121790 0.009838 0.081378
v -0.120386 0.000004 0.080439
v -0.120386 0.000004 0.080439
v -0.121790 0.009838 0.081378
v -0.143661 0.009838 0.028576
v -0.142004 0.000004 0.028247
v -0.143661 0.009838 -0.028575
v -0.142004 0.000004 -0.028246
v -0.142004 0.000004 -0.028246
v -0.143661 0.009838 -0.028575
v -0.121790 0.009838 -0.081377
v -0.120386 0.000004 -0.080438
v -0.120386 0.000004 -0.080438
v -0.121790 0.009838 -0.081377
v -0.081378 0.009838 -0.121789
v -0.080440 0.000004 -0.120385
v 0.077790 0.009838 0.116423
v 0.081376 0.009838 0.121790
v -0.026687 0.000004 -0.134161
v 0.026686 0.000004 -0.134161
v 0.075995 0.000004 -0.113736
v -0.075997 0.000004 -0.113736
v 0.027316 0.009838 0.137331
v 0.028575 0.009838 0.143661
v -0.027318 0.009838 0.137331
v -0.028577 0.009838 0.143661
v -0.077792 0.009838 0.116423
v -0.081378 0.009838 0.121790
v -0.116424 0.009838 0.077792
v -0.121790 0.009838 0.081378
v -0.137331 0.009838 0.027317
v -0.143661 0.009838 0.028576
v -0.159753 0.151812 0.031777
v -0.159753 0.151812 -0.031776
v -0.165380 0.151812 -0.032896
v -0.165380 0.151812 0.032896
v 0.031434 0.138400 0.158035
v 0.089519 0.138400 0.133976
v 0.092671 0.138400 0.138695
v 0.032541 0.138400 0.163601
v -0.135432 0.151812 0.090493
v -0.140202 0.151812 0.093680
v -0.089520 0.138400 -0.133975
v -0.133976 0.138400 -0.089519
v -0.138695 0.138400 -0.092672
v -0.092673 0.138400 -0.138694
v -0.090493 0.151812 0.135432
v -0.093680 0.151812 0.140202
v 0.089519 0.138400 -0.133975
v 0.031434 0.138400 -0.158034
v 0.032541 0.138400 -0.163600
v 0.092671 0.138400 -0.138694
v -0.031436 0.138400 0.158035
v -0.032543 0.138400 0.163601
v -0.031777 0.151812 0.159753
v -0.032897 0.151812 0.165379
v -0.031436 0.138400 -0.158034
v -0.032543 0.138400 -0.163600
v 0.031776 0.151812 0.159753
v 0.032895 0.151812 0.165379
v 0.133975 0.138400 -0.089519
v 0.138693 0.138400 -0.092672
v -0.089520 0.138400 0.133976
v -0.092673 0.138400 0.138695
v 0.090491 0.151812 0.135432
v 0.093678 0.151812 0.140202
v 0.158034 0.138400 -0.031435
v 0.163600 0.138400 -0.032542
v 0.135430 0.151812 0.090493
v 0.140200 0.151812 0.093680
v -0.133976 0.138400 0.089520
v -0.138695 0.138400 0.092673
v -0.032543 0.138400 -0.163600
v -0.032897 0.151812 -0.165378
v 0.032895 0.151812 -0.165378
v 0.032541 0.138400 -0.163600
v 0.093678 0.151812 -0.140201
v 0.092671 0.138400 -0.138694
v 0.140200 0.151812 -0.093679
v 0.138693 0.138400 -0.092672
v 0.138693 0.138400 -0.092672
v 0.140200 0.151812 -0.093679
v 0.165378 0.151812 -0.032896
v 0.163600 0.138400 -0.032542
v 0.165378 0.151812 0.032896
v 0.163600 0.138400 0.032543
v 0.140200 0.151812 0.093680
v 0.138693 0.138400 0.092673
v 0.138693 0.138400 0.092673
v 0.140200 0.151812 0.093680
v 0.093678 0.151812 0.140202
v 0.092671 0.138400 0.138695
v 0.032895 0.151812 0.165379
v 0.032541 0.138400 0.163601
v -0.032897 0.151812 0.165379
v -0.032543 0.138400 0.163601
v -0.093680 0.151812 0.140202
v -0.092673 0.138400 0.138695
v -0.140202 0.151812 0.093680
v -0.138695 0.138400 0.092673
v -0.138695 0.138400 0.092673
v -0.140202 0.151812 0.093680
v -0.165380 0.151812 0.032896
v -0.163602 0.138400 0.032543
v -0.165380 0.151812 -0.032896
v -0.163602 0.138400 -0.032542
v -0.163602 0.138400 -0.032542
v -0.165380 0.151812 -0.032896
v -0.140202 0.151812 -0.093679
v -0.138695 0.138400 -0.092672
v -0.138695 0.138400 -0.092672
v -0.140202 0.151812 -0.093679
v -0.093680 0.151812 -0.140201
v -0.092673 0.138400 -0.138694
v -0.158036 0.138400 -0.031435
v -0.163602 0.138400 -0.032542
v -0.135432 0.151812 -0.090492
v -0.140202 0.151812 -0.093679
v 0.133975 0.138400 0.089520
v 0.138693 0.138400 0.092673
v -0.031778 0.151812 -0.159752
v 0.031776 0.151812 -0.159752
v 0.032895 0.151812 -0.165378
v -0.032897 0.151812 -0.165378
v -0.090493 0.151812 -0.135431
v -0.093680 0.151812 -0.140201
v 0.090491 0.151812 -0.135431
v 0.093678 0.151812 -0.140201
v -0.158036 0.138400 0.031435
v -0.163602 0.138400 0.032543
v 0.158034 0.138400 0.031435
v 0.163600 0.138400 0.032543
v 0.135430 0.151812 -0.090492
v 0.140200 0.151812 -0.093679
v 0.159751 0.151812 -0.031776
v 0.165378 0.151812 -0.032896
v 0.159751 0.151812 0.031777
v 0.165378 0.151812 0.032896
v 0.026686 0.000004 -0.134161
v -0.026687 0.000004 -0.134161
v -0.028247 0.000004 -0.142003
v 0.028245 0.000004 -0.142003
v 0.075995 0.000004 -0.113736
v 0.080438 0.000004 -0.120384
v 0.113736 0.000004 -0.075996
v 0.120384 0.000004 -0.080438
v 0.134160 0.000004 -0.026686
v 0.142003 0.000004 -0.028246
v 0.134160 0.000004 0.026687
v 0.142003 0.000004 0.028247
v 0.113736 0.000004 0.075997
v 0.120384 0.000004 0.080439
v 0.075995 0.000004 0.113737
v 0.080438 0.000004 0.120385
v 0.026686 0.000004 0.134162
v 0.028245 0.000004 0.142004
v -0.026687 0.000004 0.134162
v -0.028247 0.000004 0.142004
v -0.075997 0.000004 0.113737
v -0.080440 0.000004 0.120386
v -0.113738 0.000004 0.075997
v -0.120386 0.000004 0.080439
v -0.134162 0.000004 0.026687
v -0.142004 0.000004 0.028247
v -0.134162 0.000004 -0.026686
v -0.142004 0.000004 -0.028246
v -0.113737 0.000004 -0.075996
v -0.120386 0.000004 -0.080438
v -0.075997 0.000004 -0.113736
v -0.080440 0.000004 -0.120385
v 0.120163 0.564898 0.027528
v 0.120163 0.564899 -0.027527
v 0.117242 0.572466 -0.009940
v 0.117242 0.572466 0.009941
v 0.107830 0.565135 -0.023984
v 0.107830 0.565135 0.023985
v 0.105205 0.572708 0.006397
v 0.105205 0.572708 -0.006396
v -0.107832 0.565135 0.023984
v -0.107832 0.565135 -0.023984
v -0.105207 0.572708 -0.006396
v -0.105207 0.572708 0.006397
v -0.120165 0.564898 -0.027527
v -0.120165 0.564899 0.027528
v -0.117244 0.572466 0.009941
v -0.117244 0.572466 -0.009940
v -0.024576 0.014334 -0.123546
v -0.069984 0.014334 -0.104737
v -0.096261 0.014334 -0.064318
v -0.104738 0.014334 -0.069983
v -0.113547 0.014334 -0.022585
v -0.123547 0.014334 -0.024574
v -0.113547 0.014334 0.022586
v -0.123547 0.014334 0.024575
v -0.096261 0.014334 0.064319
v -0.104738 0.014334 0.069984
v -0.064319 0.014334 0.096260
v -0.069984 0.014334 0.104738
v -0.022587 0.014334 0.113547
v -0.024576 0.014334 0.123547
v 0.022585 0.014334 0.113547
v 0.024574 0.014334 0.123547
v 0.064318 0.014334 0.096260
v 0.069983 0.014334 0.104738
v 0.096259 0.014334 0.064319
v 0.104736 0.014334 0.069983
v 0.113545 0.014334 0.022586
v 0.123545 0.014334 0.024575
v 0.113545 0.014334 -0.022585
v 0.123545 0.014334 -0.024574
v 0.096259 0.014334 -0.064318
v 0.104736 0.014334 -0.069983
v 0.069983 0.014334 -0.104737
v 0.024574 0.014334 -0.123546
v -0.075997 0.000004 0.113737
v -0.113738 0.000004 0.075997
v -0.113737 0.000004 -0.075996
v 0.075995 0.000004 0.113737
v 0.026686 0.000004 0.134162
v -0.026687 0.000004 0.134162
v 0.113736 0.000004 -0.075996
v 0.113736 0.000004 0.075997
v 0.134160 0.000004 -0.026686
v 0.134160 0.000004 0.026687
v -0.134162 0.000004 0.026687
v -0.134162 0.000004 -0.026686
v -0.146388 0.497887 0.012099
v -0.130078 0.541332 0.012099
v -0.130078 0.541332 -0.012098
v -0.146388 0.497887 -0.012098
v 0.124427 0.497887 -0.012098
v 0.110565 0.541332 -0.012098
v 0.130076 0.541332 -0.012098
v 0.146386 0.497887 -0.012098
v 0.146386 0.497887 -0.012098
v 0.130076 0.541332 -0.012098
v 0.130076 0.541332 0.012099
v 0.146386 0.497887 0.012099
v -0.124429 0.497887 0.012099
v -0.110567 0.541332 0.012099
v -0.130078 0.541332 0.012099
v -0.146388 0.497887 0.012099
v 0.126767 0.490554 -0.006767
v 0.149138 0.490554 -0.006767
v 0.149138 0.490554 0.006768
v 0.126767 0.490554 0.006768
v -0.110567 0.541332 -0.012098
v -0.130078 0.541332 -0.012098
v -0.130078 0.541332 0.012099
v -0.110567 0.541332 0.012099
v 0.130076 0.541332 -0.012098
v 0.110565 0.541332 -0.012098
v 0.110565 0.541332 0.012099
v 0.130076 0.541332 0.012099
v -0.031108 0.524765 -0.012098
v -0.027642 0.565335 -0.012098
v -0.000001 0.573336 -0.012098
v -0.000001 0.532070 -0.012098
v -0.149140 0.490554 -0.006767
v -0.126769 0.490554 -0.006767
v -0.126769 0.490554 0.006768
v -0.149140 0.490554 0.006768
v -0.055284 0.557334 -0.012098
v -0.055284 0.557334 0.012099
v 0.027640 0.565335 -0.012098
v -0.000001 0.573336 -0.012098
v -0.000001 0.573336 0.012099
v 0.027640 0.565335 0.012099
v 0.146386 0.497887 0.012099
v 0.130076 0.541332 0.012099
v 0.110565 0.541332 0.012099
v 0.124427 0.497887 0.012099
v 0.063383 0.492231 -0.006767
v 0.063383 0.492231 0.006768
v -0.031693 0.517497 -0.006767
v -0.000001 0.524372 -0.006767
v -0.000001 0.524372 0.006768
v -0.031693 0.517497 0.006768
v -0.146388 0.497887 -0.012098
v -0.130078 0.541332 -0.012098
v -0.110567 0.541332 -0.012098
v -0.124429 0.497887 -0.012098
v -0.062215 0.501632 0.012099
v -0.055284 0.557334 0.012099
v 0.031106 0.524765 0.012099
v 0.027640 0.565335 0.012099
v -0.000001 0.573336 0.012099
v -0.000001 0.532070 0.012099
v 0.062213 0.501632 -0.012098
v 0.055282 0.557334 -0.012098
v 0.031106 0.524765 -0.012098
v 0.027640 0.565335 -0.012098
v 0.055282 0.557334 0.012099
v 0.062213 0.501632 0.012099
v 0.031691 0.517497 -0.006767
v 0.031691 0.517497 0.006768
v 0.055282 0.557334 -0.012098
v 0.055282 0.557334 0.012099
v -0.031108 0.524765 0.012099
v -0.027642 0.565335 0.012099
v -0.063385 0.492231 -0.006767
v -0.063385 0.492231 0.006768
v -0.027642 0.565335 -0.012098
v -0.027642 0.565335 0.012099
v -0.055284 0.557334 -0.012098
v -0.062215 0.501632 -0.012098
v 0.063383 0.492231 0.006768
v 0.031691 0.517497 0.006768
v -0.000001 0.524372 -0.006767
v 0.031691 0.517497 -0.006767
v -0.063385 0.492231 -0.006767
v -0.031693 0.517497 -0.006767
v -0.000001 0.524372 0.006768
v -0.031693 0.517497 0.006768
v -0.126769 0.490554 -0.006767
v -0.063385 0.492231 0.006768
v 0.126767 0.490554 0.006768
v 0.063383 0.492231 -0.006767
v 0.126767 0.490554 -0.006767
v -0.126769 0.490554 0.006768
v -0.149140 0.490554 -0.006767
v 0.149138 0.490554 0.006768
v -0.149140 0.490554 0.006768
v 0.149138 0.490554 -0.006767
v 0.149138 0.490554 0.006768
v 0.149138 0.490554 -0.006767
v -0.149140 0.490554 0.006768
v -0.149140 0.490554 -0.006767
vt 0.935615 0.938013
vt 0.902523 0.937561
vt 0.902597 0.972541
vt 0.935823 0.972995
vt 0.876813 0.307271
vt 0.841079 0.307192
vt 0.841079 0.347219
vt 0.876813 0.347140
vt 0.841585 0.384198
vt 0.877317 0.383973
vt 0.575648 0.920212
vt 0.592181 0.888537
vt 0.566885 0.875822
vt 0.550452 0.907548
vt 0.533890 0.859101
vt 0.517587 0.890894
vt 0.498218 0.840921
vt 0.482056 0.872786
vt 0.465299 0.824050
vt 0.449268 0.855980
vt 0.440146 0.811055
vt 0.424215 0.843036
vt 0.296269 0.100791
vt 0.260537 0.100566
vt 0.260032 0.137545
vt 0.295766 0.137625
vt 0.260032 0.177572
vt 0.295766 0.177493
vt 0.260537 0.214552
vt 0.296269 0.214326
vt 0.260762 0.369910
vt 0.260425 0.405636
vt 0.288738 0.405479
vt 0.288963 0.369753
vt 0.325731 0.405394
vt 0.325810 0.369668
vt 0.365771 0.405394
vt 0.365692 0.369668
vt 0.900540 0.136000
vt 0.901077 0.100277
vt 0.864092 0.099555
vt 0.863700 0.135279
vt 0.835786 0.098909
vt 0.835506 0.134635
vt 0.797381 0.080548
vt 0.723152 0.073806
vt 0.722696 0.107198
vt 0.796984 0.109566
vt 0.942955 0.275182
vt 0.877317 0.270438
vt 0.942493 0.308937
vt 0.798113 0.058339
vt 0.723996 0.048249
vt 0.943807 0.249347
vt 0.878247 0.242247
vt 0.746259 0.788213
vt 0.746259 0.714334
vt 0.712875 0.713187
vt 0.717249 0.787216
vt 0.901077 0.201388
vt 0.867317 0.200727
vt 0.661579 0.788386
vt 0.664029 0.714547
vt 0.627873 0.714506
vt 0.630159 0.788351
vt 0.327476 0.304299
vt 0.364026 0.304299
vt 0.690606 0.788351
vt 0.697433 0.714506
vt 0.293710 0.304377
vt 0.699338 0.169991
vt 0.625110 0.176733
vt 0.625953 0.202291
vt 0.700071 0.192200
vt 0.361907 0.209582
vt 0.297199 0.242517
vt 0.362760 0.235417
vt 0.698941 0.140974
vt 0.624653 0.143341
vt 0.361446 0.175827
vt 0.698941 0.109566
vt 0.624653 0.107198
vt 0.361446 0.139291
vt 0.699338 0.080548
vt 0.625110 0.073806
vt 0.361907 0.105536
vt 0.700071 0.058339
vt 0.625953 0.048249
vt 0.362760 0.079701
vt 0.297199 0.072600
vt 0.471613 0.140314
vt 0.545481 0.137946
vt 0.545558 0.104554
vt 0.471680 0.111296
vt 0.453840 0.931779
vt 0.423792 0.916378
vt 0.471613 0.171722
vt 0.545481 0.174089
vt 0.486401 0.948374
vt 0.471680 0.200739
vt 0.545558 0.207481
vt 0.516520 0.963636
vt 0.797381 0.169991
vt 0.723152 0.176733
vt 0.723996 0.202291
vt 0.798113 0.192200
vt 0.942955 0.379229
vt 0.878247 0.412164
vt 0.943807 0.405064
vt 0.796984 0.140974
vt 0.722696 0.143341
vt 0.942493 0.345474
vt 0.866705 0.937561
vt 0.866631 0.972541
vt 0.833613 0.938013
vt 0.833405 0.972995
vt 0.222572 0.806469
vt 0.247900 0.806328
vt 0.247690 0.771316
vt 0.222259 0.771457
vt 0.280991 0.806251
vt 0.280918 0.771241
vt 0.316809 0.806251
vt 0.316883 0.771241
vt 0.349901 0.806328
vt 0.350110 0.771317
vt 0.375229 0.806469
vt 0.375541 0.771457
vt 0.117572 0.276032
vt 0.084481 0.275580
vt 0.084554 0.310560
vt 0.117781 0.311014
vt 0.048662 0.275580
vt 0.048589 0.310560
vt 0.015571 0.276032
vt 0.015363 0.311014
vt 0.023305 0.806469
vt 0.048633 0.806328
vt 0.048423 0.771316
vt 0.022992 0.771457
vt 0.081724 0.806251
vt 0.081651 0.771241
vt 0.117543 0.806251
vt 0.117616 0.771241
vt 0.150634 0.806328
vt 0.150843 0.771316
vt 0.175962 0.806469
vt 0.176275 0.771457
vt 0.803480 0.579528
vt 0.793539 0.555536
vt 0.793539 0.629488
vt 0.803480 0.605496
vt 0.925629 0.803472
vt 0.899017 0.803109
vt 0.900680 0.865700
vt 0.930365 0.866106
vt 0.140648 0.941516
vt 0.161016 0.941630
vt 0.168104 0.878703
vt 0.145384 0.878576
vt 0.114036 0.941455
vt 0.115699 0.878508
vt 0.085231 0.941455
vt 0.083568 0.878508
vt 0.058619 0.941516
vt 0.053883 0.878576
vt 0.038250 0.941630
vt 0.031163 0.878703
vt 0.052169 0.141128
vt 0.025557 0.141491
vt 0.020821 0.204125
vt 0.050506 0.203719
vt 0.080974 0.141128
vt 0.082637 0.203719
vt 0.107586 0.141491
vt 0.112322 0.204125
vt 0.339915 0.941516
vt 0.360283 0.941630
vt 0.367371 0.878703
vt 0.344651 0.878576
vt 0.313303 0.941455
vt 0.314966 0.878508
vt 0.284498 0.941455
vt 0.282835 0.878508
vt 0.257886 0.941516
vt 0.253150 0.878576
vt 0.237517 0.941630
vt 0.230430 0.878703
vt 0.870211 0.803109
vt 0.843599 0.803472
vt 0.838863 0.866106
vt 0.868549 0.865700
vt 0.841585 0.270213
vt 0.145543 0.227688
vt 0.155788 0.225651
vt 0.155788 0.189698
vt 0.145543 0.187661
vt 0.169551 0.156484
vt 0.160866 0.150681
vt 0.194982 0.131217
vt 0.189179 0.122524
vt 0.228210 0.117638
vt 0.226172 0.107409
vt 0.923575 0.730789
vt 0.925612 0.720560
vt 0.892385 0.706981
vt 0.886582 0.715674
vt 0.866954 0.681715
vt 0.858269 0.687517
vt 0.853190 0.648500
vt 0.842946 0.650537
vt 0.853190 0.612547
vt 0.842946 0.610510
vt 0.866954 0.579333
vt 0.858269 0.573531
vt 0.892385 0.554066
vt 0.886582 0.545373
vt 0.925612 0.540487
vt 0.923575 0.530259
vt 0.381389 0.152049
vt 0.389968 0.150209
vt 0.394383 0.116613
vt 0.387044 0.118188
vt 0.226172 0.307940
vt 0.228210 0.297711
vt 0.194982 0.284132
vt 0.189179 0.292825
vt 0.169551 0.258866
vt 0.160866 0.264667
vt 0.280918 0.677526
vt 0.316883 0.677526
vt 0.316883 0.645557
vt 0.280918 0.645557
vt 0.081651 0.677526
vt 0.117616 0.677526
vt 0.117616 0.645557
vt 0.081651 0.645557
vt 0.701390 0.473892
vt 0.694468 0.475929
vt 0.694468 0.483284
vt 0.701390 0.485321
vt 0.365771 0.499266
vt 0.325731 0.499266
vt 0.325731 0.531375
vt 0.365771 0.531375
vt 0.690207 0.473892
vt 0.683285 0.475929
vt 0.683285 0.483284
vt 0.690207 0.485321
vt 0.559870 0.106964
vt 0.568448 0.105125
vt 0.572864 0.071528
vt 0.565525 0.073103
vt 0.385852 0.246838
vt 0.395859 0.244704
vt 0.390027 0.198051
vt 0.380476 0.200091
vt 0.555208 0.817302
vt 0.519535 0.799122
vt 0.576541 0.775471
vt 0.540869 0.757291
vt 0.316883 0.724367
vt 0.280918 0.724367
vt 0.325731 0.452312
vt 0.365771 0.452312
vt 0.564333 0.201754
vt 0.574340 0.199620
vt 0.568508 0.152966
vt 0.558957 0.155006
vt 0.117616 0.724367
vt 0.081651 0.724367
vt 0.395859 0.105725
vt 0.388926 0.107223
vt 0.691887 0.463781
vt 0.684794 0.465818
vt 0.684794 0.493395
vt 0.691887 0.495432
vt 0.921670 0.194094
vt 0.928603 0.195592
vt 0.927127 0.184704
vt 0.919788 0.183130
vt 0.574340 0.060640
vt 0.567407 0.062138
vt 0.703071 0.463781
vt 0.695978 0.465818
vt 0.695978 0.493395
vt 0.703071 0.495432
vt 0.591131 0.746864
vt 0.555458 0.728684
vt 0.922712 0.151108
vt 0.914133 0.149268
vt 0.588446 0.157269
vt 0.579867 0.155429
vt 0.585523 0.189291
vt 0.592861 0.190866
vt 0.928603 0.056613
vt 0.918596 0.054479
vt 0.913221 0.101226
vt 0.922772 0.103266
vt 0.594338 0.062774
vt 0.584330 0.060640
vt 0.578955 0.107388
vt 0.588506 0.109428
vt 0.587405 0.200256
vt 0.594338 0.201754
vt 0.438983 0.375007
vt 0.426960 0.345990
vt 0.423319 0.346714
vt 0.435897 0.377069
vt 0.461200 0.397216
vt 0.459138 0.400302
vt 0.490228 0.409236
vt 0.489504 0.412875
vt 0.521647 0.409236
vt 0.522371 0.412875
vt 0.584915 0.345990
vt 0.572891 0.375007
vt 0.575978 0.377069
vt 0.588555 0.346714
vt 0.550674 0.397216
vt 0.552737 0.400302
vt 0.584915 0.314582
vt 0.588555 0.313858
vt 0.572891 0.285565
vt 0.575978 0.283503
vt 0.898747 0.792960
vt 0.870481 0.792960
vt 0.844367 0.793316
vt 0.238667 0.951833
vt 0.258653 0.951722
vt 0.284768 0.951662
vt 0.313033 0.951662
vt 0.339147 0.951722
vt 0.359134 0.951833
vt 0.106819 0.131335
vt 0.080704 0.130979
vt 0.052439 0.130979
vt 0.026325 0.131335
vt 0.039400 0.951833
vt 0.059386 0.951722
vt 0.085501 0.951662
vt 0.113766 0.951662
vt 0.139880 0.951722
vt 0.159867 0.951833
vt 0.924861 0.793316
vt 0.603356 0.115662
vt 0.597673 0.115472
vt 0.597673 0.148328
vt 0.603356 0.148139
vt 0.598088 0.178683
vt 0.603766 0.178144
vt 0.598854 0.201916
vt 0.604524 0.201109
vt 0.606479 0.208346
vt 0.612130 0.208886
vt 0.612060 0.178531
vt 0.606410 0.178341
vt 0.612060 0.145675
vt 0.606410 0.145864
vt 0.612130 0.115320
vt 0.606479 0.115860
vt 0.817305 0.065169
vt 0.811635 0.064362
vt 0.810869 0.087594
vt 0.816547 0.088134
vt 0.810454 0.117949
vt 0.816137 0.118138
vt 0.810454 0.150805
vt 0.816137 0.150616
vt 0.810869 0.181160
vt 0.816547 0.180620
vt 0.811635 0.204392
vt 0.817305 0.203585
vt 0.752156 0.789440
vt 0.757806 0.789986
vt 0.757769 0.759631
vt 0.752120 0.759435
vt 0.757806 0.726775
vt 0.752156 0.726958
vt 0.715227 0.495595
vt 0.720877 0.495393
vt 0.720877 0.465038
vt 0.715227 0.465591
vt 0.604524 0.062693
vt 0.598854 0.061885
vt 0.598088 0.085118
vt 0.603766 0.085657
vt 0.426960 0.314582
vt 0.423319 0.313858
vt 0.702393 0.976862
vt 0.733088 0.976862
vt 0.761446 0.965120
vt 0.674036 0.965120
vt 0.438983 0.285565
vt 0.435897 0.283503
vt 0.461200 0.263356
vt 0.459138 0.260271
vt 0.490228 0.251337
vt 0.489503 0.247697
vt 0.521647 0.251337
vt 0.522371 0.247697
vt 0.550674 0.263356
vt 0.552737 0.260270
vt 0.503900 0.469408
vt 0.540449 0.469408
vt 0.541093 0.466174
vt 0.503256 0.466174
vt 0.213196 0.478359
vt 0.199360 0.511751
vt 0.202073 0.513564
vt 0.216397 0.478995
vt 0.470133 0.483390
vt 0.468300 0.480648
vt 0.045263 0.408823
vt 0.070829 0.383266
vt 0.069016 0.380553
vt 0.042549 0.407011
vt 0.444289 0.509225
vt 0.441545 0.507393
vt 0.045263 0.511751
vt 0.031427 0.478359
vt 0.028226 0.478995
vt 0.042549 0.513564
vt 0.213196 0.442216
vt 0.216397 0.441579
vt 0.430302 0.542980
vt 0.427066 0.542337
vt 0.031427 0.442216
vt 0.028226 0.441579
vt 0.430302 0.579517
vt 0.427066 0.580160
vt 0.070829 0.537308
vt 0.069016 0.540021
vt 0.199360 0.408823
vt 0.202073 0.407011
vt 0.444289 0.613271
vt 0.441546 0.615104
vt 0.104233 0.551140
vt 0.103597 0.554340
vt 0.470133 0.639106
vt 0.468300 0.641848
vt 0.173793 0.383266
vt 0.175607 0.380553
vt 0.968323 0.314163
vt 0.960580 0.313960
vt 0.960580 0.351783
vt 0.968323 0.351580
vt 0.961057 0.386727
vt 0.968795 0.386148
vt 0.961940 0.413472
vt 0.969668 0.412605
vt 0.932159 0.200024
vt 0.939867 0.200603
vt 0.939786 0.165659
vt 0.932079 0.165456
vt 0.939786 0.127836
vt 0.932079 0.128039
vt 0.939867 0.092892
vt 0.932159 0.093471
vt 0.397171 0.398041
vt 0.389442 0.397175
vt 0.388560 0.423920
vt 0.396298 0.424499
vt 0.388082 0.458864
vt 0.395825 0.459067
vt 0.388082 0.496687
vt 0.395825 0.496483
vt 0.388560 0.531631
vt 0.396298 0.531052
vt 0.389442 0.558375
vt 0.397171 0.557509
vt 0.389664 0.361493
vt 0.397371 0.362080
vt 0.397329 0.327136
vt 0.389622 0.326924
vt 0.397371 0.289313
vt 0.389664 0.289508
vt 0.705517 0.494904
vt 0.713224 0.494683
vt 0.713224 0.459739
vt 0.705517 0.460336
vt 0.969668 0.253138
vt 0.961940 0.252271
vt 0.961057 0.279016
vt 0.968795 0.279595
vt 0.104233 0.369435
vt 0.103597 0.366235
vt 0.574216 0.483390
vt 0.576049 0.480648
vt 0.173793 0.537308
vt 0.175607 0.540021
vt 0.614047 0.542980
vt 0.614047 0.579517
vt 0.617282 0.580160
vt 0.617282 0.542337
vt 0.600060 0.509225
vt 0.602803 0.507393
vt 0.600060 0.613271
vt 0.602803 0.615104
vt 0.140389 0.369435
vt 0.141026 0.366235
vt 0.140389 0.551140
vt 0.141026 0.554340
vt 0.574216 0.639106
vt 0.576049 0.641848
vt 0.540449 0.653088
vt 0.541093 0.656323
vt 0.503900 0.653088
vt 0.503256 0.656323
vt 0.642350 0.346866
vt 0.642350 0.316183
vt 0.637840 0.315286
vt 0.637840 0.347763
vt 0.654097 0.375214
vt 0.650273 0.377768
vt 0.675801 0.396910
vt 0.673246 0.400733
vt 0.704158 0.408652
vt 0.703261 0.413161
vt 0.734853 0.408652
vt 0.735750 0.413161
vt 0.763210 0.396910
vt 0.765765 0.400732
vt 0.784914 0.375214
vt 0.788738 0.377768
vt 0.796661 0.346866
vt 0.801171 0.347763
vt 0.796661 0.316182
vt 0.801171 0.315286
vt 0.784915 0.287835
vt 0.788738 0.285281
vt 0.763211 0.266138
vt 0.765765 0.262316
vt 0.734853 0.254396
vt 0.735750 0.249888
vt 0.704158 0.254396
vt 0.703261 0.249888
vt 0.675801 0.266138
vt 0.673246 0.262316
vt 0.654096 0.287835
vt 0.650273 0.285281
vt 0.563973 0.721209
vt 0.592181 0.735585
vt 0.585151 0.727108
vt 0.574965 0.721917
vt 0.285107 0.635067
vt 0.312694 0.635067
vt 0.302579 0.630722
vt 0.295222 0.630722
vt 0.085840 0.635067
vt 0.113427 0.635067
vt 0.103312 0.630722
vt 0.095955 0.630722
vt 0.361582 0.541901
vt 0.329920 0.541901
vt 0.340034 0.546261
vt 0.351467 0.546261
vt 0.809231 0.578384
vt 0.798414 0.552279
vt 0.775170 0.537173
vt 0.778427 0.532300
vt 0.751169 0.527236
vt 0.752313 0.521487
vt 0.725191 0.527236
vt 0.724048 0.521487
vt 0.701191 0.537173
vt 0.697933 0.532300
vt 0.682822 0.555536
vt 0.677947 0.552280
vt 0.672881 0.579528
vt 0.667130 0.578384
vt 0.672881 0.605496
vt 0.667130 0.606640
vt 0.682822 0.629488
vt 0.677947 0.632745
vt 0.701191 0.647851
vt 0.697934 0.652724
vt 0.725191 0.657788
vt 0.724048 0.663537
vt 0.751169 0.657789
vt 0.752313 0.663537
vt 0.775170 0.647851
vt 0.778427 0.652724
vt 0.798414 0.632745
vt 0.809231 0.606640
vt 0.674036 0.834348
vt 0.652331 0.856044
vt 0.652332 0.943423
vt 0.761446 0.834348
vt 0.733088 0.822606
vt 0.702393 0.822606
vt 0.783150 0.943423
vt 0.783150 0.856044
vt 0.794896 0.915076
vt 0.794896 0.884392
vt 0.640586 0.884392
vt 0.640586 0.915075
vt 0.679907 0.491567
vt 0.679907 0.466539
vt 0.665992 0.466539
vt 0.665992 0.491567
vt 0.988532 0.720940
vt 0.963560 0.712971
vt 0.963560 0.724188
vt 0.988532 0.733564
vt 0.661817 0.491567
vt 0.661817 0.466539
vt 0.647902 0.466539
vt 0.647902 0.491567
vt 0.449053 0.182993
vt 0.424082 0.175023
vt 0.424082 0.186240
vt 0.449053 0.195616
vt 0.970443 0.961417
vt 0.970443 0.974278
vt 0.978228 0.974278
vt 0.978228 0.961417
vt 0.967188 0.839223
vt 0.967188 0.828006
vt 0.953273 0.828006
vt 0.953273 0.839223
vt 0.967188 0.977566
vt 0.967188 0.966349
vt 0.953273 0.966349
vt 0.953273 0.977566
vt 0.973082 0.631525
vt 0.949764 0.633517
vt 0.945165 0.649408
vt 0.968884 0.649408
vt 0.970443 0.802801
vt 0.970443 0.815662
vt 0.978228 0.815662
vt 0.978228 0.802801
vt 0.967188 0.871004
vt 0.953273 0.871004
vt 0.967188 0.918677
vt 0.967188 0.902786
vt 0.953273 0.902786
vt 0.953273 0.918677
vt 0.449053 0.027304
vt 0.424082 0.036680
vt 0.424082 0.047897
vt 0.449053 0.039928
vt 0.970443 0.924979
vt 0.978228 0.924979
vt 0.970443 0.870320
vt 0.970443 0.888540
vt 0.978228 0.888540
vt 0.978228 0.870320
vt 0.988532 0.565252
vt 0.963560 0.574628
vt 0.963560 0.585845
vt 0.988532 0.577875
vt 0.446900 0.147227
vt 0.414884 0.143242
vt 0.433604 0.093577
vt 0.410285 0.095570
vt 0.405686 0.111460
vt 0.429405 0.111460
vt 0.986379 0.685174
vt 0.954363 0.681190
vt 0.973082 0.667291
vt 0.949764 0.665299
vt 0.414884 0.079679
vt 0.446900 0.075694
vt 0.970443 0.906759
vt 0.978228 0.906759
vt 0.967188 0.934568
vt 0.953273 0.934568
vt 0.433604 0.129343
vt 0.410285 0.127351
vt 0.970443 0.852101
vt 0.978228 0.852101
vt 0.967188 0.886895
vt 0.953273 0.886895
vt 0.954363 0.617626
vt 0.986379 0.613641
vt 0.452405 0.075021
vt 0.437883 0.093241
vt 0.973409 0.649408
vt 0.977361 0.667627
vt 0.991884 0.612969
vt 0.977361 0.631188
vt 0.433931 0.111460
vt 0.437883 0.129680
vt 0.992848 0.576530
vt 0.452405 0.147899
vt 0.453369 0.038583
vt 0.991884 0.685847
vt 0.992848 0.722286
vt 0.453369 0.184338
vt 0.992848 0.563669
vt 0.453369 0.025722
vt 0.453369 0.197199
vt 0.658752 0.495791
vt 0.650968 0.495791
vt 0.992848 0.735147
vt 0.676842 0.495791
vt 0.669057 0.495791
vn 0.554565 0.069431 0.829239
vn 0.194593 0.069829 0.978395
vn 0.126289 0.762158 0.634954
vn 0.360005 0.762250 0.537933
vn -0.194590 -0.070011 -0.978383
vn -0.147043 0.657085 -0.739336
vn 0.147043 0.657085 -0.739336
vn 0.194590 -0.070011 -0.978383
vn 0.419180 0.657107 -0.626497
vn 0.554501 -0.069645 -0.829264
vn 0.554501 -0.069645 -0.829264
vn 0.419180 0.657107 -0.626497
vn 0.626501 0.658363 -0.417199
vn 0.830139 -0.067996 -0.553395
vn 0.862647 0.296979 -0.409442
vn 0.978797 -0.065890 -0.193947
vn 0.862647 0.296980 0.409442
vn 0.978797 -0.065890 0.193947
vn 0.626501 0.658363 0.417199
vn 0.830129 -0.067997 0.553409
vn 0.419180 0.657107 0.626497
vn 0.554501 -0.069644 0.829264
vn 0.554501 -0.069644 0.829264
vn 0.419180 0.657107 0.626497
vn 0.147043 0.657086 0.739335
vn 0.194590 -0.070011 0.978383
vn -0.147043 0.657086 0.739335
vn -0.194590 -0.070011 0.978383
vn -0.419180 0.657107 0.626497
vn -0.554501 -0.069644 0.829264
vn -0.554501 -0.069644 0.829264
vn -0.419180 0.657107 0.626497
vn -0.626501 0.658363 0.417199
vn -0.830129 -0.067997 0.553409
vn -0.862647 0.296980 0.409442
vn -0.978797 -0.065890 0.193947
vn -0.862647 0.296979 -0.409442
vn -0.978797 -0.065890 -0.193947
vn -0.978797 -0.065890 -0.193947
vn -0.862647 0.296979 -0.409442
vn -0.626501 0.658363 -0.417199
vn -0.830129 -0.067997 -0.553409
vn -0.419180 0.657107 -0.626497
vn -0.554501 -0.069645 -0.829264
vn -0.397851 0.697978 -0.595433
vn -0.330706 -0.803541 -0.494930
vn -0.116124 -0.803531 -0.583826
vn -0.139689 0.697988 -0.702353
vn -0.391352 0.709762 -0.585731
vn -0.554501 -0.069645 -0.829264
vn -0.137430 0.709764 -0.690903
vn -0.595433 0.697978 -0.397851
vn -0.494930 -0.803541 -0.330706
vn -0.585731 0.709762 -0.391352
vn -0.830129 -0.067997 -0.553409
vn -0.702353 0.697988 -0.139689
vn -0.583826 -0.803531 -0.116124
vn -0.494930 -0.803541 -0.330706
vn -0.595433 0.697978 -0.397851
vn -0.690903 0.709764 -0.137430
vn -0.585731 0.709762 -0.391352
vn -0.702353 0.697988 0.139689
vn -0.583826 -0.803531 0.116124
vn -0.583826 -0.803531 -0.116124
vn -0.702353 0.697988 -0.139689
vn -0.690903 0.709764 0.137430
vn -0.690903 0.709764 -0.137430
vn -0.595433 0.697979 0.397851
vn -0.494930 -0.803541 0.330706
vn -0.585731 0.709762 0.391352
vn -0.397851 0.697979 0.595433
vn -0.330706 -0.803540 0.494930
vn -0.494930 -0.803541 0.330706
vn -0.595433 0.697979 0.397851
vn -0.391352 0.709763 0.585731
vn -0.830129 -0.067997 0.553409
vn -0.585731 0.709762 0.391352
vn -0.139689 0.697988 0.702353
vn -0.116124 -0.803531 0.583826
vn -0.137430 0.709765 0.690903
vn 0.139689 0.697988 0.702353
vn 0.116124 -0.803531 0.583826
vn 0.137430 0.709765 0.690903
vn 0.397851 0.697979 0.595433
vn 0.330706 -0.803540 0.494930
vn 0.391352 0.709763 0.585731
vn 0.595433 0.697979 0.397851
vn 0.494930 -0.803541 0.330706
vn 0.585731 0.709762 0.391352
vn 0.830129 -0.067997 0.553409
vn 0.702353 0.697988 0.139689
vn 0.583826 -0.803531 0.116124
vn 0.494930 -0.803541 0.330706
vn 0.595433 0.697979 0.397851
vn 0.690903 0.709764 0.137430
vn 0.585731 0.709762 0.391352
vn 0.702353 0.697988 -0.139689
vn 0.583826 -0.803531 -0.116124
vn 0.690903 0.709764 -0.137430
vn 0.595433 0.697978 -0.397851
vn 0.494930 -0.803541 -0.330706
vn 0.585731 0.709762 -0.391352
vn 0.397851 0.697978 -0.595433
vn 0.330706 -0.803541 -0.494930
vn 0.494930 -0.803541 -0.330706
vn 0.595433 0.697978 -0.397851
vn 0.391352 0.709762 -0.585731
vn 0.830139 -0.067996 -0.553395
vn 0.585731 0.709762 -0.391352
vn 0.139689 0.697988 -0.702353
vn 0.116124 -0.803531 -0.583826
vn 0.137430 0.709764 -0.690903
vn -0.194593 0.069829 0.978395
vn -0.126289 0.762158 0.634954
vn -0.554565 0.069431 0.829239
vn -0.360005 0.762250 0.537933
vn -0.554565 0.069431 0.829239
vn -0.830188 0.067784 0.553347
vn -0.539974 0.761023 0.359545
vn -0.360005 0.762250 0.537933
vn -0.978801 0.065738 0.193978
vn -0.930864 0.307511 -0.197306
vn -0.978801 0.065738 -0.193978
vn -0.930864 0.307511 0.197306
vn -0.830188 0.067783 -0.553347
vn -0.539974 0.761023 -0.359545
vn -0.554565 0.069431 -0.829239
vn -0.360005 0.762249 -0.537933
vn -0.554565 0.069431 -0.829239
vn -0.194593 0.069829 -0.978395
vn -0.126289 0.762158 -0.634954
vn -0.360005 0.762249 -0.537933
vn 0.194593 0.069829 -0.978395
vn 0.126289 0.762158 -0.634954
vn 0.554565 0.069431 -0.829239
vn 0.360005 0.762249 -0.537933
vn 0.554565 0.069431 -0.829239
vn 0.830188 0.067783 -0.553347
vn 0.539974 0.761023 -0.359545
vn 0.360005 0.762249 -0.537933
vn 0.978801 0.065738 -0.193978
vn 0.930864 0.307511 0.197306
vn 0.978801 0.065738 0.193978
vn 0.930864 0.307511 -0.197306
vn 0.830188 0.067784 0.553347
vn 0.539974 0.761023 0.359545
vn 0.554565 0.069431 0.829239
vn 0.360005 0.762250 0.537933
vn 0.000000 1.000000 -0.000000
vn 0.000000 1.000000 -0.000000
vn 0.000000 1.000000 -0.000000
vn 0.000000 1.000000 -0.000000
vn 0.550533 0.134223 0.823953
vn 0.193308 0.134223 0.971914
vn 0.193369 0.131934 0.972215
vn 0.550717 0.131934 0.824199
vn 0.823953 0.134223 0.550533
vn 0.550533 0.134223 0.823953
vn 0.550717 0.131934 0.824199
vn 0.824199 0.131934 0.550717
vn 0.971914 0.134223 0.193308
vn 0.972215 0.131934 0.193369
vn 0.971914 0.134223 -0.193308
vn 0.972215 0.131934 -0.193369
vn 0.823953 0.134223 -0.550533
vn 0.824199 0.131934 -0.550717
vn 0.550533 0.134223 -0.823953
vn 0.550717 0.131934 -0.824199
vn 0.193308 0.134253 -0.971910
vn 0.550533 0.134223 -0.823953
vn 0.550717 0.131934 -0.824199
vn 0.193369 0.131934 -0.972215
vn -0.193308 0.134223 -0.971914
vn -0.193369 0.131934 -0.972215
vn -0.550533 0.134223 -0.823953
vn -0.550717 0.131934 -0.824199
vn -0.823953 0.134223 -0.550533
vn -0.550533 0.134223 -0.823953
vn -0.550717 0.131934 -0.824199
vn -0.824199 0.131934 -0.550717
vn -0.971910 0.134253 -0.193308
vn -0.972215 0.131934 -0.193369
vn -0.971914 0.134223 0.193308
vn -0.972215 0.131934 0.193369
vn -0.823953 0.134223 0.550533
vn -0.824199 0.131934 0.550717
vn -0.550533 0.134223 0.823953
vn -0.550717 0.131934 0.824199
vn -0.193308 0.134223 0.971914
vn -0.550533 0.134223 0.823953
vn -0.550717 0.131934 0.824199
vn -0.193369 0.131934 0.972215
vn -0.419180 0.657107 -0.626497
vn -0.147043 0.657085 -0.739336
vn 0.126289 0.762158 0.634954
vn -0.126289 0.762158 0.634954
vn 0.147043 0.657085 -0.739336
vn -0.360005 0.762250 0.537933
vn 0.419180 0.657107 -0.626497
vn -0.539974 0.761023 0.359545
vn 0.626501 0.658363 -0.417199
vn -0.930864 0.307511 -0.197306
vn 0.862647 0.296979 -0.409442
vn 0.862647 0.296980 0.409442
vn -0.930864 0.307511 0.197306
vn -0.539974 0.761023 -0.359545
vn 0.626501 0.658363 0.417199
vn -0.360005 0.762249 -0.537933
vn 0.419180 0.657107 0.626497
vn -0.126289 0.762158 -0.634954
vn 0.147043 0.657086 0.739335
vn 0.126289 0.762158 -0.634954
vn -0.147043 0.657086 0.739335
vn 0.360005 0.762249 -0.537933
vn -0.419180 0.657107 0.626497
vn 0.539974 0.761023 -0.359545
vn -0.626501 0.658363 0.417199
vn 0.930864 0.307511 0.197306
vn -0.862647 0.296980 0.409442
vn 0.611235 0.190195 -0.768256
vn -0.748977 -0.210492 -0.628273
vn -0.745585 -0.102484 -0.658483
vn 0.506493 0.313979 -0.803046
vn -0.862647 0.296979 -0.409442
vn 0.930864 0.307511 -0.197306
vn 0.539974 0.761023 0.359545
vn -0.626501 0.658363 -0.417199
vn 0.360005 0.762250 0.537933
vn -0.419180 0.657107 -0.626497
vn -0.748977 -0.210492 -0.628273
vn -0.748977 -0.210492 0.628273
vn -0.745585 -0.102484 0.658483
vn -0.745585 -0.102484 -0.658483
vn 0.748977 -0.210492 0.628273
vn 0.748963 -0.210488 -0.628291
vn 0.745585 -0.102484 -0.658483
vn 0.745585 -0.102484 0.658483
vn -0.493400 0.853066 0.169807
vn 0.785923 0.602077 0.140814
vn 0.785923 0.602077 -0.140814
vn -0.493400 0.853066 -0.169808
vn -0.611235 0.190195 -0.768256
vn -0.611235 0.190195 0.768256
vn -0.506493 0.313979 0.803046
vn -0.506493 0.313979 -0.803046
vn 0.493400 0.853066 -0.169808
vn -0.785923 0.602077 -0.140814
vn -0.785923 0.602077 0.140814
vn 0.493400 0.853066 0.169807
vn -0.611235 0.190195 0.768256
vn 0.748977 -0.210492 0.628273
vn 0.745585 -0.102484 0.658483
vn -0.506493 0.313979 0.803046
vn 0.862647 0.296979 -0.409442
vn -0.930864 0.307511 -0.197306
vn -0.760138 -0.109655 -0.640442
vn 0.640015 0.102147 -0.761542
vn 0.640015 0.102147 -0.761542
vn 0.640015 0.102147 0.761542
vn 0.611235 0.190195 -0.768256
vn 0.611235 0.190195 0.768256
vn -0.760138 -0.109655 0.640442
vn -0.760138 -0.109655 -0.640442
vn -0.640015 0.102147 0.761542
vn -0.640015 0.102147 -0.761542
vn -0.862647 0.296980 0.409442
vn 0.930864 0.307511 0.197306
vn 0.760138 -0.109655 0.640442
vn -0.640015 0.102147 0.761542
vn 0.760138 -0.109655 -0.640442
vn 0.760138 -0.109655 0.640442
vn -0.764007 0.375167 -0.524923
vn 0.419733 0.656807 -0.626441
vn 0.419733 0.656807 -0.626441
vn -0.764007 0.375167 -0.524923
vn -0.763994 0.375176 0.524935
vn 0.419733 0.656808 0.626441
vn 0.419733 0.656808 0.626441
vn -0.763994 0.375176 0.524935
vn -0.745585 -0.102484 0.658483
vn 0.506493 0.313979 0.803046
vn 0.764007 0.375167 0.524923
vn -0.419733 0.656808 0.626441
vn -0.419733 0.656808 0.626441
vn 0.764007 0.375167 0.524923
vn 0.763994 0.375176 -0.524935
vn -0.419733 0.656807 -0.626441
vn 0.506493 0.313979 -0.803046
vn 0.506493 0.313979 0.803046
vn -0.748977 -0.210492 0.628273
vn 0.611235 0.190195 0.768256
vn 0.748963 -0.210488 -0.628291
vn -0.611235 0.190195 -0.768256
vn -0.506493 0.313979 -0.803046
vn 0.745585 -0.102484 -0.658483
vn -0.930864 0.307511 0.197306
vn 0.862647 0.296980 0.409442
vn 0.640015 0.102147 0.761542
vn -0.760138 -0.109655 0.640442
vn 0.930864 0.307511 -0.197306
vn -0.862647 0.296979 -0.409442
vn -0.640015 0.102147 -0.761542
vn 0.760138 -0.109655 -0.640442
vn -0.419733 0.656807 -0.626441
vn 0.763994 0.375176 -0.524935
vn 0.702353 0.697988 0.139689
vn 0.595433 0.697979 0.397851
vn 0.664421 0.601214 0.443944
vn 0.783741 0.601204 0.155894
vn 0.702353 0.697988 -0.139689
vn 0.783741 0.601204 -0.155894
vn 0.595433 0.697978 -0.397851
vn 0.664421 0.601214 -0.443944
vn 0.397851 0.697978 -0.595433
vn 0.443935 0.601202 -0.664438
vn -0.397851 0.697978 -0.595433
vn -0.139689 0.697988 -0.702353
vn -0.155894 0.601204 -0.783742
vn -0.443944 0.601214 -0.664421
vn 0.139689 0.697988 -0.702353
vn 0.155894 0.601204 -0.783742
vn -0.595433 0.697978 -0.397851
vn -0.664438 0.601202 -0.443935
vn -0.702353 0.697988 -0.139689
vn -0.783741 0.601204 -0.155894
vn 0.136514 0.714311 0.686385
vn -0.136514 0.714311 0.686385
vn -0.388791 0.714315 0.581890
vn -0.388791 0.714315 0.581890
vn -0.581890 0.714315 0.388791
vn -0.686385 0.714311 0.136514
vn -0.686385 0.714310 -0.136514
vn -0.581890 0.714315 -0.388791
vn -0.388791 0.714315 -0.581890
vn -0.388791 0.714315 -0.581890
vn -0.136514 0.714310 -0.686385
vn 0.136514 0.714310 -0.686385
vn 0.388791 0.714315 -0.581890
vn 0.388791 0.714315 -0.581890
vn 0.581890 0.714315 -0.388791
vn 0.686385 0.714310 -0.136514
vn 0.686385 0.714311 0.136514
vn 0.581890 0.714315 0.388791
vn 0.388791 0.714315 0.581890
vn 0.388791 0.714315 0.581890
vn -0.194895 -0.045138 -0.979785
vn -0.155894 0.601204 -0.783742
vn 0.155894 0.601204 -0.783742
vn 0.194895 -0.045168 -0.979784
vn 0.443935 0.601202 -0.664438
vn 0.555001 -0.045139 -0.830624
vn 0.664421 0.601214 -0.443944
vn 0.830624 -0.045139 -0.555001
vn 0.830624 -0.045139 -0.555001
vn 0.664421 0.601214 -0.443944
vn 0.783741 0.601204 -0.155894
vn 0.979784 -0.045168 -0.194895
vn 0.783741 0.601204 0.155894
vn 0.979784 -0.045168 0.194895
vn 0.664421 0.601214 0.443944
vn 0.830624 -0.045139 0.555001
vn 0.830624 -0.045139 0.555001
vn 0.664421 0.601214 0.443944
vn 0.443935 0.601202 0.664438
vn 0.555001 -0.045139 0.830624
vn 0.155894 0.601204 0.783741
vn 0.194895 -0.045168 0.979784
vn -0.155894 0.601204 0.783741
vn -0.194895 -0.045168 0.979784
vn -0.443936 0.601234 0.664409
vn -0.554987 -0.045137 0.830634
vn -0.664409 0.601234 0.443936
vn -0.830634 -0.045137 0.554987
vn -0.830634 -0.045137 0.554987
vn -0.664409 0.601234 0.443936
vn -0.783741 0.601204 0.155894
vn -0.979784 -0.045168 0.194895
vn -0.783741 0.601204 -0.155894
vn -0.979784 -0.045168 -0.194895
vn -0.979784 -0.045168 -0.194895
vn -0.783741 0.601204 -0.155894
vn -0.664438 0.601202 -0.443935
vn -0.830624 -0.045139 -0.555001
vn -0.830624 -0.045139 -0.555001
vn -0.664438 0.601202 -0.443935
vn -0.443944 0.601214 -0.664421
vn -0.555001 -0.045139 -0.830624
vn 0.397851 0.697979 0.595433
vn 0.443935 0.601202 0.664438
vn 0.000000 -1.000000 0.000000
vn 0.000000 -1.000000 0.000000
vn 0.000000 -1.000000 0.000000
vn 0.000000 -1.000000 0.000000
vn 0.139689 0.697988 0.702353
vn 0.155894 0.601204 0.783741
vn -0.139689 0.697988 0.702353
vn -0.155894 0.601204 0.783741
vn -0.397851 0.697979 0.595433
vn -0.443936 0.601234 0.664409
vn -0.595433 0.697979 0.397851
vn -0.664409 0.601234 0.443936
vn -0.702353 0.697988 0.139689
vn -0.783741 0.601204 0.155894
vn -0.690903 0.709764 0.137430
vn -0.690903 0.709764 -0.137430
vn -0.773345 0.615044 -0.153815
vn -0.773345 0.615044 0.153814
vn 0.116124 -0.803531 0.583826
vn 0.330706 -0.803540 0.494930
vn 0.388882 -0.714192 0.581980
vn 0.136544 -0.714188 0.686507
vn -0.585731 0.709762 0.391352
vn -0.655613 0.615053 0.438042
vn -0.330706 -0.803541 -0.494930
vn -0.494930 -0.803541 -0.330706
vn -0.581968 -0.714207 -0.388873
vn -0.388874 -0.714207 -0.581967
vn -0.391352 0.709763 0.585731
vn -0.438067 0.615045 0.655604
vn 0.330706 -0.803541 -0.494930
vn 0.116124 -0.803531 -0.583826
vn 0.136544 -0.714188 -0.686506
vn 0.388882 -0.714192 -0.581980
vn -0.116124 -0.803531 0.583826
vn -0.136541 -0.714203 0.686492
vn -0.137430 0.709765 0.690903
vn -0.153814 0.615044 0.773345
vn -0.116124 -0.803531 -0.583826
vn -0.136541 -0.714203 -0.686492
vn 0.137430 0.709765 0.690903
vn 0.153814 0.615044 0.773345
vn 0.494930 -0.803541 -0.330706
vn 0.581980 -0.714192 -0.388882
vn -0.330706 -0.803540 0.494930
vn -0.388874 -0.714207 0.581968
vn 0.391352 0.709763 0.585731
vn 0.438067 0.615045 0.655604
vn 0.583826 -0.803531 -0.116124
vn 0.686507 -0.714188 -0.136544
vn 0.585731 0.709762 0.391352
vn 0.655613 0.615053 0.438042
vn -0.494930 -0.803541 0.330706
vn -0.581968 -0.714207 0.388874
vn -0.136541 -0.714203 -0.686492
vn -0.153814 0.615044 -0.773345
vn 0.153818 0.615058 -0.773333
vn 0.136544 -0.714188 -0.686506
vn 0.438067 0.615045 -0.655605
vn 0.388882 -0.714192 -0.581980
vn 0.655604 0.615045 -0.438067
vn 0.581980 -0.714192 -0.388882
vn 0.581980 -0.714192 -0.388882
vn 0.655604 0.615045 -0.438067
vn 0.773345 0.615044 -0.153815
vn 0.686507 -0.714188 -0.136544
vn 0.773345 0.615044 0.153814
vn 0.686507 -0.714188 0.136545
vn 0.655613 0.615053 0.438042
vn 0.581980 -0.714192 0.388882
vn 0.581980 -0.714192 0.388882
vn 0.655613 0.615053 0.438042
vn 0.438067 0.615045 0.655604
vn 0.388882 -0.714192 0.581980
vn 0.153814 0.615044 0.773345
vn 0.136544 -0.714188 0.686507
vn -0.153814 0.615044 0.773345
vn -0.136541 -0.714203 0.686492
vn -0.438067 0.615045 0.655604
vn -0.388874 -0.714207 0.581968
vn -0.655613 0.615053 0.438042
vn -0.581968 -0.714207 0.388874
vn -0.581968 -0.714207 0.388874
vn -0.655613 0.615053 0.438042
vn -0.773345 0.615044 0.153814
vn -0.686507 -0.714188 0.136545
vn -0.773345 0.615044 -0.153815
vn -0.686507 -0.714188 -0.136544
vn -0.686507 -0.714188 -0.136544
vn -0.773345 0.615044 -0.153815
vn -0.655604 0.615045 -0.438067
vn -0.581968 -0.714207 -0.388873
vn -0.581968 -0.714207 -0.388873
vn -0.655604 0.615045 -0.438067
vn -0.438067 0.615045 -0.655605
vn -0.388874 -0.714207 -0.581967
vn -0.583826 -0.803531 -0.116124
vn -0.686507 -0.714188 -0.136544
vn -0.585731 0.709762 -0.391352
vn -0.655604 0.615045 -0.438067
vn 0.494930 -0.803541 0.330706
vn 0.581980 -0.714192 0.388882
vn -0.137430 0.709764 -0.690903
vn 0.137430 0.709764 -0.690903
vn 0.153818 0.615058 -0.773333
vn -0.153814 0.615044 -0.773345
vn -0.391352 0.709762 -0.585731
vn -0.438067 0.615045 -0.655605
vn 0.391352 0.709762 -0.585731
vn 0.438067 0.615045 -0.655605
vn -0.583826 -0.803531 0.116124
vn -0.686507 -0.714188 0.136545
vn 0.583826 -0.803531 0.116124
vn 0.686507 -0.714188 0.136545
vn 0.585731 0.709762 -0.391352
vn 0.655604 0.615045 -0.438067
vn 0.690903 0.709764 -0.137430
vn 0.773345 0.615044 -0.153815
vn 0.690903 0.709764 0.137430
vn 0.773345 0.615044 0.153814
vn 0.000000 -1.000000 0.000000
vn 0.000000 -1.000000 0.000000
vn -0.194895 -0.045138 -0.979785
vn 0.194895 -0.045168 -0.979784
vn 0.000000 -1.000000 0.000000
vn 0.555001 -0.045139 -0.830624
vn 0.000000 -1.000000 0.000000
vn 0.830624 -0.045139 -0.555001
vn 0.000000 -1.000000 0.000000
vn 0.979784 -0.045168 -0.194895
vn 0.000000 -1.000000 0.000000
vn 0.979784 -0.045168 0.194895
vn 0.000000 -1.000000 0.000000
vn 0.830624 -0.045139 0.555001
vn 0.000000 -1.000000 0.000000
vn 0.555001 -0.045139 0.830624
vn 0.000000 -1.000000 0.000000
vn 0.194895 -0.045168 0.979784
vn 0.000000 -1.000000 0.000000
vn -0.194895 -0.045168 0.979784
vn 0.000000 -1.000000 0.000000
vn -0.554987 -0.045137 0.830634
vn 0.000000 -1.000000 0.000000
vn -0.830634 -0.045137 0.554987
vn 0.000000 -1.000000 0.000000
vn -0.979784 -0.045168 0.194895
vn 0.000000 -1.000000 0.000000
vn -0.979784 -0.045168 -0.194895
vn 0.000000 -1.000000 0.000000
vn -0.830624 -0.045139 -0.555001
vn 0.000000 -1.000000 0.000000
vn -0.555001 -0.045139 -0.830624
vn 0.419733 0.656808 0.626441
vn 0.419733 0.656807 -0.626441
vn 0.493400 0.853066 -0.169808
vn 0.493400 0.853066 0.169807
vn -0.764007 0.375167 -0.524923
vn -0.763994 0.375176 0.524935
vn -0.785923 0.602077 0.140814
vn -0.785923 0.602077 -0.140814
vn 0.764007 0.375167 0.524923
vn 0.763994 0.375176 -0.524935
vn 0.785923 0.602077 -0.140814
vn 0.785923 0.602077 0.140814
vn -0.419733 0.656807 -0.626441
vn -0.419733 0.656808 0.626441
vn -0.493400 0.853066 0.169807
vn -0.493400 0.853066 -0.169808
vn 0.136514 0.714311 0.686385
vn 0.388791 0.714315 0.581890
vn 0.000000 1.000000 -0.000000
vn 0.581890 0.714315 0.388791
vn 0.000000 1.000000 -0.000000
vn 0.686385 0.714311 0.136514
vn 0.000000 1.000000 -0.000000
vn 0.686385 0.714310 -0.136514
vn 0.000000 1.000000 -0.000000
vn 0.581890 0.714315 -0.388791
vn 0.000000 1.000000 -0.000000
vn 0.388791 0.714315 -0.581890
vn 0.000000 1.000000 -0.000000
vn 0.136514 0.714310 -0.686385
vn 0.000000 1.000000 -0.000000
vn -0.136514 0.714310 -0.686385
vn 0.000000 1.000000 -0.000000
vn -0.388791 0.714315 -0.581890
vn 0.000000 1.000000 -0.000000
vn -0.581890 0.714315 -0.388791
vn 0.000000 1.000000 -0.000000
vn -0.686385 0.714310 -0.136514
vn 0.000000 1.000000 -0.000000
vn -0.686385 0.714311 0.136514
vn 0.000000 1.000000 -0.000000
vn -0.581890 0.714315 0.388791
vn -0.388791 0.714315 0.581890
vn -0.136514 0.714311 0.686385
vn 0.000000 -1.000000 0.000000
vn 0.000000 -1.000000 0.000000
vn 0.000000 -1.000000 0.000000
vn 0.000000 -1.000000 0.000000
vn 0.000000 -1.000000 0.000000
vn 0.000000 -1.000000 0.000000
vn 0.000000 -1.000000 0.000000
vn 0.000000 -1.000000 0.000000
vn 0.000000 -1.000000 0.000000
vn 0.000000 -1.000000 0.000000
vn 0.000000 -1.000000 0.000000
vn 0.000000 -1.000000 0.000000
vn -0.657659 -0.056003 0.751231
vn -0.456134 0.658474 0.598626
vn -0.456134 0.658474 -0.598627
vn -0.657659 -0.056003 -0.751231
vn -0.007263 -0.298107 -0.954505
vn 0.094427 0.665809 -0.740123
vn 0.456134 0.658474 -0.598627
vn 0.657659 -0.056003 -0.751231
vn 0.657659 -0.056003 -0.751231
vn 0.456134 0.658474 -0.598627
vn 0.456134 0.658474 0.598626
vn 0.657659 -0.056003 0.751231
vn 0.007263 -0.298107 0.954505
vn -0.094427 0.665809 0.740123
vn -0.456134 0.658474 0.598626
vn -0.657659 -0.056003 0.751231
vn -0.012940 -0.886403 -0.462734
vn 0.735575 -0.564880 -0.373952
vn 0.735575 -0.564880 0.373952
vn -0.012940 -0.886403 0.462734
vn -0.094427 0.665809 -0.740123
vn -0.456134 0.658474 -0.598627
vn -0.456134 0.658474 0.598626
vn -0.094427 0.665809 0.740123
vn 0.456134 0.658474 -0.598627
vn 0.094427 0.665809 -0.740123
vn 0.094427 0.665809 0.740123
vn 0.456134 0.658474 0.598626
vn 0.107030 -0.262554 -0.958963
vn -0.196604 0.679234 -0.707098
vn 0.000000 0.760326 -0.649542
vn 0.000000 -0.264569 -0.964367
vn -0.735575 -0.564880 -0.373952
vn 0.012940 -0.886403 -0.462734
vn 0.012940 -0.886403 0.462734
vn -0.735575 -0.564880 0.373952
vn -0.196604 0.679234 -0.707098
vn -0.196604 0.679234 0.707098
vn 0.196604 0.679234 -0.707098
vn 0.000000 0.760326 -0.649542
vn 0.000000 0.760326 0.649541
vn 0.196604 0.679234 0.707098
vn 0.657659 -0.056003 0.751231
vn 0.456134 0.658474 0.598626
vn 0.094427 0.665809 0.740123
vn -0.007263 -0.298107 0.954505
vn -0.290327 -0.854960 -0.429830
vn -0.290327 -0.854960 0.429830
vn 0.400712 -0.793306 -0.458362
vn 0.000000 -0.875385 -0.483426
vn 0.000000 -0.875385 0.483426
vn 0.400712 -0.793306 0.458362
vn -0.657659 -0.056003 -0.751231
vn -0.456134 0.658474 -0.598627
vn -0.094427 0.665809 -0.740123
vn 0.007263 -0.298107 -0.954505
vn 0.159158 -0.330248 0.930379
vn -0.196604 0.679234 0.707098
vn -0.107030 -0.262553 0.958963
vn 0.196604 0.679234 0.707098
vn 0.000000 0.760326 0.649541
vn 0.000000 -0.264568 0.964367
vn -0.159158 -0.330249 -0.930379
vn 0.196604 0.679234 -0.707098
vn -0.107030 -0.262554 -0.958963
vn 0.196604 0.679234 -0.707098
vn 0.196604 0.679234 0.707098
vn -0.159158 -0.330248 0.930379
vn -0.400712 -0.793306 -0.458362
vn -0.400712 -0.793306 0.458362
vn 0.196604 0.679234 -0.707098
vn 0.196604 0.679234 0.707098
vn 0.107030 -0.262553 0.958963
vn -0.196604 0.679234 0.707098
vn 0.290327 -0.854960 -0.429830
vn 0.290327 -0.854960 0.429830
vn -0.196604 0.679234 -0.707098
vn -0.196604 0.679234 0.707098
vn -0.196604 0.679234 -0.707098
vn 0.159158 -0.330249 -0.930379
vn -0.290327 -0.854960 0.429830
vn -0.400712 -0.793306 0.458362
vn 0.000000 -0.875385 -0.483426
vn -0.400712 -0.793306 -0.458362
vn 0.290327 -0.854960 -0.429830
vn 0.400712 -0.793306 -0.458362
vn 0.000000 -0.875385 0.483426
vn 0.400712 -0.793306 0.458362
vn 0.012940 -0.886403 -0.462734
vn 0.290327 -0.854960 0.429830
vn -0.012940 -0.886403 0.462734
vn -0.290327 -0.854960 -0.429830
vn -0.012940 -0.886403 -0.462734
vn 0.012940 -0.886403 0.462734
vn -0.735575 -0.564880 -0.373952
vn 0.735575 -0.564880 0.373952
vn -0.735575 -0.564880 0.373952
vn 0.735575 -0.564880 -0.373952
vn 0.735575 -0.564880 0.373952
vn 0.735575 -0.564880 -0.373952
vn -0.735575 -0.564880 0.373952
vn -0.735575 -0.564880 -0.373952
g NiHonBucket_Bake
usemtl NiHonBucket_Bake
f 1/1/1 2/2/2 3/3/3
f 1/1/1 3/3/3 4/4/4
f 5/5/5 6/6/6 7/7/7
f 5/5/5 7/7/7 8/8/8
f 8/8/8 7/7/7 9/9/9
f 8/8/8 9/9/9 10/10/10
f 11/11/11 12/12/12 13/13/13
f 11/11/11 13/13/13 14/14/14
f 14/14/14 13/13/13 15/15/15
f 14/14/14 15/15/15 16/16/16
f 16/16/16 15/15/15 17/17/17
f 16/16/16 17/17/17 18/18/18
f 18/18/18 17/17/17 19/19/19
f 18/18/18 19/19/19 20/20/20
f 20/20/20 19/19/19 21/21/21
f 20/20/20 21/21/21 22/22/22
f 23/23/23 24/24/24 25/25/25
f 23/23/23 25/25/25 26/26/26
f 26/26/26 25/25/25 27/27/27
f 26/26/26 27/27/27 28/28/28
f 28/28/28 27/27/27 29/29/29
f 28/28/28 29/29/29 30/30/30
f 31/31/31 32/32/32 33/33/33
f 31/31/31 33/33/33 34/34/34
f 34/34/34 33/33/33 35/35/35
f 34/34/34 35/35/35 36/36/36
f 36/36/36 35/35/35 37/37/37
f 36/36/36 37/37/37 38/38/38
f 39/39/39 40/40/40 41/41/41
f 39/39/39 41/41/41 42/42/42
f 42/42/42 41/41/41 43/43/43
f 42/42/42 43/43/43 44/44/44
f 45/45/45 46/46/46 47/47/47
f 45/45/45 47/47/47 48/48/48
f 49/49/49 50/50/50 5/5/5
f 49/49/49 5/5/5 51/51/51
f 52/52/52 53/53/53 46/46/46
f 52/52/52 46/46/46 45/45/45
f 54/54/54 55/55/55 50/50/50
f 54/54/54 50/50/50 49/49/49
f 56/56/56 57/57/57 58/58/58
f 56/56/56 58/58/58 59/59/59
f 60/60/60 39/39/39 42/42/42
f 60/60/60 42/42/42 61/61/61
f 62/62/62 63/63/63 64/64/64
f 62/62/62 64/64/64 65/65/65
f 66/66/66 36/36/36 38/38/38
f 66/66/66 38/38/38 67/67/67
f 68/68/68 69/69/69 63/63/63
f 68/68/68 63/63/63 62/62/62
f 70/70/70 34/34/34 36/36/36
f 70/70/70 36/36/36 66/66/66
f 71/71/71 72/72/72 73/73/73
f 71/71/71 73/73/73 74/74/74
f 75/75/75 30/30/30 76/76/76
f 75/75/75 76/76/76 77/77/77
f 78/78/78 79/79/79 72/72/72
f 78/78/78 72/72/72 71/71/71
f 80/80/80 28/28/28 30/30/30
f 80/80/80 30/30/30 75/75/75
f 81/81/81 82/82/82 79/79/79
f 81/81/81 79/79/79 78/78/78
f 83/83/83 26/26/26 28/28/28
f 83/83/83 28/28/28 80/80/80
f 84/84/84 85/85/85 82/82/82
f 84/84/84 82/82/82 81/81/81
f 86/86/86 23/23/23 26/26/26
f 86/86/86 26/26/26 83/83/83
f 87/87/87 88/88/88 85/85/85
f 87/87/87 85/85/85 84/84/84
f 89/89/89 90/90/90 23/23/23
f 89/89/89 23/23/23 86/86/86
f 91/91/91 92/92/92 93/93/93
f 91/91/91 93/93/93 94/94/94
f 95/95/95 18/18/18 20/20/20
f 95/95/95 20/20/20 96/96/96
f 97/97/97 98/98/98 92/92/92
f 97/97/97 92/92/92 91/91/91
f 99/99/99 16/16/16 18/18/18
f 99/99/99 18/18/18 95/95/95
f 100/100/100 101/101/101 98/98/98
f 100/100/100 98/98/98 97/97/97
f 102/102/102 14/14/14 16/16/16
f 102/102/102 16/16/16 99/99/99
f 103/103/103 104/104/104 105/105/105
f 103/103/103 105/105/105 106/106/106
f 107/107/107 10/10/10 108/108/108
f 107/107/107 108/108/108 109/109/109
f 110/110/110 111/111/111 104/104/104
f 110/110/110 104/104/104 103/103/103
f 112/112/112 8/8/8 10/10/10
f 112/112/112 10/10/10 107/107/107
f 48/48/48 47/47/47 111/111/111
f 48/48/48 111/111/111 110/110/110
f 51/51/51 5/5/5 8/8/8
f 51/51/51 8/8/8 112/112/112
f 2/2/2 113/113/113 114/114/114
f 2/2/2 114/114/114 3/3/3
f 113/113/113 115/115/115 116/116/116
f 113/113/113 116/116/116 114/114/114
f 117/117/117 118/118/118 119/119/119
f 117/117/117 119/119/119 120/120/120
f 118/118/118 121/121/121 122/122/122
f 118/118/118 122/122/122 119/119/119
f 121/121/121 123/123/123 124/124/124
f 121/121/121 124/124/124 122/122/122
f 123/123/123 125/125/125 126/126/126
f 123/123/123 126/126/126 124/124/124
f 125/125/125 127/127/127 128/128/128
f 125/125/125 128/128/128 126/126/126
f 129/129/129 130/130/130 131/131/131
f 129/129/129 131/131/131 132/132/132
f 130/130/130 133/133/133 134/134/134
f 130/130/130 134/134/134 131/131/131
f 133/133/133 135/135/135 136/136/136
f 133/133/133 136/136/136 134/134/134
f 137/137/137 138/138/138 139/139/139
f 137/137/137 139/139/139 140/140/140
f 138/138/138 141/141/141 142/142/142
f 138/138/138 142/142/142 139/139/139
f 141/141/141 143/143/143 144/144/144
f 141/141/141 144/144/144 142/142/142
f 143/143/143 145/145/145 146/146/146
f 143/143/143 146/146/146 144/144/144
f 145/145/145 147/147/147 148/148/148
f 145/145/145 148/148/148 146/146/146
f 149/149/149 150/150/150 151/151/151
f 149/149/149 151/151/151 152/152/152
f 153/153/153 154/154/154 155/155/155
f 153/153/153 155/155/155 156/156/156
f 156/156/156 155/155/155 2/2/2
f 156/156/156 2/2/2 1/1/1
f 157/157/157 158/158/158 159/159/159
f 157/157/157 159/159/159 160/160/160
f 160/160/160 159/159/159 147/147/147
f 160/160/160 147/147/147 145/145/145
f 161/161/161 157/157/157 160/160/160
f 161/161/161 160/160/160 162/162/162
f 162/162/162 160/160/160 145/145/145
f 162/162/162 145/145/145 143/143/143
f 163/163/163 161/161/161 162/162/162
f 163/163/163 162/162/162 164/164/164
f 164/164/164 162/162/162 143/143/143
f 164/164/164 143/143/143 141/141/141
f 165/165/165 163/163/163 164/164/164
f 165/165/165 164/164/164 166/166/166
f 166/166/166 164/164/164 141/141/141
f 166/166/166 141/141/141 138/138/138
f 167/167/167 165/165/165 166/166/166
f 167/167/167 166/166/166 168/168/168
f 168/168/168 166/166/166 138/138/138
f 168/168/168 138/138/138 137/137/137
f 169/169/169 170/170/170 171/171/171
f 169/169/169 171/171/171 172/172/172
f 172/172/172 171/171/171 135/135/135
f 172/172/172 135/135/135 133/133/133
f 173/173/173 169/169/169 172/172/172
f 173/173/173 172/172/172 174/174/174
f 174/174/174 172/172/172 133/133/133
f 174/174/174 133/133/133 130/130/130
f 175/175/175 173/173/173 174/174/174
f 175/175/175 174/174/174 176/176/176
f 176/176/176 174/174/174 130/130/130
f 176/176/176 130/130/130 129/129/129
f 177/177/177 178/178/178 179/179/179
f 177/177/177 179/179/179 180/180/180
f 180/180/180 179/179/179 127/127/127
f 180/180/180 127/127/127 125/125/125
f 181/181/181 177/177/177 180/180/180
f 181/181/181 180/180/180 182/182/182
f 182/182/182 180/180/180 125/125/125
f 182/182/182 125/125/125 123/123/123
f 183/183/183 181/181/181 182/182/182
f 183/183/183 182/182/182 184/184/184
f 184/184/184 182/182/182 123/123/123
f 184/184/184 123/123/123 121/121/121
f 185/185/185 183/183/183 184/184/184
f 185/185/185 184/184/184 186/186/186
f 186/186/186 184/184/184 121/121/121
f 186/186/186 121/121/121 118/118/118
f 187/187/187 185/185/185 186/186/186
f 187/187/187 186/186/186 188/188/188
f 188/188/188 186/186/186 118/118/118
f 188/188/188 118/118/118 117/117/117
f 189/189/189 190/190/190 191/191/191
f 189/189/189 191/191/191 192/192/192
f 192/192/192 191/191/191 115/115/115
f 192/192/192 115/115/115 113/113/113
f 154/154/154 189/189/189 192/192/192
f 154/154/154 192/192/192 155/155/155
f 155/155/155 192/192/192 113/113/113
f 155/155/155 113/113/113 2/2/2
f 50/50/50 193/193/193 6/6/6
f 50/50/50 6/6/6 5/5/5
f 194/194/194 195/195/195 196/196/196
f 194/194/194 196/196/196 197/197/197
f 197/197/197 196/196/196 198/198/198
f 197/197/197 198/198/198 199/199/199
f 199/199/199 198/198/198 200/200/200
f 199/199/199 200/200/200 201/201/201
f 201/201/201 200/200/200 202/202/202
f 201/201/201 202/202/202 203/203/203
f 204/204/204 205/205/205 206/206/206
f 204/204/204 206/206/206 207/207/207
f 207/207/207 206/206/206 208/208/208
f 207/207/207 208/208/208 209/209/209
f 209/209/209 208/208/208 210/210/210
f 209/209/209 210/210/210 211/211/211
f 211/211/211 210/210/210 212/212/212
f 211/211/211 212/212/212 213/213/213
f 213/213/213 212/212/212 214/214/214
f 213/213/213 214/214/214 215/215/215
f 215/215/215 214/214/214 216/216/216
f 215/215/215 216/216/216 217/217/217
f 217/217/217 216/216/216 218/218/218
f 217/217/217 218/218/218 219/219/219
f 220/220/220 221/221/221 222/222/222
f 220/220/220 222/222/222 223/223/223
f 224/224/224 225/225/225 226/226/226
f 224/224/224 226/226/226 227/227/227
f 227/227/227 226/226/226 228/228/228
f 227/227/227 228/228/228 229/229/229
f 230/230/230 231/231/231 232/232/232
f 230/230/230 232/232/232 233/233/233
f 229/229/229 228/228/228 195/195/195
f 229/229/229 195/195/195 194/194/194
f 234/234/234 235/235/235 236/236/236
f 234/234/234 236/236/236 237/237/237
f 238/238/238 239/239/239 240/240/240
f 238/238/238 240/240/240 241/241/241
f 242/242/242 243/243/243 244/244/244
f 242/242/242 244/244/244 245/245/245
f 246/246/246 247/247/247 248/248/248
f 246/246/246 248/248/248 249/249/249
f 250/250/250 251/251/251 252/252/252
f 250/250/250 252/252/252 253/253/253
f 254/254/254 255/255/255 256/256/256
f 254/254/254 256/256/256 257/257/257
f 17/17/17 15/15/15 258/258/258
f 17/17/17 258/258/258 259/259/259
f 259/259/259 258/258/258 260/260/260
f 259/259/259 260/260/260 261/261/261
f 122/122/122 124/124/124 262/262/262
f 122/122/122 262/262/262 263/263/263
f 263/263/263 262/262/262 231/231/231
f 263/263/263 231/231/231 230/230/230
f 37/37/37 35/35/35 264/264/264
f 37/37/37 264/264/264 265/265/265
f 265/265/265 264/264/264 243/243/243
f 265/265/265 243/243/243 242/242/242
f 257/257/257 256/256/256 221/221/221
f 257/257/257 221/221/221 220/220/220
f 266/266/266 267/267/267 268/268/268
f 266/266/266 268/268/268 269/269/269
f 142/142/142 144/144/144 270/270/270
f 142/142/142 270/270/270 271/271/271
f 271/271/271 270/270/270 235/235/235
f 271/271/271 235/235/235 234/234/234
f 269/269/269 268/268/268 251/251/251
f 269/269/269 251/251/251 250/250/250
f 223/223/223 222/222/222 272/272/272
f 223/223/223 272/272/272 273/273/273
f 274/274/274 275/275/275 247/247/247
f 274/274/274 247/247/247 246/246/246
f 249/249/249 248/248/248 276/276/276
f 249/249/249 276/276/276 277/277/277
f 278/278/278 279/279/279 280/280/280
f 278/278/278 280/280/280 281/281/281
f 253/253/253 252/252/252 282/282/282
f 253/253/253 282/282/282 283/283/283
f 284/284/284 285/285/285 239/239/239
f 284/284/284 239/239/239 238/238/238
f 241/241/241 240/240/240 286/286/286
f 241/241/241 286/286/286 287/287/287
f 261/261/261 260/260/260 288/288/288
f 261/261/261 288/288/288 289/289/289
f 290/290/290 291/291/291 281/281/281
f 290/290/290 281/281/281 280/280/280
f 292/292/292 293/293/293 294/294/294
f 292/292/292 294/294/294 295/295/295
f 296/296/296 297/297/297 298/298/298
f 296/296/296 298/298/298 299/299/299
f 299/299/299 298/298/298 291/291/291
f 299/299/299 291/291/291 290/290/290
f 300/300/300 301/301/301 302/302/302
f 300/300/300 302/302/302 303/303/303
f 303/303/303 302/302/302 293/293/293
f 303/303/303 293/293/293 292/292/292
f 304/304/304 305/305/305 295/295/295
f 304/304/304 295/295/295 294/294/294
f 306/306/306 307/307/307 308/308/308
f 306/306/306 308/308/308 309/309/309
f 310/310/310 306/306/306 309/309/309
f 310/310/310 309/309/309 311/311/311
f 312/312/312 310/310/310 311/311/311
f 312/312/312 311/311/311 313/313/313
f 314/314/314 312/312/312 313/313/313
f 314/314/314 313/313/313 315/315/315
f 316/316/316 317/317/317 318/318/318
f 316/316/316 318/318/318 319/319/319
f 320/320/320 314/314/314 315/315/315
f 320/320/320 315/315/315 321/321/321
f 322/322/322 316/316/316 319/319/319
f 322/322/322 319/319/319 323/323/323
f 317/317/317 320/320/320 321/321/321
f 317/317/317 321/321/321 318/318/318
f 324/324/324 322/322/322 323/323/323
f 324/324/324 323/323/323 325/325/325
f 326/326/326 327/327/327 189/189/189
f 326/326/326 189/189/189 154/154/154
f 327/327/327 328/328/328 190/190/190
f 327/327/327 190/190/190 189/189/189
f 329/329/329 330/330/330 185/185/185
f 329/329/329 185/185/185 187/187/187
f 330/330/330 331/331/331 183/183/183
f 330/330/330 183/183/183 185/185/185
f 331/331/331 332/332/332 181/181/181
f 331/331/331 181/181/181 183/183/183
f 332/332/332 333/333/333 177/177/177
f 332/332/332 177/177/177 181/181/181
f 333/333/333 334/334/334 178/178/178
f 333/333/333 178/178/178 177/177/177
f 335/335/335 336/336/336 173/173/173
f 335/335/335 173/173/173 175/175/175
f 336/336/336 337/337/337 169/169/169
f 336/336/336 169/169/169 173/173/173
f 337/337/337 338/338/338 170/170/170
f 337/337/337 170/170/170 169/169/169
f 339/339/339 340/340/340 165/165/165
f 339/339/339 165/165/165 167/167/167
f 340/340/340 341/341/341 163/163/163
f 340/340/340 163/163/163 165/165/165
f 341/341/341 342/342/342 161/161/161
f 341/341/341 161/161/161 163/163/163
f 342/342/342 343/343/343 157/157/157
f 342/342/342 157/157/157 161/161/161
f 343/343/343 344/344/344 158/158/158
f 343/343/343 158/158/158 157/157/157
f 345/345/345 326/326/326 154/154/154
f 345/345/345 154/154/154 153/153/153
f 346/346/346 347/347/347 348/348/348
f 346/346/346 348/348/348 349/349/349
f 349/349/349 348/348/348 350/350/350
f 349/349/349 350/350/350 351/351/351
f 351/351/351 350/350/350 352/352/352
f 351/351/351 352/352/352 353/353/353
f 354/354/354 355/355/355 356/356/356
f 354/354/354 356/356/356 357/357/357
f 357/357/357 356/356/356 358/358/358
f 357/357/357 358/358/358 359/359/359
f 359/359/359 358/358/358 360/360/360
f 359/359/359 360/360/360 361/361/361
f 362/362/362 363/363/363 364/364/364
f 362/362/362 364/364/364 365/365/365
f 365/365/365 364/364/364 366/366/366
f 365/365/365 366/366/366 367/367/367
f 367/367/367 366/366/366 368/368/368
f 367/367/367 368/368/368 369/369/369
f 369/369/369 368/368/368 370/370/370
f 369/369/369 370/370/370 371/371/371
f 371/371/371 370/370/370 372/372/372
f 371/371/371 372/372/372 373/373/373
f 374/374/374 375/375/375 376/376/376
f 374/374/374 376/376/376 377/377/377
f 377/377/377 376/376/376 378/378/378
f 377/377/377 378/378/378 379/379/379
f 380/380/380 381/381/381 382/382/382
f 380/380/380 382/382/382 383/383/383
f 384/384/384 385/385/385 386/386/386
f 384/384/384 386/386/386 387/387/387
f 387/387/387 386/386/386 347/347/347
f 387/387/387 347/347/347 346/346/346
f 307/307/307 388/388/388 389/389/389
f 307/307/307 389/389/389 308/308/308
f 390/390/390 391/391/391 392/392/392
f 390/390/390 392/392/392 393/393/393
f 388/388/388 394/394/394 395/395/395
f 388/388/388 395/395/395 389/389/389
f 394/394/394 396/396/396 397/397/397
f 394/394/394 397/397/397 395/395/395
f 396/396/396 398/398/398 399/399/399
f 396/396/396 399/399/399 397/397/397
f 398/398/398 400/400/400 401/401/401
f 398/398/398 401/401/401 399/399/399
f 400/400/400 402/402/402 403/403/403
f 400/400/400 403/403/403 401/401/401
f 402/402/402 324/324/324 325/325/325
f 402/402/402 325/325/325 403/403/403
f 404/404/404 405/405/405 406/406/406
f 404/404/404 406/406/406 407/407/407
f 408/408/408 409/409/409 410/410/410
f 408/408/408 410/410/410 411/411/411
f 412/412/412 404/404/404 407/407/407
f 412/412/412 407/407/407 413/413/413
f 414/414/414 415/415/415 416/416/416
f 414/414/414 416/416/416 417/417/417
f 418/418/418 412/412/412 413/413/413
f 418/418/418 413/413/413 419/419/419
f 420/420/420 421/421/421 422/422/422
f 420/420/420 422/422/422 423/423/423
f 424/424/424 408/408/408 411/411/411
f 424/424/424 411/411/411 425/425/425
f 426/426/426 418/418/418 419/419/419
f 426/426/426 419/419/419 427/427/427
f 428/428/428 414/414/414 417/417/417
f 428/428/428 417/417/417 429/429/429
f 430/430/430 426/426/426 427/427/427
f 430/430/430 427/427/427 431/431/431
f 432/432/432 420/420/420 423/423/423
f 432/432/432 423/423/423 433/433/433
f 434/434/434 424/424/424 425/425/425
f 434/434/434 425/425/425 435/435/435
f 436/436/436 430/430/430 431/431/431
f 436/436/436 431/431/431 437/437/437
f 438/438/438 432/432/432 433/433/433
f 438/438/438 433/433/433 439/439/439
f 440/440/440 436/436/436 437/437/437
f 440/440/440 437/437/437 441/441/441
f 442/442/442 434/434/434 435/435/435
f 442/442/442 435/435/435 443/443/443
f 444/444/444 445/445/445 446/446/446
f 444/444/444 446/446/446 447/447/447
f 447/447/447 446/446/446 448/448/448
f 447/447/447 448/448/448 449/449/449
f 449/449/449 448/448/448 450/450/450
f 449/449/449 450/450/450 451/451/451
f 452/452/452 453/453/453 454/454/454
f 452/452/452 454/454/454 455/455/455
f 455/455/455 454/454/454 456/456/456
f 455/455/455 456/456/456 457/457/457
f 457/457/457 456/456/456 458/458/458
f 457/457/457 458/458/458 459/459/459
f 460/460/460 461/461/461 462/462/462
f 460/460/460 462/462/462 463/463/463
f 463/463/463 462/462/462 464/464/464
f 463/463/463 464/464/464 465/465/465
f 465/465/465 464/464/464 466/466/466
f 465/465/465 466/466/466 467/467/467
f 467/467/467 466/466/466 468/468/468
f 467/467/467 468/468/468 469/469/469
f 469/469/469 468/468/468 470/470/470
f 469/469/469 470/470/470 471/471/471
f 472/472/472 473/473/473 474/474/474
f 472/472/472 474/474/474 475/475/475
f 475/475/475 474/474/474 476/476/476
f 475/475/475 476/476/476 477/477/477
f 478/478/478 479/479/479 480/480/480
f 478/478/478 480/480/480 481/481/481
f 482/482/482 483/483/483 484/484/484
f 482/482/482 484/484/484 485/485/485
f 485/485/485 484/484/484 445/445/445
f 485/485/485 445/445/445 444/444/444
f 421/421/421 428/428/428 429/429/429
f 421/421/421 429/429/429 422/422/422
f 415/415/415 486/486/486 487/487/487
f 415/415/415 487/487/487 416/416/416
f 405/405/405 488/488/488 489/489/489
f 405/405/405 489/489/489 406/406/406
f 409/409/409 490/490/490 491/491/491
f 409/409/409 491/491/491 410/410/410
f 492/492/492 493/493/493 494/494/494
f 492/492/492 494/494/494 495/495/495
f 488/488/488 496/496/496 497/497/497
f 488/488/488 497/497/497 489/489/489
f 493/493/493 498/498/498 499/499/499
f 493/493/493 499/499/499 494/494/494
f 486/486/486 500/500/500 501/501/501
f 486/486/486 501/501/501 487/487/487
f 496/496/496 492/492/492 495/495/495
f 496/496/496 495/495/495 497/497/497
f 490/490/490 502/502/502 503/503/503
f 490/490/490 503/503/503 491/491/491
f 498/498/498 504/504/504 505/505/505
f 498/498/498 505/505/505 499/499/499
f 504/504/504 506/506/506 507/507/507
f 504/504/504 507/507/507 505/505/505
f 500/500/500 442/442/442 443/443/443
f 500/500/500 443/443/443 501/501/501
f 506/506/506 508/508/508 509/509/509
f 506/506/506 509/509/509 507/507/507
f 502/502/502 438/438/438 439/439/439
f 502/502/502 439/439/439 503/503/503
f 508/508/508 440/440/440 441/441/441
f 508/508/508 441/441/441 509/509/509
f 510/510/510 511/511/511 512/512/512
f 510/510/510 512/512/512 513/513/513
f 514/514/514 510/510/510 513/513/513
f 514/514/514 513/513/513 515/515/515
f 516/516/516 514/514/514 515/515/515
f 516/516/516 515/515/515 517/517/517
f 518/518/518 516/516/516 517/517/517
f 518/518/518 517/517/517 519/519/519
f 520/520/520 518/518/518 519/519/519
f 520/520/520 519/519/519 521/521/521
f 522/522/522 520/520/520 521/521/521
f 522/522/522 521/521/521 523/523/523
f 524/524/524 522/522/522 523/523/523
f 524/524/524 523/523/523 525/525/525
f 526/526/526 524/524/524 525/525/525
f 526/526/526 525/525/525 527/527/527
f 528/528/528 526/526/526 527/527/527
f 528/528/528 527/527/527 529/529/529
f 530/530/530 528/528/528 529/529/529
f 530/530/530 529/529/529 531/531/531
f 532/532/532 530/530/530 531/531/531
f 532/532/532 531/531/531 533/533/533
f 534/534/534 532/532/532 533/533/533
f 534/534/534 533/533/533 535/535/535
f 536/536/536 534/534/534 535/535/535
f 536/536/536 535/535/535 537/537/537
f 538/538/538 536/536/536 537/537/537
f 538/538/538 537/537/537 539/539/539
f 540/540/540 538/538/538 539/539/539
f 540/540/540 539/539/539 541/541/541
f 511/511/511 540/540/540 541/541/541
f 511/511/511 541/541/541 512/512/512
f 542/542/542 543/543/543 544/544/544
f 542/542/542 544/544/544 545/545/545
f 289/289/289 288/288/288 543/543/543
f 289/289/289 543/543/543 542/542/542
f 546/546/546 547/547/547 548/548/548
f 546/546/546 548/548/548 549/549/549
f 233/233/233 232/232/232 547/547/547
f 233/233/233 547/547/547 546/546/546
f 550/550/550 551/551/551 552/552/552
f 550/550/550 552/552/552 553/553/553
f 237/237/237 236/236/236 551/551/551
f 237/237/237 551/551/551 550/550/550
f 554/554/554 555/555/555 556/556/556
f 554/554/554 556/556/556 557/557/557
f 245/245/245 244/244/244 555/555/555
f 245/245/245 555/555/555 554/554/554
f 150/150/150 149/149/149 558/558/558
f 150/150/150 558/558/558 559/559/559
f 560/560/560 150/150/150 559/559/559
f 560/560/560 559/559/559 561/561/561
f 562/562/562 560/560/560 561/561/561
f 562/562/562 561/561/561 563/563/563
f 564/564/564 562/562/562 563/563/563
f 564/564/564 563/563/563 565/565/565
f 566/566/566 564/564/564 565/565/565
f 566/566/566 565/565/565 567/567/567
f 568/568/568 566/566/566 567/567/567
f 568/568/568 567/567/567 569/569/569
f 570/570/570 568/568/568 569/569/569
f 570/570/570 569/569/569 571/571/571
f 572/572/572 570/570/570 571/571/571
f 572/572/572 571/571/571 573/573/573
f 574/574/574 572/572/572 573/573/573
f 574/574/574 573/573/573 575/575/575
f 576/576/576 574/574/574 575/575/575
f 576/576/576 575/575/575 577/577/577
f 578/578/578 576/576/576 577/577/577
f 578/578/578 577/577/577 579/579/579
f 580/580/580 578/578/578 579/579/579
f 580/580/580 579/579/579 581/581/581
f 582/582/582 580/580/580 581/581/581
f 582/582/582 581/581/581 583/583/583
f 151/151/151 582/582/582 583/583/583
f 151/151/151 583/583/583 584/584/584
f 152/152/152 151/151/151 584/584/584
f 152/152/152 584/584/584 585/585/585
f 149/149/149 152/152/152 585/585/585
f 149/149/149 585/585/585 558/558/558
f 151/151/151 574/574/574 576/576/576
f 151/151/151 576/576/576 582/582/582
f 574/574/574 568/568/568 570/570/570
f 574/574/574 570/570/570 572/572/572
f 568/568/568 150/150/150 560/560/560
f 568/568/568 560/560/560 566/566/566
f 568/568/568 574/574/574 151/151/151
f 568/568/568 151/151/151 150/150/150
f 566/566/566 560/560/560 562/562/562
f 566/566/566 562/562/562 564/564/564
f 582/582/582 576/576/576 578/578/578
f 582/582/582 578/578/578 580/580/580
f 393/393/393 586/586/586 587/587/587
f 393/393/393 587/587/587 588/588/588
f 586/586/586 589/589/589 590/590/590
f 586/586/586 590/590/590 591/591/591
f 589/589/589 392/392/392 592/592/592
f 589/589/589 592/592/592 593/593/593
f 589/589/589 586/586/586 393/393/393
f 589/589/589 393/393/393 392/392/392
f 593/593/593 592/592/592 594/594/594
f 593/593/593 594/594/594 595/595/595
f 588/588/588 587/587/587 596/596/596
f 588/588/588 596/596/596 597/597/597
f 598/598/598 599/599/599 600/600/600
f 598/598/598 600/600/600 601/601/601
f 602/602/602 603/603/603 604/604/604
f 602/602/602 604/604/604 605/605/605
f 606/606/606 607/607/607 608/608/608
f 606/606/606 608/608/608 609/609/609
f 610/610/610 611/611/611 612/612/612
f 610/610/610 612/612/612 613/613/613
f 614/614/614 615/615/615 616/616/616
f 614/614/614 616/616/616 617/617/617
f 618/618/618 619/619/619 620/620/620
f 618/618/618 620/620/620 621/621/621
f 622/622/622 623/623/623 624/624/624
f 622/622/622 624/624/624 625/625/625
f 626/626/626 627/627/627 628/628/628
f 626/626/626 628/628/628 629/629/629
f 630/630/630 631/631/631 632/632/632
f 630/630/630 632/632/632 633/633/633
f 634/634/634 618/618/618 621/621/621
f 634/634/634 621/621/621 635/635/635
f 636/636/636 637/637/637 638/638/638
f 636/636/636 638/638/638 639/639/639
f 640/640/640 641/641/641 642/642/642
f 640/640/640 642/642/642 643/643/643
f 644/644/644 614/614/614 617/617/617
f 644/644/644 617/617/617 645/645/645
f 646/646/646 647/647/647 648/648/648
f 646/646/646 648/648/648 649/649/649
f 650/650/650 651/651/651 652/652/652
f 650/650/650 652/652/652 653/653/653
f 654/654/654 655/655/655 611/611/611
f 654/654/654 611/611/611 610/610/610
f 656/656/656 657/657/657 658/658/658
f 656/656/656 658/658/658 659/659/659
f 660/660/660 661/661/661 603/603/603
f 660/660/660 603/603/603 602/602/602
f 662/662/662 663/663/663 661/661/661
f 662/662/662 661/661/661 660/660/660
f 643/643/643 642/642/642 664/664/664
f 643/643/643 664/664/664 665/665/665
f 666/666/666 644/644/644 645/645/645
f 666/666/666 645/645/645 667/667/667
f 623/623/623 668/668/668 669/669/669
f 623/623/623 669/669/669 624/624/624
f 670/670/670 671/671/671 655/655/655
f 670/670/670 655/655/655 654/654/654
f 631/631/631 672/672/672 673/673/673
f 631/631/631 673/673/673 632/632/632
f 674/674/674 634/634/634 635/635/635
f 674/674/674 635/635/635 675/675/675
f 653/653/653 652/652/652 676/676/676
f 653/653/653 676/676/676 677/677/677
f 637/637/637 674/674/674 675/675/675
f 637/637/637 675/675/675 638/638/638
f 659/659/659 658/658/658 671/671/671
f 659/659/659 671/671/671 670/670/670
f 672/672/672 646/646/646 649/649/649
f 672/672/672 649/649/649 673/673/673
f 677/677/677 676/676/676 627/627/627
f 677/677/677 627/627/627 626/626/626
f 647/647/647 666/666/666 667/667/667
f 647/647/647 667/667/667 648/648/648
f 629/629/629 628/628/628 663/663/663
f 629/629/629 663/663/663 662/662/662
f 665/665/665 664/664/664 657/657/657
f 665/665/665 657/657/657 656/656/656
f 668/668/668 636/636/636 639/639/639
f 668/668/668 639/639/639 669/669/669
f 678/678/678 665/665/665 656/656/656
f 678/678/678 656/656/656 679/679/679
f 680/680/680 629/629/629 662/662/662
f 680/680/680 662/662/662 681/681/681
f 682/682/682 677/677/677 626/626/626
f 682/682/682 626/626/626 683/683/683
f 684/684/684 659/659/659 670/670/670
f 684/684/684 670/670/670 685/685/685
f 686/686/686 653/653/653 677/677/677
f 686/686/686 677/677/677 682/682/682
f 685/685/685 670/670/670 654/654/654
f 685/685/685 654/654/654 687/687/687
f 688/688/688 643/643/643 665/665/665
f 688/688/688 665/665/665 678/678/678
f 681/681/681 662/662/662 660/660/660
f 681/681/681 660/660/660 689/689/689
f 689/689/689 660/660/660 602/602/602
f 689/689/689 602/602/602 690/690/690
f 679/679/679 656/656/656 659/659/659
f 679/679/679 659/659/659 684/684/684
f 687/687/687 654/654/654 610/610/610
f 687/687/687 610/610/610 691/691/691
f 692/692/692 650/650/650 653/653/653
f 692/692/692 653/653/653 686/686/686
f 693/693/693 640/640/640 643/643/643
f 693/693/693 643/643/643 688/688/688
f 683/683/683 626/626/626 629/629/629
f 683/683/683 629/629/629 680/680/680
f 691/691/691 610/610/610 613/613/613
f 691/691/691 613/613/613 694/694/694
f 695/695/695 606/606/606 609/609/609
f 695/695/695 609/609/609 696/696/696
f 690/690/690 602/602/602 605/605/605
f 690/690/690 605/605/605 697/697/697
f 698/698/698 598/598/598 601/601/601
f 698/698/698 601/601/601 699/699/699
