# converted from glTF by glb_parts.py
v 2.059231 12.087559 -0.560454
v 1.302946 12.852088 0.749472
v 0.546654 12.087526 2.059405
v 0.798701 12.033222 2.890447
v 0.799969 11.801332 2.888253
v 0.571157 12.033222 3.284565
v -0.559419 12.033222 -3.277791
v -0.786963 12.033222 -2.883672
v -0.788231 11.801332 -2.881476
v 2.901285 11.801332 -0.751333
v 2.902553 12.033222 -0.753532
v 3.130097 12.033222 -1.147648
v -3.118359 12.033222 1.154423
v -2.889546 11.801332 0.758109
v -2.890815 12.033222 0.760304
v -2.085952 12.087559 0.539470
v -1.329666 12.852088 -0.770455
v -0.573376 12.087526 -2.080390
v 1.529648 0.686270 0.526526
v 1.528660 0.685335 0.522357
v 1.526240 0.688256 0.524557
v 1.220775 0.686295 1.061475
v 1.217401 0.688256 1.059482
v 1.216704 0.685335 1.062680
v -1.249098 0.686292 -1.077828
v -1.245723 0.688253 -1.075835
v -1.245027 0.685333 -1.079033
v -1.556983 0.685333 -0.538708
v -1.554608 0.688253 -0.540894
v -1.557975 0.686292 -0.542838
v 0.462092 0.686330 -1.450743
v 0.457924 0.685336 -1.449764
v 0.460107 0.688253 -1.447305
v 0.997036 0.686356 -1.141872
v 0.995027 0.688256 -1.138469
v 0.998248 0.685339 -1.137809
v -0.490415 0.686332 1.434391
v -0.486247 0.685339 1.433413
v -0.488430 0.688256 1.430954
v -1.025360 0.686354 1.125519
v -1.023350 0.688253 1.122116
v -1.026571 0.685336 1.121455
v -1.132779 8.312538 -0.293795
v -0.820824 8.312538 -0.834118
v -0.589539 7.761566 -0.700586
v -0.901495 7.761566 -0.160264
v 0.687478 7.761569 -0.599540
v 0.147154 7.761566 -0.911497
v 0.299278 8.312538 -1.174983
v 0.839602 8.312538 -0.863026
v 0.561216 7.761569 0.684234
v 0.873172 7.761569 0.143910
v 1.104455 8.312538 0.277441
v 0.792499 8.312538 0.817765
v -0.715802 7.761566 0.583187
v -0.175478 7.761569 0.895144
v -0.327602 8.312538 1.158629
v -0.867926 8.312538 0.846674
v -0.128346 8.312538 -0.434317
v -0.128346 7.761566 -0.434317
v -0.589539 7.761566 -0.700586
v -0.820824 8.312538 -0.834118
v -0.128346 7.761566 -0.434317
v -0.440301 7.761566 0.106006
v -0.901495 7.761566 -0.160264
v -0.589539 7.761566 -0.700586
v -0.440301 7.761566 0.106006
v -0.440301 8.312538 0.106006
v -1.132779 8.312538 -0.293795
v -0.901495 7.761566 -0.160264
v 0.100022 7.761569 0.417964
v 0.411978 7.761569 -0.122360
v 0.873172 7.761569 0.143910
v 0.561216 7.761569 0.684234
v 0.411978 7.761569 -0.122360
v 0.411978 8.312538 -0.122360
v 1.104455 8.312538 0.277441
v 0.873172 7.761569 0.143910
v 0.100022 8.312538 0.417964
v 0.100022 7.761569 0.417964
v 0.561216 7.761569 0.684234
v 0.792499 8.312538 0.817765
v 0.411978 7.761569 -0.122360
v -0.128346 7.761566 -0.434317
v 0.147154 7.761566 -0.911497
v 0.687478 7.761569 -0.599540
v -0.128346 7.761566 -0.434317
v -0.128346 8.312538 -0.434317
v 0.299278 8.312538 -1.174983
v 0.147154 7.761566 -0.911497
v 0.411978 8.312538 -0.122360
v 0.411978 7.761569 -0.122360
v 0.687478 7.761569 -0.599540
v 0.839602 8.312538 -0.863026
v -0.440301 7.761566 0.106006
v 0.100022 7.761569 0.417964
v -0.175478 7.761569 0.895144
v -0.715802 7.761566 0.583187
v 0.100022 7.761569 0.417964
v 0.100022 8.312538 0.417964
v -0.327602 8.312538 1.158629
v -0.175478 7.761569 0.895144
v -0.440301 8.312538 0.106006
v -0.440301 7.761566 0.106006
v -0.715802 7.761566 0.583187
v -0.867926 8.312538 0.846674
v 0.100022 8.312538 0.417964
v 0.411978 8.312538 -0.122360
v 2.356138 8.312538 -0.643293
v 0.620960 8.312538 2.362122
v -0.128346 8.312538 -0.434317
v -0.649283 8.312538 -2.378474
v -0.440301 8.312538 0.106006
v -2.384461 8.312538 0.626942
v 0.620960 8.312538 2.362122
v 2.356138 8.312538 -0.643293
v 2.356138 8.537210 -0.643293
v 0.620960 8.537210 2.362122
v 2.356138 8.312538 -0.643293
v -0.649283 8.312538 -2.378474
v -0.649283 8.537210 -2.378474
v 2.356138 8.537210 -0.643293
v -0.649283 8.312538 -2.378474
v -2.384461 8.312538 0.626942
v -2.384461 8.537210 0.626942
v -0.649283 8.537210 -2.378474
v -2.384461 8.312538 0.626942
v 0.620960 8.312538 2.362122
v 0.620960 8.537210 2.362122
v -2.384461 8.537210 0.626942
v 0.620960 8.537210 2.362122
v 2.356138 8.537210 -0.643293
v 2.045014 8.537210 -0.559929
v 0.537594 8.537210 2.050998
v -0.649283 8.537210 -2.378474
v -0.565918 8.537210 -2.067352
v -2.384461 8.537210 0.626942
v -2.073337 8.537210 0.543576
v 0.537594 8.537210 2.050998
v 2.045014 8.537210 -0.559929
v 2.045014 8.760986 -0.559929
v 0.537594 8.760986 2.050998
v 2.045014 8.537210 -0.559929
v -0.565918 8.537210 -2.067352
v -0.565918 8.760986 -2.067352
v 2.045014 8.760986 -0.559929
v -0.565918 8.537210 -2.067352
v -2.073337 8.537210 0.543576
v -2.073337 8.760986 0.543576
v -0.565918 8.760986 -2.067352
v -2.073337 8.537210 0.543576
v 0.537594 8.537210 2.050998
v 0.537594 8.760986 2.050998
v -2.073337 8.760986 0.543576
v 0.505599 8.760986 1.619894
v 1.655669 8.760986 -0.372087
v 1.655669 9.374889 -0.372087
v 0.505599 9.374889 1.619894
v 1.636194 8.760986 -0.525944
v -0.390939 8.760986 -1.696311
v -0.390939 9.374889 -1.696311
v 1.636194 9.374889 -0.525944
v -0.533921 8.760986 -1.636247
v -1.683993 8.760986 0.355734
v -1.683993 9.374889 0.355734
v -0.533921 9.374889 -1.636247
v -1.664519 8.760986 0.509593
v 0.362615 8.760986 1.679959
v 0.362615 9.374889 1.679959
v -1.664519 9.374889 0.509593
v 0.537594 9.374889 2.050998
v 2.045014 9.374889 -0.559929
v 2.045014 9.604605 -0.559929
v 0.537594 9.604605 2.050998
v 2.045014 9.374889 -0.559929
v -0.565918 9.374889 -2.067352
v -0.565918 9.604605 -2.067352
v 2.045014 9.604605 -0.559929
v -0.565918 9.374889 -2.067352
v -2.073337 9.374889 0.543576
v -2.073337 9.604605 0.543576
v -0.565918 9.604605 -2.067352
v -2.073337 9.374889 0.543576
v 0.537594 9.374889 2.050998
v 0.537594 9.604605 2.050998
v -2.073337 9.604605 0.543576
v 1.906069 8.760702 -0.522697
v 1.906069 9.374889 -0.522697
v 1.778253 9.374889 -0.301314
v 1.778253 8.760986 -0.301314
v 0.500364 9.374889 1.912052
v 0.500364 8.760804 1.912052
v 0.628181 8.760986 1.690668
v 0.628181 9.374889 1.690668
v -1.934392 8.761383 0.506346
v -1.934392 9.374889 0.506346
v -1.806576 9.374889 0.284961
v -1.806576 8.761779 0.284961
v -0.528688 9.374889 -1.928406
v -0.528688 8.761383 -1.928406
v -0.656504 8.761779 -1.707021
v -0.656504 9.374889 -1.707021
v -0.528688 8.761383 -1.928406
v -0.528688 9.374889 -1.928406
v -0.324876 9.374889 -1.810735
v -0.324876 8.760986 -1.810735
v 1.906069 9.374889 -0.522697
v 1.906069 8.760702 -0.522697
v 1.702257 8.760986 -0.640369
v 1.702257 9.374889 -0.640369
v 0.500364 8.760804 1.912052
v 0.500364 9.374889 1.912052
v 0.296553 9.374889 1.794382
v 0.296553 8.760986 1.794382
v -1.934392 9.374889 0.506346
v -1.934392 8.761383 0.506346
v -1.730581 8.760986 0.624017
v -1.730581 9.374889 0.624017
v 1.702257 8.760986 -0.640369
v -0.324876 8.760986 -1.810735
v -0.390939 8.760986 -1.696311
v 1.636194 8.760986 -0.525944
v -0.324876 8.760986 -1.810735
v -0.324876 9.374889 -1.810735
v -0.390939 9.374889 -1.696311
v -0.390939 8.760986 -1.696311
v -0.324876 9.374889 -1.810735
v 1.702257 9.374889 -0.640369
v 1.636194 9.374889 -0.525944
v -0.390939 9.374889 -1.696311
v 1.702257 9.374889 -0.640369
v 1.702257 8.760986 -0.640369
v 1.636194 8.760986 -0.525944
v 1.636194 9.374889 -0.525944
v -1.730581 8.760986 0.624017
v 0.296553 8.760986 1.794382
v 0.362615 8.760986 1.679959
v -1.664519 8.760986 0.509593
v 0.296553 8.760986 1.794382
v 0.296553 9.374889 1.794382
v 0.362615 9.374889 1.679959
v 0.362615 8.760986 1.679959
v 0.296553 9.374889 1.794382
v -1.730581 9.374889 0.624017
v -1.664519 9.374889 0.509593
v 0.362615 9.374889 1.679959
v -1.730581 9.374889 0.624017
v -1.730581 8.760986 0.624017
v -1.664519 8.760986 0.509593
v -1.664519 9.374889 0.509593
v 1.778253 8.760986 -0.301314
v 1.778253 9.374889 -0.301314
v 1.655669 9.374889 -0.372087
v 1.655669 8.760986 -0.372087
v 0.628181 9.374889 1.690668
v 0.628181 8.760986 1.690668
v 0.505599 8.760986 1.619894
v 0.505599 9.374889 1.619894
v -0.656504 8.761779 -1.707021
v -1.806576 8.761779 0.284961
v -1.683993 8.760986 0.355734
v -0.533921 8.760986 -1.636247
v -1.806576 8.761779 0.284961
v -1.806576 9.374889 0.284961
v -1.683993 9.374889 0.355734
v -1.683993 8.760986 0.355734
v -1.806576 9.374889 0.284961
v -0.656504 9.374889 -1.707021
v -0.533921 9.374889 -1.636247
v -1.683993 9.374889 0.355734
v -0.656504 9.374889 -1.707021
v -0.656504 8.761779 -1.707021
v -0.533921 8.760986 -1.636247
v -0.533921 9.374889 -1.636247
v 2.045014 9.604605 -0.559929
v 1.670873 9.604404 -0.459677
v 0.437343 9.604404 1.676856
v 0.537594 9.604605 2.050998
v -0.565918 9.604605 -2.067352
v -0.465667 9.604362 -1.693209
v 1.906069 8.760702 -0.522697
v 0.500364 8.760804 1.912052
v 0.537594 8.760986 2.050998
v 2.045014 8.760986 -0.559929
v -0.528688 8.761383 -1.928406
v 1.906069 8.760702 -0.522697
v 2.045014 8.760986 -0.559929
v -0.565918 8.760986 -2.067352
v -1.934392 8.761383 0.506346
v -0.528688 8.761383 -1.928406
v -0.565918 8.760986 -2.067352
v -2.073337 8.760986 0.543576
v 0.500364 8.760804 1.912052
v -1.934392 8.761383 0.506346
v -2.073337 8.760986 0.543576
v 0.537594 8.760986 2.050998
v 0.500364 9.374889 1.912052
v 1.906069 9.374889 -0.522697
v 2.045014 9.374889 -0.559929
v 0.537594 9.374889 2.050998
v -0.528688 9.374889 -1.928406
v -1.934392 9.374889 0.506346
v -2.073337 9.374889 0.543576
v -0.565918 9.374889 -2.067352
v -1.934392 9.374889 0.506346
v 0.500364 9.374889 1.912052
v 0.537594 9.374889 2.050998
v -2.073337 9.374889 0.543576
v 0.364794 9.604605 1.399981
v 1.394815 9.604605 -0.384069
v 1.394815 11.892134 -0.384069
v 0.364794 11.892134 1.399981
v 1.397103 9.604605 -0.390717
v -0.388506 9.604605 -1.421639
v -0.388506 11.892134 -1.421639
v 1.397103 11.892134 -0.390717
v -0.393117 9.604605 -1.416332
v -1.423139 9.604605 0.367717
v -1.423139 11.892134 0.367717
v -0.393117 11.892134 -1.416332
v -1.425427 9.604605 0.374362
v 0.360182 9.604605 1.405284
v 0.360182 11.892134 1.405284
v -1.425427 11.892134 0.374362
v -0.465667 9.604362 -1.693209
v -0.465667 11.892134 -1.693209
v -0.290202 11.892134 -1.591904
v -0.290202 9.604493 -1.591904
v 1.670873 11.892134 -0.459677
v 1.670873 9.604404 -0.459677
v 1.495407 9.604493 -0.560983
v 1.495407 11.892134 -0.560983
v 0.437343 9.604404 1.676856
v 0.437343 11.892134 1.676856
v 0.261879 11.892134 1.575551
v 0.261879 9.604392 1.575551
v -1.699196 11.892134 0.443326
v -1.699196 9.604362 0.443326
v -1.523731 9.604392 0.544629
v -1.523731 11.892134 0.544629
v 1.670873 9.604404 -0.459677
v 1.670873 11.892134 -0.459677
v 1.569119 11.892134 -0.283435
v 1.569119 9.604605 -0.283435
v 0.437343 11.892134 1.676856
v 0.437343 9.604404 1.676856
v 0.539096 9.604605 1.500615
v 0.539096 11.892134 1.500615
v -1.699196 9.604362 0.443326
v -1.699196 11.892134 0.443326
v -1.597442 11.892134 0.267083
v -1.597442 9.604605 0.267083
v -0.465667 11.892134 -1.693209
v -0.465667 9.604362 -1.693209
v -0.567420 9.604605 -1.516967
v -0.567420 11.892134 -1.516967
v 1.495407 9.604493 -0.560983
v -0.290202 9.604493 -1.591904
v -0.388506 9.604605 -1.421639
v 1.397103 9.604605 -0.390717
v -0.290202 9.604493 -1.591904
v -0.290202 11.892134 -1.591904
v -0.388506 11.892134 -1.421639
v -0.388506 9.604605 -1.421639
v -0.290202 11.892134 -1.591904
v 1.495407 11.892134 -0.560983
v 1.397103 11.892134 -0.390717
v -0.388506 11.892134 -1.421639
v 1.495407 11.892134 -0.560983
v 1.495407 9.604493 -0.560983
v 1.397103 9.604605 -0.390717
v 1.397103 11.892134 -0.390717
v -1.523731 9.604392 0.544629
v 0.261879 9.604392 1.575551
v 0.360182 9.604605 1.405284
v -1.425427 9.604605 0.374362
v 0.261879 9.604392 1.575551
v 0.261879 11.892134 1.575551
v 0.360182 11.892134 1.405284
v 0.360182 9.604605 1.405284
v 0.261879 11.892134 1.575551
v -1.523731 11.892134 0.544629
v -1.425427 11.892134 0.374362
v 0.360182 11.892134 1.405284
v -1.523731 11.892134 0.544629
v -1.523731 9.604392 0.544629
v -1.425427 9.604605 0.374362
v -1.425427 11.892134 0.374362
v 0.539096 9.604605 1.500615
v 1.569119 9.604605 -0.283435
v 1.394815 9.604605 -0.384069
v 0.364794 9.604605 1.399981
v 1.569119 9.604605 -0.283435
v 1.569119 11.892134 -0.283435
v 1.394815 11.892134 -0.384069
v 1.394815 9.604605 -0.384069
v 1.569119 11.892134 -0.283435
v 0.539096 11.892134 1.500615
v 0.364794 11.892134 1.399981
v 1.394815 11.892134 -0.384069
v 0.539096 11.892134 1.500615
v 0.539096 9.604605 1.500615
v 0.364794 9.604605 1.399981
v 0.364794 11.892134 1.399981
v -0.567420 9.604605 -1.516967
v -1.597442 9.604605 0.267083
v -1.423139 9.604605 0.367717
v -0.393117 9.604605 -1.416332
v -1.597442 9.604605 0.267083
v -1.597442 11.892134 0.267083
v -1.423139 11.892134 0.367717
v -1.423139 9.604605 0.367717
v -1.597442 11.892134 0.267083
v -0.567420 11.892134 -1.516967
v -0.393117 11.892134 -1.416332
v -1.423139 11.892134 0.367717
v -0.567420 11.892134 -1.516967
v -0.567420 9.604605 -1.516967
v -0.393117 9.604605 -1.416332
v -0.393117 11.892134 -1.416332
v 0.542106 11.892134 2.067324
v 2.061409 11.892134 -0.564184
v 2.061409 12.089211 -0.564184
v 0.542106 12.089211 2.067324
v 2.061409 11.892134 -0.564184
v -0.570429 11.892134 -2.083678
v -0.570429 12.089211 -2.083678
v 2.061409 12.089211 -0.564184
v -0.570429 11.892134 -2.083678
v -2.089733 11.892134 0.547832
v -2.089733 12.089211 0.547832
v -0.570429 12.089211 -2.083678
v -2.089733 11.892134 0.547832
v 0.542106 11.892134 2.067324
v 0.542106 12.089211 2.067324
v -2.089733 12.089211 0.547832
v 0.437343 11.892134 1.676856
v 1.670873 11.892134 -0.459677
v 2.061409 11.892134 -0.564184
v 0.542106 11.892134 2.067324
v -0.465667 11.892134 -1.693209
v -0.570429 11.892134 -2.083678
v -1.699196 11.892134 0.443326
v -2.089733 11.892134 0.547832
v 1.956265 13.388929 1.129451
v 1.956265 12.850985 1.129451
v 2.069211 12.728198 0.933823
v 2.069211 13.194740 0.933823
v -1.725944 13.129935 -1.257310
v -1.838889 13.297450 -1.061683
v 1.850627 13.297450 1.068460
v 1.963572 13.129935 0.872833
v -1.956265 12.850985 -1.129451
v -1.956265 13.388929 -1.129451
v -1.843320 13.194740 -1.325078
v -1.843320 12.728198 -1.325078
v -1.838889 12.850985 -1.061683
v -1.725944 12.728199 -1.257310
v 1.963572 12.728199 0.872833
v 1.850627 12.850985 1.068460
v -1.951834 12.728199 -0.866057
v 1.737682 12.728199 1.264086
v -2.069210 12.728198 -0.933823
v -2.069210 13.194741 -0.933823
v -1.838889 13.297450 -1.061683
v -1.951834 13.129937 -0.866057
v 1.737682 13.129937 1.264086
v 1.850627 13.297450 1.068460
v 1.843320 13.194741 1.325076
v 1.843320 12.728198 1.325076
v 3.006923 11.801332 -0.690344
v 3.235735 12.033222 -1.086656
v -0.786963 12.033222 -2.883672
v -1.725944 13.017520 -1.257310
v 1.963572 13.017520 0.872833
v 2.902553 12.033222 -0.753532
v -0.676795 12.033222 -3.345557
v -0.905608 11.801332 -2.949244
v -0.788231 11.801332 -2.881476
v 2.901285 11.801332 -0.751333
v -2.889546 11.801332 0.758109
v 0.799969 11.801332 2.888253
v -3.235735 12.033222 1.086656
v -3.006923 11.801332 0.690342
v -1.951834 13.017522 -0.866057
v -2.890815 12.033222 0.760304
v 0.798701 12.033222 2.890447
v 1.737682 13.017522 1.264086
v 0.905607 11.801332 2.949243
v 0.676796 12.033222 3.345557
v 0.676796 12.033222 3.345557
v 1.843320 13.194741 1.325076
v 1.737682 13.194742 1.264086
v 0.571157 12.033222 3.284565
v 1.850627 13.388929 1.068460
v 1.956265 13.388929 1.129451
v 1.963572 13.194740 0.872833
v 2.069211 13.194740 0.933823
v 3.130097 12.033222 -1.147648
v 3.235735 12.033222 -1.086656
v 3.006923 11.801332 -0.690344
v 3.130097 12.033222 -1.147648
v 3.235735 12.033222 -1.086656
v 2.069211 12.728198 0.933823
v 1.956265 12.850985 1.129451
v 1.843320 12.728198 1.325076
v 0.905607 11.801332 2.949243
v 0.571157 12.033222 3.284565
v 0.676796 12.033222 3.345557
v -3.006923 11.801332 0.690342
v -2.069210 12.728198 -0.933823
v -1.956265 12.850985 -1.129451
v -1.843320 12.728198 -1.325078
v -0.905608 11.801332 -2.949244
v -0.559419 12.033222 -3.277791
v -0.676795 12.033222 -3.345557
v -1.843320 13.194740 -1.325078
v -1.725944 13.194740 -1.257310
v -0.559419 12.033222 -3.277791
v -0.676795 12.033222 -3.345557
v -1.956265 13.388929 -1.129451
v -1.838889 13.388929 -1.061683
v -2.069210 13.194741 -0.933823
v -1.951834 13.194742 -0.866057
v -3.118359 12.033222 1.154423
v -3.235735 12.033222 1.086656
v -3.118359 12.033222 1.154423
v -3.235735 12.033222 1.086656
v -1.725944 13.194740 -1.257310
v -1.725944 13.017520 -1.257310
v 1.963572 13.194740 0.872833
v 1.963572 13.017520 0.872833
v -1.951834 13.194742 -0.866057
v -1.951834 13.017522 -0.866057
v 1.737682 13.194742 1.264086
v 1.737682 13.017522 1.264086
v -0.788231 11.801332 -2.881476
v -0.786963 12.033222 -2.883672
v 2.902553 12.033222 -0.753532
v 2.901285 11.801332 -0.751333
v -1.725944 13.194740 -1.257310
v -1.838889 13.388929 -1.061683
v -1.838889 13.297450 -1.061683
v -1.725944 13.129935 -1.257310
v 1.850627 13.388929 1.068460
v 1.963572 13.194740 0.872833
v 1.963572 13.129935 0.872833
v 1.850627 13.297450 1.068460
v -1.951834 13.194742 -0.866057
v -1.951834 13.129937 -0.866057
v 1.737682 13.194742 1.264086
v 1.737682 13.129937 1.264086
v -2.890815 12.033222 0.760304
v -2.889546 11.801332 0.758109
v 0.799969 11.801332 2.888253
v 0.798701 12.033222 2.890447
v 0.098501 -0.000000 0.420598
v 0.102656 -0.000000 0.419484
v 0.102656 0.685215 0.419484
v 0.098501 0.685215 0.420598
v 0.098501 0.685215 0.420598
v 0.095869 0.688256 0.419076
v -0.488430 0.688256 1.430954
v -0.486247 0.685339 1.433413
v 0.104176 0.688256 0.416852
v 0.102656 0.685215 0.419484
v 1.216704 0.685335 1.062680
v 0.100022 0.691297 0.417964
v 0.104176 0.688256 0.416852
v 0.413091 0.688256 -0.118207
v 0.411978 0.691297 -0.122360
v 0.095869 0.688256 0.419076
v 0.100022 0.691297 0.417964
v -0.440301 0.691294 0.106006
v -0.439188 0.688253 0.110160
v 0.414611 0.000000 -0.120840
v 0.413499 0.000000 -0.124995
v 0.413499 0.685215 -0.124995
v 0.414611 0.685215 -0.120840
v 0.410865 0.688256 -0.126515
v 0.413499 0.685215 -0.124995
v 0.998248 0.685339 -1.137809
v 0.411978 0.691297 -0.122360
v 0.410865 0.688256 -0.126515
v -0.124192 0.688253 -0.435430
v -0.128346 0.691294 -0.434317
v 0.413091 0.688256 -0.118207
v 1.526240 0.688256 0.524557
v 1.528660 0.685335 0.522357
v -0.126825 0.000000 -0.436950
v -0.130979 0.000000 -0.435837
v -0.130979 0.685212 -0.435837
v -0.126825 0.685212 -0.436950
v -0.126825 0.685212 -0.436950
v -0.124192 0.688253 -0.435430
v 0.460107 0.688253 -1.447305
v 0.457924 0.685336 -1.449764
v -0.132500 0.688253 -0.433203
v -0.130979 0.685212 -0.435837
v -1.245027 0.685333 -1.079033
v -0.128346 0.691294 -0.434317
v -0.132500 0.688253 -0.433203
v -0.441414 0.688253 0.101853
v -0.440301 0.691294 0.106006
v -0.442935 -0.000000 0.104486
v -0.441822 -0.000000 0.108640
v -0.441822 0.685212 0.108640
v -0.442935 0.685212 0.104486
v -0.442935 0.685212 0.104486
v -0.441414 0.688253 0.101853
v -1.556983 0.685333 -0.538708
v -0.439188 0.688253 0.110160
v -0.441822 0.685212 0.108640
v -1.026571 0.685336 1.121455
v 1.968897 -0.000000 0.780037
v 1.967142 -0.000000 0.775513
v 1.655187 -0.000000 1.315837
v 1.659981 -0.000000 1.315094
v -1.683511 0.000000 -1.332191
v -1.688305 0.000000 -1.331449
v -1.997219 0.000000 -0.796391
v -1.995466 0.000000 -0.791867
v 0.732984 0.000000 -1.920100
v 0.728414 0.000000 -1.918267
v 1.268737 0.000000 -1.606310
v 1.268041 0.000000 -1.611187
v -0.761307 -0.000000 1.903747
v -0.756737 -0.000000 1.901913
v -1.297060 -0.000000 1.589957
v -1.296364 -0.000000 1.594833
v 0.411978 7.761569 -0.122360
v 0.100022 7.761569 0.417964
v -0.440301 7.761566 0.106006
v -0.128346 7.761566 -0.434317
v -0.128346 7.761566 -0.434317
v 0.411978 7.761569 -0.122360
v 0.100022 7.761569 0.417964
v -0.440301 7.761566 0.106006
v 1.967142 -0.000000 0.775513
v 0.413091 0.688256 -0.118207
v 1.655187 -0.000000 1.315837
v 1.216704 0.685335 1.062680
v -1.683511 0.000000 -1.332191
v -1.245027 0.685333 -1.079033
v -1.556983 0.685333 -0.538708
v -1.995466 0.000000 -0.791867
v -0.126825 0.000000 -0.436950
v 0.728414 0.000000 -1.918267
v -0.124192 0.688253 -0.435430
v 0.413499 0.685215 -0.124995
v 0.413499 0.000000 -0.124995
v 1.268737 0.000000 -1.606310
v 0.998248 0.685339 -1.137809
v 0.098501 -0.000000 0.420598
v -0.756737 -0.000000 1.901913
v 0.095869 0.688256 0.419076
v -0.441822 0.685212 0.108640
v -0.441822 -0.000000 0.108640
v -1.297060 -0.000000 1.589957
v -1.026571 0.685336 1.121455
v 0.098501 -0.000000 0.420598
v 0.097774 -0.000000 0.416666
v 0.101320 -0.000000 0.415716
v 0.102656 -0.000000 0.419484
v 0.413499 0.000000 -0.124995
v 0.414611 0.000000 -0.120840
v 0.410680 0.000000 -0.120113
v 0.409731 0.000000 -0.123659
v -0.126825 0.000000 -0.436950
v -0.126098 0.000000 -0.433018
v -0.129644 0.000000 -0.432069
v -0.130979 0.000000 -0.435837
v -0.441822 -0.000000 0.108640
v -0.442935 -0.000000 0.104486
v -0.439004 -0.000000 0.103760
v -0.438053 -0.000000 0.107306
v 1.778253 8.760986 -0.301314
v 1.655669 8.760986 -0.372087
v 0.505599 8.760986 1.619894
v 0.628181 8.760986 1.690668
v 0.628181 9.374889 1.690668
v 0.505599 9.374889 1.619894
v 1.655669 9.374889 -0.372087
v 1.778253 9.374889 -0.301314
v -0.528688 9.374889 -1.928406
v -0.565918 9.374889 -2.067352
v 2.045014 9.374889 -0.559929
v 1.906069 9.374889 -0.522697
v -2.073337 9.604605 0.543576
v -1.699196 9.604362 0.443326
v -1.725944 13.194740 -1.257310
v 1.963572 13.194740 0.872833
v 1.963572 13.017520 0.872833
v -1.725944 13.017520 -1.257310
v 1.737682 13.194742 1.264086
v -1.951834 13.194742 -0.866057
v -1.951834 13.017522 -0.866057
v 1.737682 13.017522 1.264086
v 1.967142 -0.000000 0.775513
v 1.968897 -0.000000 0.780037
v 1.659981 -0.000000 1.315094
v 1.655187 -0.000000 1.315837
v 0.728414 0.000000 -1.918267
v 0.732984 0.000000 -1.920100
v 1.268041 0.000000 -1.611187
v 1.268737 0.000000 -1.606310
v -1.995466 0.000000 -0.791867
v -1.997219 0.000000 -0.796391
v -1.688305 0.000000 -1.331449
v -1.683511 0.000000 -1.332191
v -0.756737 -0.000000 1.901913
v -0.761307 -0.000000 1.903747
v -1.296364 -0.000000 1.594833
v -1.297060 -0.000000 1.589957
v 0.098501 0.685215 0.420598
v 0.102656 0.685215 0.419484
v 0.095869 0.688256 0.419076
v 0.413091 0.688256 -0.118207
v 0.414611 0.685215 -0.120840
v 0.413499 0.685215 -0.124995
v -0.124192 0.688253 -0.435430
v -0.126825 0.685212 -0.436950
v -0.130979 0.685212 -0.435837
v -0.442935 0.685212 0.104486
v -0.441822 0.685212 0.108640
v -0.439188 0.688253 0.110160
v 0.628181 8.760891 1.690668
v 0.628181 9.374889 1.690668
v -1.296364 -0.000000 1.594833
v 1.268041 0.000000 -1.611187
v 0.628181 9.374889 1.690668
v 0.628181 8.760891 1.690668
v 0.628181 8.760891 1.690668
v -0.442935 0.685212 0.104486
v -0.442935 -0.000000 0.104486
v -0.132500 0.688253 -0.433203
v 0.414611 0.685215 -0.120840
v 0.414611 0.685215 -0.120840
v 0.414611 0.000000 -0.120840
v 0.905607 11.801332 2.949243
v -3.006923 11.801332 0.690342
v -0.905608 11.801332 -2.949244
v 3.006923 11.801332 -0.690344
v 0.799969 11.801332 2.888253
v -1.951834 13.129937 -0.866057
v 0.100022 0.691297 0.417964
v -2.889546 11.801332 0.758109
v 1.850627 13.388929 1.068460
v 1.850627 12.850985 1.068460
v -0.788231 11.801332 -2.881476
v 1.956265 13.388929 1.129451
v 1.956265 12.850985 1.129451
v 2.901285 11.801332 -0.751333
v -1.688305 0.000000 -1.331449
v 0.457924 0.685336 -1.449764
v -0.486247 0.685339 1.433413
v 0.102656 -0.000000 0.419484
v 0.500364 9.374889 1.912052
v 0.500364 8.760804 1.912052
v 1.906069 8.760702 -0.522697
v 1.906069 9.374889 -0.522697
v 1.778253 8.760986 -0.301314
v -1.838889 13.388929 -1.061683
v -1.838889 12.850985 -1.061683
v -0.441414 0.688253 0.101853
v -0.128346 0.691294 -0.434317
v -0.126825 0.685212 -0.436950
v 1.737682 13.129937 1.264086
v -1.725944 13.129935 -1.257310
v 1.963572 13.129935 0.872833
v -1.956265 12.850985 -1.129451
v -1.956265 13.388929 -1.129451
vt 0.826537 0.234799
vt 0.715295 0.178571
vt 0.604051 0.234802
vt 0.934681 0.154843
vt 0.934394 0.181066
vt 0.986142 0.154843
vt 0.986757 0.154773
vt 0.935296 0.154773
vt 0.935009 0.180995
vt 0.505092 0.180430
vt 0.504805 0.154208
vt 0.453344 0.154208
vt 0.453728 0.154142
vt 0.505476 0.180364
vt 0.505189 0.154142
vt 0.826509 0.235092
vt 0.715266 0.178864
vt 0.604023 0.235094
vt 0.633591 0.741213
vt 0.633763 0.741180
vt 0.633591 0.740995
vt 0.599434 0.741212
vt 0.599436 0.740995
vt 0.599264 0.741180
vt 0.599664 0.741473
vt 0.599666 0.741257
vt 0.599493 0.741442
vt 0.633993 0.741442
vt 0.633822 0.741258
vt 0.633822 0.741473
vt 0.634176 0.739898
vt 0.634349 0.739863
vt 0.634176 0.739679
vt 0.600020 0.739897
vt 0.600022 0.739679
vt 0.599849 0.739863
vt 0.633235 0.739819
vt 0.633407 0.739784
vt 0.633235 0.739600
vt 0.599078 0.739818
vt 0.599080 0.739600
vt 0.598908 0.739784
vt 0.737334 0.730108
vt 0.771833 0.730108
vt 0.771833 0.699642
vt 0.737334 0.699642
vt 0.771833 0.699673
vt 0.737334 0.699673
vt 0.737334 0.730139
vt 0.771833 0.730139
vt 0.771469 0.699451
vt 0.736970 0.699451
vt 0.736970 0.729917
vt 0.771469 0.729917
vt 0.771635 0.699296
vt 0.737135 0.699296
vt 0.737135 0.729762
vt 0.771635 0.729762
vt 0.801185 0.670007
vt 0.770719 0.670007
vt 0.770719 0.699454
vt 0.801185 0.714221
vt 0.771687 0.670209
vt 0.737188 0.670209
vt 0.737188 0.699656
vt 0.771687 0.699656
vt 0.738736 0.669268
vt 0.708270 0.669268
vt 0.708270 0.713482
vt 0.738736 0.698715
vt 0.771822 0.669750
vt 0.737322 0.669750
vt 0.737322 0.699197
vt 0.771822 0.699197
vt 0.738624 0.669268
vt 0.708158 0.669268
vt 0.708158 0.713482
vt 0.738624 0.698715
vt 0.801715 0.669916
vt 0.771249 0.669916
vt 0.771249 0.699362
vt 0.801715 0.714130
vt 0.771990 0.669137
vt 0.737491 0.669137
vt 0.737491 0.699604
vt 0.771990 0.699604
vt 0.738508 0.669133
vt 0.708042 0.669133
vt 0.708042 0.716424
vt 0.738508 0.699601
vt 0.801293 0.669809
vt 0.770827 0.669809
vt 0.770827 0.700277
vt 0.801293 0.717100
vt 0.771721 0.669393
vt 0.737221 0.669393
vt 0.737221 0.699861
vt 0.771721 0.699861
vt 0.738844 0.669344
vt 0.708379 0.669344
vt 0.708379 0.716635
vt 0.738844 0.699812
vt 0.800961 0.669809
vt 0.770495 0.669809
vt 0.770495 0.700277
vt 0.800961 0.717100
vt 0.606878 0.876976
vt 0.641377 0.876976
vt 0.720075 0.798279
vt 0.528181 0.798279
vt 0.641377 0.911476
vt 0.720075 0.990173
vt 0.606878 0.911476
vt 0.528181 0.990173
vt 0.982477 0.556338
vt 0.739443 0.556338
vt 0.739443 0.572073
vt 0.982477 0.572073
vt 0.252937 0.556180
vt 0.009902 0.556180
vt 0.009902 0.571914
vt 0.252937 0.571914
vt 0.253014 0.571967
vt 0.496049 0.571967
vt 0.496049 0.556233
vt 0.253014 0.556233
vt 0.739320 0.556201
vt 0.496285 0.556201
vt 0.496285 0.571935
vt 0.739320 0.571935
vt 0.746892 0.995896
vt 0.989166 0.995896
vt 0.973266 0.979995
vt 0.762794 0.979995
vt 0.989166 0.753621
vt 0.973266 0.769522
vt 0.746892 0.753621
vt 0.762794 0.769522
vt 0.261235 0.486574
vt 0.022558 0.486702
vt 0.022558 0.504417
vt 0.261236 0.504417
vt 0.499657 0.486717
vt 0.260979 0.486717
vt 0.260979 0.504432
vt 0.499657 0.504432
vt 0.500344 0.504449
vt 0.739021 0.504577
vt 0.739022 0.486733
vt 0.500344 0.486734
vt 0.978165 0.486856
vt 0.739489 0.486861
vt 0.739488 0.504555
vt 0.978166 0.504555
vt 0.019753 0.445146
vt 0.314146 0.445145
vt 0.314147 0.366573
vt 0.019753 0.366572
vt 0.019713 0.445434
vt 0.319301 0.445435
vt 0.319301 0.366861
vt 0.019712 0.366861
vt 0.024867 0.445460
vt 0.319261 0.445460
vt 0.319261 0.366887
vt 0.024868 0.366887
vt 0.019712 0.445396
vt 0.319301 0.445396
vt 0.319302 0.366823
vt 0.019712 0.366823
vt 0.261533 0.462419
vt 0.022855 0.462419
vt 0.022855 0.480605
vt 0.261533 0.480605
vt 0.500784 0.462526
vt 0.262106 0.462527
vt 0.262106 0.480712
vt 0.500784 0.480712
vt 0.501357 0.480252
vt 0.740035 0.480252
vt 0.740035 0.462066
vt 0.501357 0.462066
vt 0.979199 0.462207
vt 0.740522 0.462207
vt 0.740522 0.480393
vt 0.979199 0.480393
vt 0.412082 0.445465
vt 0.412082 0.366856
vt 0.379364 0.366856
vt 0.379364 0.445429
vt 0.345968 0.366869
vt 0.345968 0.445465
vt 0.378686 0.445442
vt 0.378686 0.366869
vt 0.379451 0.366994
vt 0.379451 0.445516
vt 0.412169 0.445516
vt 0.412169 0.367045
vt 0.378429 0.445516
vt 0.378429 0.366994
vt 0.345711 0.367045
vt 0.345711 0.445516
vt 0.409696 0.445320
vt 0.409696 0.366798
vt 0.379574 0.366798
vt 0.379574 0.445371
vt 0.348586 0.366856
vt 0.348586 0.445465
vt 0.378707 0.445429
vt 0.378707 0.366856
vt 0.409527 0.445372
vt 0.409527 0.366775
vt 0.379406 0.366775
vt 0.379406 0.445348
vt 0.348607 0.366781
vt 0.348607 0.445304
vt 0.378728 0.445355
vt 0.378728 0.366781
vt 0.521937 0.409376
vt 0.928944 0.409376
vt 0.928944 0.386402
vt 0.521937 0.386402
vt 0.343415 0.445267
vt 0.343415 0.366694
vt 0.326505 0.366694
vt 0.326505 0.445267
vt 0.929523 0.353353
vt 0.522515 0.353353
vt 0.522515 0.376327
vt 0.929523 0.376327
vt 0.430424 0.445578
vt 0.430424 0.367005
vt 0.413513 0.367005
vt 0.413513 0.445578
vt 0.521937 0.409662
vt 0.928944 0.409662
vt 0.928944 0.386688
vt 0.521937 0.386688
vt 0.327369 0.367004
vt 0.327369 0.445577
vt 0.344279 0.445577
vt 0.344279 0.367004
vt 0.520702 0.376936
vt 0.927709 0.376935
vt 0.927709 0.353962
vt 0.520702 0.353961
vt 0.414492 0.366870
vt 0.414492 0.445443
vt 0.431403 0.445443
vt 0.431403 0.366870
vt 0.344358 0.445365
vt 0.344358 0.366792
vt 0.326242 0.366792
vt 0.326242 0.445365
vt 0.413332 0.367010
vt 0.413332 0.445583
vt 0.431449 0.445583
vt 0.431449 0.367010
vt 0.522189 0.410229
vt 0.922139 0.410228
vt 0.922139 0.385616
vt 0.522189 0.385617
vt 0.344216 0.445222
vt 0.344216 0.366750
vt 0.326100 0.366750
vt 0.326100 0.445323
vt 0.521499 0.377334
vt 0.921448 0.377333
vt 0.921448 0.352721
vt 0.521499 0.352722
vt 0.413539 0.366935
vt 0.413539 0.445407
vt 0.431655 0.445508
vt 0.431655 0.366935
vt 0.992431 0.995723
vt 0.970243 0.973534
vt 0.770382 0.973534
vt 0.748195 0.995723
vt 0.992431 0.751486
vt 0.970243 0.773674
vt 0.967170 0.412560
vt 0.478321 0.412560
vt 0.460635 0.430246
vt 0.984856 0.430246
vt 0.967171 0.412322
vt 0.478321 0.412322
vt 0.460635 0.430008
vt 0.984857 0.430008
vt 0.967169 0.411697
vt 0.478321 0.411697
vt 0.460635 0.429383
vt 0.984856 0.429383
vt 0.967169 0.410184
vt 0.478320 0.410184
vt 0.460634 0.427870
vt 0.984856 0.427870
vt 0.478888 0.351476
vt 0.967736 0.351477
vt 0.985423 0.333790
vt 0.461202 0.333790
vt 0.481596 0.352536
vt 0.970445 0.352535
vt 0.988131 0.334849
vt 0.463910 0.334849
vt 0.481594 0.350297
vt 0.970444 0.350296
vt 0.988130 0.332610
vt 0.463908 0.332611
vt 0.022115 0.356134
vt 0.285779 0.356134
vt 0.285779 0.063355
vt 0.022115 0.063355
vt 0.021705 0.356134
vt 0.285599 0.356134
vt 0.285599 0.063355
vt 0.021705 0.063355
vt 0.285347 0.065003
vt 0.021683 0.065003
vt 0.021683 0.357782
vt 0.285347 0.357782
vt 0.021273 0.356462
vt 0.285167 0.356462
vt 0.285167 0.063683
vt 0.021273 0.063683
vt 0.409990 0.357036
vt 0.409990 0.064226
vt 0.384058 0.064226
vt 0.384058 0.357020
vt 0.356150 0.064423
vt 0.356150 0.357228
vt 0.382082 0.357217
vt 0.382082 0.064423
vt 0.409373 0.357264
vt 0.409373 0.064459
vt 0.383440 0.064459
vt 0.383440 0.357266
vt 0.355735 0.064418
vt 0.355735 0.357229
vt 0.381666 0.357225
vt 0.381666 0.064418
vt 0.381492 0.357265
vt 0.381492 0.064460
vt 0.355445 0.064460
vt 0.355445 0.357240
vt 0.383898 0.064460
vt 0.383898 0.357265
vt 0.409945 0.357240
vt 0.409945 0.064460
vt 0.383931 0.064418
vt 0.383931 0.357229
vt 0.409977 0.357229
vt 0.409977 0.064449
vt 0.381724 0.357177
vt 0.381724 0.064367
vt 0.355678 0.064397
vt 0.355678 0.357177
vt 0.958242 0.753296
vt 0.788441 0.753296
vt 0.788441 0.769488
vt 0.958242 0.769488
vt 0.353981 0.356760
vt 0.353981 0.063966
vt 0.328817 0.063966
vt 0.328817 0.356746
vt 0.037457 0.052335
vt 0.294710 0.052335
vt 0.294710 0.027804
vt 0.037457 0.027804
vt 0.436792 0.356915
vt 0.436792 0.064121
vt 0.411629 0.064135
vt 0.411629 0.356915
vt 0.810826 0.805151
vt 0.919491 0.805151
vt 0.919491 0.794789
vt 0.810826 0.794789
vt 0.329280 0.064459
vt 0.329280 0.357265
vt 0.354444 0.357265
vt 0.354444 0.064486
vt 0.294757 0.026870
vt 0.037505 0.026870
vt 0.037505 0.051401
vt 0.294757 0.051400
vt 0.412152 0.064459
vt 0.412152 0.357265
vt 0.437316 0.357238
vt 0.437316 0.064459
vt 0.810920 0.805545
vt 0.919491 0.805545
vt 0.919491 0.794938
vt 0.810920 0.794938
vt 0.354530 0.356944
vt 0.354530 0.064165
vt 0.328770 0.064165
vt 0.328770 0.356944
vt 0.037505 0.052367
vt 0.294533 0.052368
vt 0.294533 0.027256
vt 0.037505 0.027256
vt 0.411295 0.064165
vt 0.411295 0.356944
vt 0.437055 0.356944
vt 0.437055 0.064165
vt 0.919491 0.794831
vt 0.810920 0.794831
vt 0.810920 0.805439
vt 0.919491 0.805439
vt 0.354586 0.356944
vt 0.354586 0.064165
vt 0.328825 0.064165
vt 0.328825 0.356944
vt 0.294532 0.027508
vt 0.037505 0.027508
vt 0.037505 0.052621
vt 0.294532 0.052621
vt 0.411568 0.064214
vt 0.411568 0.356993
vt 0.437328 0.356993
vt 0.437328 0.064214
vt 0.984586 0.520700
vt 0.744026 0.520700
vt 0.744026 0.536302
vt 0.984586 0.536302
vt 0.262677 0.520655
vt 0.022088 0.520655
vt 0.022088 0.536257
vt 0.262677 0.536257
vt 0.262602 0.536285
vt 0.503161 0.536285
vt 0.503161 0.520683
vt 0.262602 0.520683
vt 0.744101 0.520680
vt 0.503512 0.520680
vt 0.503512 0.536282
vt 0.744101 0.536282
vt 0.841964 0.601110
vt 0.978381 0.601110
vt 0.994183 0.585298
vt 0.826163 0.585298
vt 0.978381 0.737527
vt 0.994183 0.753339
vt 0.841964 0.737527
vt 0.826163 0.753339
vt 0.717866 0.130564
vt 0.717866 0.170127
vt 0.734479 0.179158
vt 0.734479 0.144846
vt 0.025628 0.816543
vt 0.025628 0.828654
vt 0.333652 0.828654
vt 0.333652 0.816543
vt 0.717866 0.170161
vt 0.717866 0.130598
vt 0.701253 0.144879
vt 0.701253 0.179191
vt 0.025976 0.807896
vt 0.025976 0.824228
vt 0.333999 0.824228
vt 0.333999 0.807896
vt 0.025976 0.791564
vt 0.333999 0.791564
vt 0.734479 0.179191
vt 0.734479 0.144879
vt 0.333652 0.808668
vt 0.333652 0.796557
vt 0.025628 0.796556
vt 0.025628 0.808668
vt 0.701253 0.144845
vt 0.701253 0.179158
vt 0.872408 0.247324
vt 0.906064 0.230270
vt 0.333652 0.964601
vt 0.333652 0.828822
vt 0.025628 0.828822
vt 0.025628 0.964601
vt 0.529667 0.230304
vt 0.563324 0.247358
vt 0.025976 0.959823
vt 0.333999 0.959823
vt 0.025976 0.655968
vt 0.333999 0.655968
vt 0.906064 0.230304
vt 0.872408 0.247358
vt 0.333652 0.787950
vt 0.333652 0.652172
vt 0.025628 0.652171
vt 0.025628 0.787950
vt 0.563324 0.247324
vt 0.529667 0.230270
vt 0.344694 0.622881
vt 0.344694 0.791564
vt 0.353513 0.791564
vt 0.353513 0.622881
vt 0.353513 0.807896
vt 0.344694 0.807896
vt 0.353513 0.824228
vt 0.344694 0.824228
vt 0.353513 0.992910
vt 0.344694 0.992910
vt 0.342819 0.959823
vt 0.333999 0.992910
vt 0.342819 0.992910
vt 0.342819 0.824228
vt 0.342819 0.807896
vt 0.342819 0.791564
vt 0.342819 0.655968
vt 0.333999 0.622881
vt 0.342819 0.622881
vt 0.016176 0.655968
vt 0.016176 0.791564
vt 0.016176 0.807896
vt 0.016176 0.824228
vt 0.016176 0.959823
vt 0.025976 0.992910
vt 0.016176 0.992910
vt 0.014778 0.824228
vt 0.004979 0.824228
vt 0.004979 0.992910
vt 0.014778 0.992910
vt 0.014778 0.807896
vt 0.004979 0.807896
vt 0.014778 0.791564
vt 0.004979 0.791564
vt 0.004979 0.622881
vt 0.014778 0.622881
vt 0.025976 0.622881
vt 0.016176 0.622881
vt 0.722937 0.023429
vt 0.722937 0.043469
vt 0.717164 0.022864
vt 0.717164 0.042904
vt 0.717548 0.022798
vt 0.717548 0.042838
vt 0.722322 0.023499
vt 0.722322 0.043539
vt 0.025628 0.964870
vt 0.025628 0.981636
vt 0.333652 0.981636
vt 0.333652 0.964870
vt 0.784304 0.130301
vt 0.719437 0.074537
vt 0.719437 0.100807
vt 0.784304 0.148910
vt 0.719437 0.074416
vt 0.654570 0.130180
vt 0.654570 0.148789
vt 0.719437 0.100685
vt 0.654570 0.130300
vt 0.654570 0.148910
vt 0.784304 0.130179
vt 0.784304 0.148788
vt 0.333652 0.652179
vt 0.333652 0.635413
vt 0.025628 0.635413
vt 0.025628 0.652179
vt 0.640018 0.669569
vt 0.640018 0.669737
vt 0.677907 0.669737
vt 0.677907 0.669569
vt 0.556386 0.670022
vt 0.556218 0.670022
vt 0.556218 0.734632
vt 0.556379 0.734690
vt 0.599432 0.669919
vt 0.599264 0.669919
vt 0.599264 0.741050
vt 0.467183 0.990177
vt 0.467350 0.990343
vt 0.501514 0.990343
vt 0.501682 0.990175
vt 0.466760 0.990343
vt 0.466928 0.990175
vt 0.432428 0.990172
vt 0.432597 0.990343
vt 0.593946 0.669737
vt 0.593946 0.669569
vt 0.556056 0.669569
vt 0.556056 0.669737
vt 0.600018 0.675068
vt 0.599849 0.675069
vt 0.599849 0.739736
vt 0.398037 0.990176
vt 0.398204 0.990343
vt 0.432368 0.990343
vt 0.432536 0.990175
vt 0.555888 0.669737
vt 0.555888 0.740813
vt 0.556050 0.740868
vt 0.639126 0.669569
vt 0.639126 0.669737
vt 0.677014 0.669737
vt 0.677014 0.669569
vt 0.556241 0.669680
vt 0.556073 0.669680
vt 0.556073 0.734290
vt 0.556234 0.734347
vt 0.599661 0.670181
vt 0.599493 0.670181
vt 0.599493 0.741312
vt 0.363001 0.990175
vt 0.363170 0.990343
vt 0.397333 0.990343
vt 0.397501 0.990175
vt 0.594296 0.669680
vt 0.594296 0.669512
vt 0.556407 0.669512
vt 0.556407 0.669680
vt 0.633993 0.670181
vt 0.633824 0.670181
vt 0.633993 0.741312
vt 0.599076 0.674989
vt 0.598908 0.674989
vt 0.598908 0.739657
vt 0.633595 0.769256
vt 0.633763 0.769182
vt 0.599264 0.769182
vt 0.599432 0.769256
vt 0.599493 0.769444
vt 0.599661 0.769518
vt 0.633824 0.769518
vt 0.633993 0.769444
vt 0.634181 0.769864
vt 0.634349 0.769782
vt 0.599849 0.769782
vt 0.600018 0.769864
vt 0.633239 0.769785
vt 0.633407 0.769703
vt 0.598908 0.769703
vt 0.599076 0.769785
vt 0.501682 0.599223
vt 0.467183 0.599223
vt 0.397501 0.599223
vt 0.363001 0.599223
vt 0.432536 0.599223
vt 0.398036 0.599223
vt 0.466928 0.599223
vt 0.432428 0.599223
vt 0.593946 0.768865
vt 0.633595 0.669919
vt 0.640018 0.768865
vt 0.677914 0.740868
vt 0.639126 0.768865
vt 0.677021 0.740868
vt 0.556400 0.740812
vt 0.594296 0.768809
vt 0.594130 0.669680
vt 0.594130 0.764261
vt 0.634181 0.675068
vt 0.678092 0.669679
vt 0.640203 0.669679
vt 0.640203 0.764261
vt 0.678099 0.734347
vt 0.594275 0.670022
vt 0.594275 0.764603
vt 0.633239 0.674989
vt 0.678237 0.670022
vt 0.640348 0.670022
vt 0.640348 0.764603
vt 0.678244 0.734690
vt 0.853002 0.861031
vt 0.853171 0.861175
vt 0.853314 0.861031
vt 0.853171 0.860863
vt 0.887838 0.861031
vt 0.887670 0.860863
vt 0.887526 0.861031
vt 0.887670 0.861175
vt 0.887838 0.895530
vt 0.887670 0.895387
vt 0.887526 0.895530
vt 0.887670 0.895699
vt 0.853002 0.895530
vt 0.853171 0.895699
vt 0.853314 0.895530
vt 0.853171 0.895387
vt 0.922720 0.412560
vt 0.922720 0.387948
vt 0.522770 0.387948
vt 0.522770 0.412560
vt 0.523337 0.351476
vt 0.523337 0.376088
vt 0.923287 0.376089
vt 0.923287 0.351476
vt 0.970444 0.353353
vt 0.988130 0.335666
vt 0.463908 0.335666
vt 0.481594 0.353353
vt 0.748195 0.751486
vt 0.770382 0.773674
vt 0.025628 0.821228
vt 0.333652 0.821228
vt 0.333652 0.808415
vt 0.025628 0.808415
vt 0.025628 0.801242
vt 0.333652 0.801242
vt 0.333652 0.788429
vt 0.025628 0.788429
vt 0.887670 0.761735
vt 0.887502 0.761526
vt 0.853339 0.761526
vt 0.853171 0.761735
vt 0.982419 0.895530
vt 0.982633 0.895362
vt 0.982633 0.861199
vt 0.982419 0.861031
vt 0.853171 0.994827
vt 0.853339 0.995036
vt 0.887502 0.995036
vt 0.887670 0.994827
vt 0.758421 0.861031
vt 0.758207 0.861199
vt 0.758207 0.895362
vt 0.758421 0.895530
vt 0.467183 0.990343
vt 0.467183 0.990343
vt 0.467183 0.990343
vt 0.398036 0.990343
vt 0.398036 0.990343
vt 0.398036 0.990343
vt 0.363001 0.990343
vt 0.363001 0.990343
vt 0.363001 0.990343
vt 0.397501 0.990343
vt 0.397501 0.990343
vt 0.397501 0.990343
vt 0.522770 0.412560
vt 0.523337 0.351476
vt 0.599076 0.769785
vt 0.600018 0.769864
vt 0.523337 0.351476
vt 0.522770 0.412560
vt 0.522770 0.412560
vt 0.556407 0.669680
vt 0.594296 0.669680
vt 0.363170 0.990343
vt 0.556056 0.669737
vt 0.556056 0.669737
vt 0.593946 0.669737
vt 0.342819 0.655968
vt 0.016176 0.655968
vt 0.016176 0.959823
vt 0.342819 0.959823
vt 0.333999 0.655968
vt 0.333652 0.796557
vt 0.467183 0.990177
vt 0.025976 0.655968
vt 0.353513 0.807896
vt 0.333999 0.807896
vt 0.025976 0.959823
vt 0.344694 0.807896
vt 0.342819 0.807896
vt 0.333999 0.959823
vt 0.599661 0.769518
vt 0.556234 0.734347
vt 0.556379 0.734690
vt 0.640018 0.669737
vt 0.478888 0.351476
vt 0.478321 0.412560
vt 0.967170 0.412560
vt 0.967736 0.351477
vt 0.922720 0.412560
vt 0.004979 0.807896
vt 0.025976 0.807896
vt 0.633824 0.670181
vt 0.363001 0.990175
vt 0.556241 0.669680
vt 0.025628 0.796556
vt 0.025628 0.816543
vt 0.333652 0.816543
vt 0.016176 0.807896
vt 0.014778 0.807896
vn 0.866025 -0.000002 0.500000
vn 0.866025 -0.000002 0.500000
vn 0.866025 -0.000002 0.500000
vn -0.866026 0.000000 -0.500000
vn -0.866026 -0.000005 -0.500000
vn -0.866025 0.000000 -0.500000
vn 0.866026 0.000001 0.499999
vn 0.866026 0.000002 0.499999
vn 0.866026 -0.000000 0.499999
vn -0.866025 -0.000005 -0.500001
vn -0.866025 0.000001 -0.500001
vn -0.866025 0.000002 -0.500001
vn 0.866026 -0.000001 0.499999
vn 0.866026 0.000007 0.499999
vn 0.866026 -0.000001 0.500000
vn -0.866025 0.000001 -0.500000
vn -0.866025 0.000001 -0.500000
vn -0.866025 0.000001 -0.500000
vn 0.696437 0.598012 0.396684
vn 0.501724 0.003371 -0.865021
vn 0.006099 0.999953 -0.007498
vn 0.693476 0.595251 0.405916
vn 0.000147 0.999996 0.002807
vn -0.497916 0.010638 0.867160
vn -0.690496 0.596153 -0.409654
vn -0.000139 0.999996 -0.002801
vn 0.230995 0.674758 -0.700958
vn -0.667347 0.585562 0.460179
vn -0.006081 0.999953 0.007507
vn -0.696468 0.596175 -0.399384
vn 0.387012 0.623103 -0.679679
vn -0.450497 0.588734 -0.671152
vn -0.007446 0.999953 -0.006183
vn 0.396222 0.620555 -0.676697
vn 0.002849 0.999996 -0.000237
vn 0.705338 0.673250 0.221883
vn -0.387019 0.623101 0.679677
vn 0.450476 0.588746 0.671155
vn 0.007437 0.999953 0.006179
vn -0.396225 0.620555 0.676696
vn -0.002858 0.999996 0.000233
vn -0.705350 0.673224 -0.221926
vn -0.779303 -0.436176 -0.449931
vn -0.779303 -0.436177 -0.449930
vn -0.779303 -0.436176 -0.449931
vn -0.779303 -0.436175 -0.449932
vn 0.437702 -0.483399 -0.758118
vn 0.437703 -0.483398 -0.758118
vn 0.437702 -0.483399 -0.758118
vn 0.437701 -0.483400 -0.758118
vn 0.779303 -0.436176 0.449931
vn 0.779303 -0.436176 0.449931
vn 0.779303 -0.436176 0.449931
vn 0.779303 -0.436176 0.449931
vn -0.437699 -0.483399 0.758120
vn -0.437699 -0.483399 0.758120
vn -0.437699 -0.483399 0.758120
vn -0.437699 -0.483399 0.758120
vn 0.499999 0.000000 -0.866026
vn 0.499999 0.000000 -0.866026
vn 0.499999 0.000000 -0.866026
vn 0.499999 0.000000 -0.866026
vn 0.000000 -1.000000 -0.000000
vn 0.000000 -1.000000 -0.000000
vn 0.000000 -1.000000 -0.000000
vn 0.000000 -1.000000 -0.000000
vn -0.499999 -0.000000 0.866026
vn -0.499999 -0.000000 0.866026
vn -0.499999 -0.000000 0.866026
vn -0.499999 -0.000001 0.866026
vn 0.000000 -1.000000 -0.000000
vn 0.000000 -1.000000 -0.000000
vn 0.000000 -1.000000 -0.000000
vn 0.000000 -1.000000 -0.000000
vn 0.499999 -0.000000 -0.866026
vn 0.499999 0.000000 -0.866026
vn 0.499999 -0.000000 -0.866026
vn 0.499999 -0.000000 -0.866026
vn -0.499999 0.000000 0.866026
vn -0.499999 -0.000000 0.866026
vn -0.499999 0.000000 0.866026
vn -0.499999 0.000000 0.866026
vn 0.000004 -1.000000 0.000002
vn 0.000004 -1.000000 0.000002
vn 0.000004 -1.000000 0.000002
vn 0.000004 -1.000000 0.000002
vn -0.866025 0.000000 -0.500000
vn -0.866025 0.000000 -0.500000
vn -0.866025 0.000000 -0.500000
vn -0.866025 0.000000 -0.500000
vn 0.866025 -0.000000 0.500000
vn 0.866025 -0.000000 0.500000
vn 0.866025 -0.000000 0.500000
vn 0.866025 -0.000000 0.500000
vn 0.000004 -1.000000 0.000002
vn 0.000004 -1.000000 0.000002
vn 0.000004 -1.000000 0.000002
vn 0.000004 -1.000000 0.000002
vn 0.866025 0.000001 0.500000
vn 0.866025 -0.000000 0.500001
vn 0.866025 0.000001 0.500000
vn 0.866025 0.000001 0.500000
vn -0.866025 0.000000 -0.500000
vn -0.866025 0.000000 -0.500001
vn -0.866025 0.000000 -0.500000
vn -0.866025 0.000001 -0.500000
vn 0.000000 -1.000000 -0.000000
vn 0.000000 -1.000000 -0.000000
vn 0.000000 -1.000000 -0.000000
vn 0.000000 -1.000000 -0.000000
vn 0.000000 -1.000000 -0.000000
vn 0.000000 -1.000000 -0.000000
vn 0.000000 -1.000000 -0.000000
vn 0.000000 -1.000000 -0.000000
vn 0.866025 -0.000000 0.500000
vn 0.866025 -0.000000 0.500000
vn 0.866025 -0.000000 0.500000
vn 0.866025 -0.000000 0.500000
vn 0.500000 0.000000 -0.866025
vn 0.500000 0.000000 -0.866025
vn 0.500000 0.000000 -0.866025
vn 0.500000 0.000000 -0.866025
vn -0.866025 0.000000 -0.500000
vn -0.866025 0.000000 -0.500000
vn -0.866025 0.000000 -0.500000
vn -0.866025 0.000000 -0.500000
vn -0.500000 -0.000000 0.866025
vn -0.500000 -0.000000 0.866025
vn -0.500000 -0.000000 0.866025
vn -0.500000 -0.000000 0.866025
vn 0.000000 1.000000 0.000000
vn 0.000000 1.000000 0.000000
vn 0.000000 1.000000 0.000000
vn 0.000000 1.000000 0.000000
vn 0.000000 1.000000 0.000000
vn 0.000000 1.000000 0.000000
vn 0.000000 1.000000 0.000000
vn 0.000000 1.000000 0.000000
vn 0.866025 -0.000000 0.500000
vn 0.866025 -0.000000 0.500000
vn 0.866025 -0.000000 0.500000
vn 0.866025 -0.000000 0.500000
vn 0.500000 0.000000 -0.866025
vn 0.500000 0.000000 -0.866025
vn 0.500000 0.000000 -0.866025
vn 0.500000 0.000000 -0.866025
vn -0.866026 0.000000 -0.500000
vn -0.866026 0.000000 -0.500000
vn -0.866026 0.000000 -0.500000
vn -0.866026 0.000000 -0.500000
vn -0.500000 -0.000000 0.866025
vn -0.500000 -0.000000 0.866025
vn -0.500000 -0.000000 0.866025
vn -0.500000 -0.000000 0.866025
vn 0.866026 -0.000000 0.500000
vn 0.866026 -0.000000 0.500000
vn 0.866026 -0.000000 0.500000
vn 0.866026 -0.000000 0.500000
vn 0.500000 0.000000 -0.866025
vn 0.500000 0.000000 -0.866025
vn 0.500000 0.000000 -0.866025
vn 0.500000 0.000000 -0.866025
vn -0.866025 0.000000 -0.500000
vn -0.866025 0.000000 -0.500000
vn -0.866025 0.000000 -0.500000
vn -0.866025 0.000000 -0.500000
vn -0.500000 -0.000000 0.866025
vn -0.500000 -0.000000 0.866025
vn -0.500000 -0.000000 0.866025
vn -0.500000 -0.000000 0.866025
vn 0.866025 -0.000000 0.500000
vn 0.866025 -0.000000 0.500000
vn 0.866025 -0.000000 0.500000
vn 0.866025 -0.000000 0.500000
vn 0.500000 0.000000 -0.866025
vn 0.500000 0.000000 -0.866025
vn 0.500000 0.000000 -0.866025
vn 0.500000 0.000000 -0.866025
vn -0.866026 0.000000 -0.500000
vn -0.866026 0.000000 -0.500000
vn -0.866026 0.000000 -0.500000
vn -0.866026 0.000000 -0.500000
vn -0.500000 -0.000000 0.866025
vn -0.500000 -0.000000 0.866025
vn -0.500000 -0.000000 0.866025
vn -0.500000 -0.000000 0.866025
vn 0.866024 0.000003 0.500002
vn 0.866024 -0.000000 0.500002
vn 0.866024 -0.000000 0.500002
vn 0.866024 0.000005 0.500002
vn 0.866024 -0.000000 0.500002
vn 0.866024 -0.000000 0.500002
vn 0.866024 -0.000000 0.500002
vn 0.866024 -0.000000 0.500002
vn -0.866027 0.000000 -0.499998
vn -0.866027 0.000000 -0.499998
vn -0.866027 0.000000 -0.499998
vn -0.866027 0.000000 -0.499998
vn -0.866027 0.000000 -0.499998
vn -0.866027 0.000000 -0.499998
vn -0.866027 0.000000 -0.499998
vn -0.866027 0.000000 -0.499998
vn 0.500000 0.000000 -0.866025
vn 0.500000 0.000000 -0.866025
vn 0.500000 0.000000 -0.866025
vn 0.500000 0.000000 -0.866025
vn 0.500004 0.000000 -0.866023
vn 0.500004 0.000000 -0.866023
vn 0.500004 0.000000 -0.866023
vn 0.500004 0.000000 -0.866023
vn -0.499999 -0.000000 0.866026
vn -0.499999 -0.000000 0.866026
vn -0.499999 -0.000000 0.866026
vn -0.499999 -0.000000 0.866026
vn -0.500002 -0.000000 0.866024
vn -0.500002 -0.000000 0.866024
vn -0.500002 -0.000000 0.866024
vn -0.500002 -0.000000 0.866024
vn 0.000000 1.000000 0.000000
vn 0.000000 1.000000 0.000000
vn 0.000000 1.000000 0.000000
vn 0.000000 1.000000 0.000000
vn 0.866025 -0.000000 0.500001
vn 0.866025 -0.000000 0.500001
vn 0.866025 -0.000000 0.500001
vn 0.866025 -0.000000 0.500001
vn 0.000000 -1.000000 -0.000000
vn 0.000000 -1.000000 -0.000000
vn 0.000000 -1.000000 -0.000000
vn 0.000000 -1.000000 -0.000000
vn -0.866026 0.000000 -0.499999
vn -0.866026 0.000000 -0.499999
vn -0.866026 0.000000 -0.499999
vn -0.866026 0.000000 -0.499999
vn 0.000000 1.000000 0.000000
vn 0.000000 1.000000 0.000000
vn 0.000000 1.000000 0.000000
vn 0.000000 1.000000 0.000000
vn -0.866026 0.000000 -0.499999
vn -0.866026 0.000000 -0.499999
vn -0.866026 0.000000 -0.499999
vn -0.866026 0.000000 -0.499999
vn 0.000000 -1.000000 -0.000000
vn 0.000000 -1.000000 -0.000000
vn 0.000000 -1.000000 -0.000000
vn 0.000000 -1.000000 -0.000000
vn 0.866027 -0.000000 0.499996
vn 0.866027 -0.000000 0.499996
vn 0.866027 -0.000000 0.499996
vn 0.866027 -0.000000 0.499996
vn -0.499995 -0.000000 0.866028
vn -0.499995 -0.000000 0.866028
vn -0.499995 -0.000000 0.866028
vn -0.499995 -0.000000 0.866028
vn 0.500007 0.000000 -0.866022
vn 0.500007 0.000000 -0.866022
vn 0.500007 0.000000 -0.866022
vn 0.500007 0.000000 -0.866022
vn 0.004849 0.999984 0.002799
vn 0.004849 0.999984 0.002799
vn 0.004849 0.999984 0.002799
vn 0.004849 0.999984 0.002799
vn 0.499998 0.000000 -0.866026
vn 0.499998 0.000000 -0.866026
vn 0.499998 0.000000 -0.866026
vn 0.499998 0.000000 -0.866026
vn 0.000000 -1.000000 -0.000000
vn 0.000000 -1.000000 -0.000000
vn 0.000000 -1.000000 -0.000000
vn 0.000000 -1.000000 -0.000000
vn -0.500003 -0.000000 0.866023
vn -0.500003 -0.000000 0.866023
vn -0.500003 -0.000000 0.866023
vn -0.500003 -0.000000 0.866023
vn -0.000538 1.000000 -0.000011
vn -0.000480 1.000000 0.000367
vn -0.000331 1.000000 -0.000447
vn 0.000032 1.000000 -0.000585
vn 0.000179 1.000000 0.000571
vn 0.000151 1.000000 0.000610
vn 0.866024 0.000003 0.500002
vn -0.000786 1.000000 0.000354
vn -0.000997 0.999999 -0.001294
vn -0.000576 1.000000 -0.000754
vn -0.000845 0.999999 -0.000918
vn -0.001759 0.999998 0.000112
vn -0.000576 1.000000 -0.000754
vn -0.001561 0.999996 -0.002437
vn -0.002889 0.999996 -0.000124
vn -0.000845 0.999999 -0.000918
vn -0.001561 0.999996 -0.002437
vn -0.001443 0.999999 -0.000030
vn -0.000786 1.000000 0.000354
vn -0.002889 0.999996 -0.000124
vn -0.001443 0.999999 -0.000030
vn -0.000997 0.999999 -0.001294
vn 0.000000 -1.000000 -0.000000
vn 0.000000 -1.000000 -0.000000
vn 0.000000 -1.000000 -0.000000
vn 0.000000 -1.000000 -0.000000
vn 0.000000 -1.000000 -0.000000
vn 0.000000 -1.000000 -0.000000
vn 0.000000 -1.000000 -0.000000
vn 0.000000 -1.000000 -0.000000
vn 0.000000 -1.000000 -0.000000
vn 0.000000 -1.000000 -0.000000
vn 0.000000 -1.000000 -0.000000
vn 0.000000 -1.000000 -0.000000
vn 0.866026 -0.000000 0.500000
vn 0.866026 -0.000000 0.500000
vn 0.866026 -0.000000 0.500000
vn 0.866026 -0.000000 0.500000
vn 0.500000 0.000000 -0.866025
vn 0.500000 0.000000 -0.866025
vn 0.500000 0.000000 -0.866025
vn 0.500000 0.000000 -0.866025
vn -0.866025 0.000000 -0.500000
vn -0.866025 0.000000 -0.500000
vn -0.866025 0.000000 -0.500000
vn -0.866025 0.000000 -0.500000
vn -0.500000 -0.000000 0.866025
vn -0.500000 -0.000000 0.866025
vn -0.500000 -0.000000 0.866025
vn -0.500000 -0.000000 0.866025
vn 0.500001 0.000000 -0.866025
vn 0.500001 0.000000 -0.866025
vn 0.500001 0.000000 -0.866025
vn 0.500001 0.000000 -0.866025
vn 0.500002 0.000000 -0.866024
vn 0.500002 0.000000 -0.866024
vn 0.500002 0.000000 -0.866024
vn 0.500002 0.000000 -0.866024
vn -0.500003 -0.000000 0.866024
vn -0.500003 -0.000000 0.866024
vn -0.500003 -0.000000 0.866024
vn -0.500003 -0.000000 0.866024
vn -0.499993 -0.000000 0.866029
vn -0.499993 -0.000000 0.866029
vn -0.499993 -0.000000 0.866029
vn -0.499993 -0.000000 0.866029
vn 0.866024 -0.000000 0.500003
vn 0.866024 -0.000000 0.500002
vn 0.866024 -0.000000 0.500003
vn 0.866024 -0.000000 0.500003
vn 0.866025 -0.000000 0.500001
vn 0.866025 -0.000000 0.500001
vn 0.866025 -0.000000 0.500001
vn 0.866025 -0.000000 0.500001
vn -0.866025 0.000000 -0.500000
vn -0.866025 0.000000 -0.500000
vn -0.866025 0.000000 -0.500000
vn -0.866025 0.000000 -0.500000
vn -0.866026 0.000000 -0.499999
vn -0.866026 0.000000 -0.499999
vn -0.866026 0.000000 -0.499999
vn -0.866026 0.000000 -0.499999
vn 0.000284 1.000000 -0.000491
vn 0.000284 1.000000 -0.000491
vn 0.000284 1.000000 -0.000491
vn 0.000284 1.000000 -0.000491
vn 0.866022 -0.000000 0.500005
vn 0.866022 -0.000000 0.500005
vn 0.866022 -0.000000 0.500005
vn 0.866022 -0.000000 0.500005
vn 0.000000 -1.000000 -0.000000
vn 0.000000 -1.000000 -0.000000
vn 0.000000 -1.000000 -0.000000
vn 0.000000 -1.000000 -0.000000
vn -0.866023 0.000000 -0.500003
vn -0.866023 0.000000 -0.500003
vn -0.866023 0.000000 -0.500003
vn -0.866023 0.000000 -0.500003
vn -0.000541 0.999999 0.000937
vn -0.000541 0.999999 0.000937
vn -0.000541 0.999999 0.000937
vn -0.000541 0.999999 0.000937
vn -0.866027 0.000000 -0.499997
vn -0.866027 0.000000 -0.499997
vn -0.866027 0.000000 -0.499997
vn -0.866027 0.000000 -0.499997
vn 0.000000 -1.000000 -0.000000
vn 0.000000 -1.000000 -0.000000
vn 0.000000 -1.000000 -0.000000
vn 0.000000 -1.000000 -0.000000
vn 0.866025 -0.000000 0.500001
vn 0.866025 -0.000000 0.500001
vn 0.866025 -0.000000 0.500001
vn 0.866025 -0.000000 0.500001
vn 0.000000 1.000000 0.000000
vn 0.000000 1.000000 0.000000
vn 0.000000 1.000000 0.000000
vn 0.000000 1.000000 0.000000
vn -0.499998 -0.000000 0.866026
vn -0.499998 -0.000000 0.866026
vn -0.499998 -0.000000 0.866026
vn -0.499998 -0.000000 0.866026
vn 0.000000 -1.000000 -0.000000
vn 0.000000 -1.000000 -0.000000
vn 0.000000 -1.000000 -0.000000
vn 0.000000 -1.000000 -0.000000
vn 0.500002 0.000000 -0.866024
vn 0.500002 0.000000 -0.866024
vn 0.500002 0.000000 -0.866024
vn 0.500002 0.000000 -0.866024
vn 0.000000 1.000000 0.000000
vn 0.000000 1.000000 0.000000
vn 0.000000 1.000000 0.000000
vn 0.000000 1.000000 0.000000
vn 0.500000 0.000000 -0.866025
vn 0.500000 0.000000 -0.866025
vn 0.500000 0.000000 -0.866025
vn 0.500000 0.000000 -0.866025
vn 0.000000 -1.000000 -0.000000
vn 0.000000 -1.000000 -0.000000
vn 0.000000 -1.000000 -0.000000
vn 0.000000 -1.000000 -0.000000
vn -0.500004 -0.000000 0.866023
vn -0.500004 -0.000000 0.866023
vn -0.500004 -0.000000 0.866023
vn -0.500004 -0.000000 0.866023
vn 0.866025 -0.000000 0.500000
vn 0.866025 -0.000000 0.500000
vn 0.866025 -0.000000 0.500000
vn 0.866025 -0.000000 0.500000
vn 0.500000 0.000000 -0.866025
vn 0.500000 0.000000 -0.866025
vn 0.500000 0.000000 -0.866025
vn 0.500000 0.000000 -0.866025
vn -0.866025 0.000000 -0.500000
vn -0.866025 0.000000 -0.500000
vn -0.866025 0.000000 -0.500000
vn -0.866025 0.000000 -0.500000
vn -0.500000 -0.000000 0.866026
vn -0.500000 -0.000000 0.866026
vn -0.500000 -0.000000 0.866026
vn -0.500000 -0.000000 0.866026
vn 0.000000 -1.000000 -0.000000
vn 0.000000 -1.000000 -0.000000
vn 0.000000 -1.000000 -0.000000
vn 0.000000 -1.000000 -0.000000
vn 0.000000 -1.000000 -0.000000
vn 0.000000 -1.000000 -0.000000
vn 0.000000 -1.000000 -0.000000
vn 0.000000 -1.000000 -0.000000
vn 0.866025 -0.000000 0.500001
vn 0.866024 -0.000000 0.500002
vn 0.866026 -0.000000 0.500000
vn 0.866025 -0.000001 0.500000
vn 0.297830 0.803236 -0.515857
vn 0.297830 0.803236 -0.515857
vn 0.297830 0.803236 -0.515857
vn 0.297830 0.803236 -0.515857
vn -0.866026 0.000000 -0.499998
vn -0.866027 0.000000 -0.499998
vn -0.866025 0.000000 -0.500000
vn -0.866025 0.000001 -0.500001
vn -0.238785 -0.878594 0.413588
vn -0.222583 -0.895448 0.385525
vn -0.224962 -0.893067 0.389645
vn -0.238785 -0.878594 0.413588
vn 0.224838 -0.893192 -0.389430
vn 0.222552 -0.895479 -0.385471
vn -0.866025 0.000000 -0.500000
vn -0.866025 0.000000 -0.500000
vn -0.297829 0.803239 0.515855
vn -0.297829 0.803239 0.515854
vn -0.297829 0.803239 0.515855
vn -0.297829 0.803238 0.515855
vn 0.866026 -0.000001 0.500000
vn 0.866025 -0.000000 0.500000
vn 0.866025 -0.000001 0.500000
vn 0.866025 -0.000002 0.500001
vn 0.232115 0.885715 -0.402035
vn 0.232115 0.885714 -0.402035
vn 0.232115 0.885715 -0.402035
vn 0.232115 0.885715 -0.402035
vn -0.866025 0.000001 -0.500001
vn -0.866025 0.000003 -0.500001
vn -0.221530 -0.896491 0.383702
vn -0.221531 -0.896491 0.383702
vn 0.221531 -0.896491 -0.383702
vn 0.221530 -0.896492 -0.383702
vn -0.866025 0.000000 -0.500000
vn -0.866025 0.000000 -0.500000
vn -0.232116 0.885714 0.402036
vn -0.232116 0.885714 0.402036
vn -0.232116 0.885714 0.402036
vn -0.232116 0.885714 0.402036
vn 0.866026 -0.000001 0.499999
vn 0.866026 -0.000001 0.499999
vn -0.222837 0.895194 0.385968
vn -0.243147 0.873789 0.421157
vn -0.228769 0.889188 0.396244
vn -0.222842 0.895194 0.385965
vn -0.325944 0.758313 0.564554
vn -0.325950 0.758312 0.564553
vn 0.243151 0.873788 -0.421155
vn 0.228772 0.889188 -0.396242
vn 0.222839 0.895194 -0.385966
vn 0.222843 0.895194 -0.385964
vn 0.226004 -0.892014 -0.391449
vn 0.226004 -0.892014 -0.391449
vn 0.226009 -0.892014 -0.391447
vn -0.222539 -0.895492 0.385448
vn -0.238789 -0.878593 0.413586
vn 0.223432 -0.894598 -0.387003
vn 0.221530 -0.896492 -0.383702
vn -0.226005 -0.892014 0.391449
vn -0.226007 -0.892014 0.391447
vn 0.221531 -0.896492 -0.383702
vn 0.224965 -0.893067 -0.389644
vn 0.238788 -0.878593 -0.413588
vn -0.222537 -0.895492 0.385449
vn -0.221532 -0.896492 0.383701
vn 0.226002 -0.892015 -0.391449
vn 0.226001 -0.892014 -0.391451
vn 0.228771 0.889188 -0.396242
vn 0.243156 0.873788 -0.421152
vn 0.222838 0.895194 -0.385967
vn 0.222836 0.895194 -0.385968
vn 0.325949 0.758312 -0.564553
vn 0.325949 0.758312 -0.564553
vn -0.234077 0.883649 0.405430
vn -0.234078 0.883649 0.405429
vn -0.222840 0.895194 0.385967
vn -0.222838 0.895194 0.385967
vn -0.226002 -0.892015 0.391449
vn -0.226003 -0.892015 0.391449
vn 0.866025 -0.000000 0.500000
vn 0.866026 0.000002 0.499999
vn -0.866025 0.000002 -0.500001
vn -0.866026 0.000000 -0.499999
vn 0.866026 -0.000002 0.500000
vn 0.866025 -0.000000 0.500000
vn -0.866025 0.000000 -0.500000
vn -0.866025 0.000001 -0.500000
vn 0.499970 -0.010940 -0.865974
vn 0.499970 -0.010935 -0.865974
vn 0.499970 -0.010940 -0.865974
vn 0.499970 -0.010945 -0.865974
vn 0.866026 -0.000000 0.499999
vn 0.866025 -0.000000 0.500000
vn 0.866026 -0.000000 0.500000
vn 0.866026 -0.000000 0.499999
vn -0.866025 0.000000 -0.500000
vn -0.866026 0.000000 -0.499999
vn -0.866026 0.000000 -0.499999
vn -0.866025 0.000000 -0.500000
vn 0.866025 -0.000000 0.500001
vn 0.866025 -0.000000 0.500001
vn -0.866025 0.000000 -0.500001
vn -0.866025 0.000000 -0.500001
vn -0.499970 -0.010930 0.865974
vn -0.499970 -0.010933 0.865973
vn -0.499970 -0.010930 0.865974
vn -0.499970 -0.010927 0.865974
vn 0.864970 -0.000001 0.501824
vn 0.258967 -0.000000 0.965886
vn -0.498290 0.001850 0.867009
vn 0.864686 0.008920 0.502234
vn 0.864686 0.008920 0.502234
vn 0.610322 0.705186 0.360859
vn 0.007437 0.999953 0.006179
vn 0.450476 0.588746 0.671155
vn -0.002723 0.999951 0.009505
vn -0.498290 0.001850 0.867009
vn -0.497916 0.010638 0.867160
vn 0.866026 0.000428 0.500000
vn -0.002723 0.999951 0.009505
vn 0.002067 0.999997 0.001187
vn 0.834514 0.000578 -0.550987
vn -0.353601 0.707019 0.612446
vn -0.500003 0.000430 0.866024
vn -0.834514 0.000578 0.550986
vn -0.357412 0.705366 0.612140
vn 0.966002 0.000000 -0.258534
vn 0.866911 -0.000000 0.498463
vn 0.867086 0.000009 0.498158
vn 0.966546 0.006179 -0.256420
vn 0.009555 0.999951 0.002520
vn 0.612328 0.707115 0.353614
vn 0.705338 0.673250 0.221883
vn 0.834514 0.000578 -0.550987
vn 0.009555 0.999951 0.002520
vn 0.001300 0.999997 -0.002262
vn 0.500001 0.000430 -0.866025
vn 0.353635 0.707016 -0.612430
vn 0.006099 0.999953 -0.007498
vn 0.501724 0.003371 -0.865021
vn -0.258805 0.000000 -0.965929
vn 0.498532 0.000000 -0.866871
vn 0.498291 0.001851 -0.867008
vn -0.576959 0.612955 -0.539819
vn -0.576959 0.612955 -0.539819
vn -0.610332 0.705175 -0.360865
vn -0.007446 0.999953 -0.006183
vn -0.450497 0.588734 -0.671152
vn 0.004757 0.999954 -0.008354
vn 0.498291 0.001851 -0.867008
vn 0.230995 0.674758 -0.700958
vn -0.866026 0.000428 -0.499999
vn 0.004757 0.999954 -0.008354
vn -0.614040 0.706174 -0.352524
vn -0.834514 0.000578 0.550986
vn -0.965929 -0.000000 0.258805
vn -0.866912 0.000000 -0.498462
vn -0.867086 0.000009 -0.498158
vn -0.966474 0.006181 0.256689
vn -0.348809 0.716430 0.604202
vn -0.353585 0.707081 0.612384
vn -0.667347 0.585562 0.460179
vn -0.008276 0.999954 -0.004779
vn -0.612322 0.707122 -0.353611
vn -0.705350 0.673224 -0.221926
vn 0.698871 0.594318 0.397953
vn 0.501464 0.001252 -0.865178
vn 0.149992 0.425677 0.892357
vn 0.694023 0.594317 0.406349
vn -0.149938 0.425654 -0.892377
vn -0.138788 0.420216 -0.896748
vn -0.701222 0.594298 -0.393824
vn -0.846113 0.420244 0.327853
vn 0.388261 0.619694 -0.682079
vn -0.334608 0.438243 -0.834254
vn 0.885232 0.444081 -0.138403
vn 0.889869 0.438188 -0.126982
vn -0.388264 0.619694 0.682078
vn 0.334773 0.438158 0.834233
vn -0.885279 0.444025 0.138289
vn -0.889848 0.438216 0.127029
vn 0.866026 -0.000000 0.500000
vn 0.866026 -0.000000 0.500000
vn -0.866026 0.000000 -0.499999
vn -0.866026 0.000000 -0.499999
vn 0.500001 0.000000 -0.866025
vn 0.500001 0.000000 -0.866025
vn -0.500003 -0.000000 0.866024
vn -0.500003 -0.000000 0.866024
vn 0.501464 0.001252 -0.865178
vn 0.002067 0.999997 0.001187
vn -0.500000 -0.000001 0.866026
vn -0.497916 0.010638 0.867160
vn 0.500000 -0.000000 -0.866026
vn 0.500000 -0.000001 -0.866025
vn -0.499999 -0.000001 0.866026
vn -0.500000 -0.000001 0.866026
vn -0.866025 0.000000 -0.500000
vn -0.866025 0.000000 -0.500000
vn 0.001300 0.999997 -0.002262
vn 0.867086 0.000009 0.498158
vn 0.866911 -0.000000 0.498463
vn 0.866025 -0.000000 0.500000
vn 0.866025 -0.000001 0.500000
vn 0.864970 -0.000001 0.501824
vn 0.866025 -0.000002 0.500000
vn -0.000004 1.000000 -0.000002
vn -0.867086 0.000009 -0.498158
vn -0.866912 0.000000 -0.498462
vn -0.866025 -0.000000 -0.500000
vn -0.866025 -0.000001 -0.500000
vn 0.000000 -1.000000 -0.000000
vn 0.000000 -1.000000 -0.000000
vn 0.000000 -1.000000 -0.000000
vn 0.000000 -1.000000 -0.000000
vn 0.000000 -1.000000 -0.000000
vn 0.000000 -1.000000 -0.000000
vn 0.000000 -1.000000 -0.000000
vn 0.000000 -1.000000 -0.000000
vn 0.000000 -1.000000 -0.000000
vn 0.000000 -1.000000 -0.000000
vn 0.000000 -1.000000 -0.000000
vn 0.000000 -1.000000 -0.000000
vn 0.000000 -1.000000 -0.000000
vn 0.000000 -1.000000 -0.000000
vn 0.000000 -1.000000 -0.000000
vn 0.000000 -1.000000 -0.000000
vn 0.866024 0.000005 0.500002
vn 0.000281 1.000000 0.000186
vn 0.000583 1.000000 0.000337
vn -0.866012 0.005580 -0.499991
vn 0.000000 -1.000000 -0.000000
vn 0.000000 -1.000000 -0.000000
vn 0.000000 -1.000000 -0.000000
vn 0.000000 -1.000000 -0.000000
vn 0.000000 -1.000000 -0.000000
vn 0.000000 -1.000000 -0.000000
vn 0.000000 -1.000000 -0.000000
vn 0.000000 -1.000000 -0.000000
vn 0.000606 1.000000 -0.000162
vn 0.000583 1.000000 -0.000131
vn 1.000000 0.000000 0.000000
vn 1.000000 0.000000 0.000000
vn 0.500000 0.000000 -0.866025
vn 0.500000 0.000000 -0.866025
vn 1.000000 0.000000 0.000000
vn 1.000000 0.000000 0.000000
vn -0.500000 -0.000000 0.866025
vn -0.500000 -0.000000 0.866025
vn 0.000000 -1.000000 -0.000000
vn 0.000000 -1.000000 -0.000000
vn 0.000000 -1.000000 -0.000000
vn 0.000000 -1.000000 -0.000000
vn 0.000000 -1.000000 -0.000000
vn 0.000000 -1.000000 -0.000000
vn 0.000000 -1.000000 -0.000000
vn 0.000000 -1.000000 -0.000000
vn 0.000000 -1.000000 -0.000000
vn 0.000000 -1.000000 -0.000000
vn 0.000000 -1.000000 -0.000000
vn 0.000000 -1.000000 -0.000000
vn 0.000000 -1.000000 -0.000000
vn 0.000000 -1.000000 -0.000000
vn 0.000000 -1.000000 -0.000000
vn 0.000000 -1.000000 -0.000000
vn 0.864686 0.008920 0.502234
vn -0.498290 0.001850 0.867009
vn 0.610322 0.705186 0.360859
vn 0.002067 0.999997 0.001187
vn 0.966546 0.006179 -0.256420
vn 0.867086 0.000009 0.498158
vn -0.610332 0.705175 -0.360865
vn -0.576959 0.612955 -0.539819
vn 0.498291 0.001851 -0.867008
vn -0.966474 0.006181 0.256689
vn -0.867086 0.000009 -0.498158
vn -0.357412 0.705366 0.612140
vn -0.866012 0.005580 -0.499991
vn 0.000000 -1.000000 -0.000000
vn -0.392417 0.619702 0.679690
vn 0.392417 0.619701 -0.679691
vn 0.000000 -1.000000 -0.000000
vn 0.000281 1.000000 0.000186
vn 0.866024 0.001231 0.500000
vn -0.499999 -0.000000 0.866026
vn -0.499999 -0.000001 0.866026
vn -0.612428 0.707043 -0.353585
vn 0.347854 0.718302 -0.602527
vn 0.500000 0.000000 -0.866025
vn 0.500000 0.000001 -0.866025
vn -0.226005 -0.892014 0.391449
vn -0.226002 -0.892015 0.391449
vn 0.226002 -0.892015 -0.391449
vn -0.221527 -0.896492 0.383703
vn -0.226004 -0.892014 0.391450
vn -0.500000 -0.000000 0.866025
vn 0.258618 0.000037 0.965980
vn -0.226001 -0.892015 0.391450
vn 0.325949 0.758313 -0.564552
vn 0.238786 -0.878593 -0.413590
vn 0.226004 -0.892015 -0.391448
vn 0.325945 0.758314 -0.564553
vn 0.238791 -0.878590 -0.413592
vn 0.226000 -0.892015 -0.391450
vn -0.696479 0.594326 -0.402111
vn -0.866025 0.000000 -0.500000
vn 0.866026 -0.000001 0.500000
vn -0.500000 -0.000000 0.866026
vn 0.000000 -1.000000 -0.000000
vn -0.866012 0.005580 -0.499991
vn -0.001759 0.999998 0.000112
vn 0.000000 -1.000000 -0.000000
vn -0.000021 1.000000 0.000036
vn -0.325946 0.758315 0.564551
vn 0.238786 -0.878593 -0.413589
vn 0.000000 1.000000 0.000000
vn -0.258912 -0.000156 -0.965901
vn -0.866025 0.000000 -0.500000
vn -0.500000 -0.000000 0.866025
vn 0.500000 0.000000 -0.866025
vn 0.500000 0.000000 -0.866025
vn -0.238786 -0.878593 0.413590
vn -0.325947 0.758315 0.564549
g Lanternlambert7SG
usemtl Lanternlambert7SG
f 1/1/1 2/2/2 3/3/3
f 4/4/4 5/5/5 6/6/6
f 7/7/7 8/8/8 9/9/9
f 10/10/10 11/11/11 12/12/12
f 13/13/13 14/14/14 15/15/15
f 16/16/16 17/17/17 18/18/18
f 19/19/19 20/20/20 21/21/21
f 22/22/22 23/23/23 24/24/24
f 25/25/25 26/26/26 27/27/27
f 28/28/28 29/29/29 30/30/30
f 31/31/31 32/32/32 33/33/33
f 34/34/34 35/35/35 36/36/36
f 37/37/37 38/38/38 39/39/39
f 40/40/40 41/41/41 42/42/42
f 43/43/43 44/44/44 45/45/45
f 43/43/43 45/45/45 46/46/46
f 47/47/47 48/48/48 49/49/49
f 47/47/47 49/49/49 50/50/50
f 51/51/51 52/52/52 53/53/53
f 51/51/51 53/53/53 54/54/54
f 55/55/55 56/56/56 57/57/57
f 55/55/55 57/57/57 58/58/58
f 59/59/59 60/60/60 61/61/61
f 59/59/59 61/61/61 62/62/62
f 63/63/63 64/64/64 65/65/65
f 63/63/63 65/65/65 66/66/66
f 67/67/67 68/68/68 69/69/69
f 67/67/67 69/69/69 70/70/70
f 71/71/71 72/72/72 73/73/73
f 71/71/71 73/73/73 74/74/74
f 75/75/75 76/76/76 77/77/77
f 75/75/75 77/77/77 78/78/78
f 79/79/79 80/80/80 81/81/81
f 79/79/79 81/81/81 82/82/82
f 83/83/83 84/84/84 85/85/85
f 83/83/83 85/85/85 86/86/86
f 87/87/87 88/88/88 89/89/89
f 87/87/87 89/89/89 90/90/90
f 91/91/91 92/92/92 93/93/93
f 91/91/91 93/93/93 94/94/94
f 95/95/95 96/96/96 97/97/97
f 95/95/95 97/97/97 98/98/98
f 99/99/99 100/100/100 101/101/101
f 99/99/99 101/101/101 102/102/102
f 103/103/103 104/104/104 105/105/105
f 103/103/103 105/105/105 106/106/106
f 107/107/107 108/108/108 109/109/109
f 107/107/107 109/109/109 110/110/110
f 108/108/108 111/111/111 112/112/112
f 108/108/108 112/112/112 109/109/109
f 111/111/111 113/113/113 114/114/114
f 111/111/111 114/114/114 112/112/112
f 113/113/113 107/107/107 110/110/110
f 113/113/113 110/110/110 114/114/114
f 115/115/115 116/116/116 117/117/117
f 115/115/115 117/117/117 118/118/118
f 119/119/119 120/120/120 121/121/121
f 119/119/119 121/121/121 122/122/122
f 123/123/123 124/124/124 125/125/125
f 123/123/123 125/125/125 126/126/126
f 127/127/127 128/128/128 129/129/129
f 127/127/127 129/129/129 130/130/130
f 131/131/131 132/132/132 133/133/133
f 131/131/131 133/133/133 134/134/134
f 132/132/132 135/135/135 136/136/136
f 132/132/132 136/136/136 133/133/133
f 135/135/135 137/137/137 138/138/138
f 135/135/135 138/138/138 136/136/136
f 137/137/137 131/131/131 134/134/134
f 137/137/137 134/134/134 138/138/138
f 139/139/139 140/140/140 141/141/141
f 139/139/139 141/141/141 142/142/142
f 143/143/143 144/144/144 145/145/145
f 143/143/143 145/145/145 146/146/146
f 147/147/147 148/148/148 149/149/149
f 147/147/147 149/149/149 150/150/150
f 151/151/151 152/152/152 153/153/153
f 151/151/151 153/153/153 154/154/154
f 155/155/155 156/156/156 157/157/157
f 155/155/155 157/157/157 158/158/158
f 159/159/159 160/160/160 161/161/161
f 159/159/159 161/161/161 162/162/162
f 163/163/163 164/164/164 165/165/165
f 163/163/163 165/165/165 166/166/166
f 167/167/167 168/168/168 169/169/169
f 167/167/167 169/169/169 170/170/170
f 171/171/171 172/172/172 173/173/173
f 171/171/171 173/173/173 174/174/174
f 175/175/175 176/176/176 177/177/177
f 175/175/175 177/177/177 178/178/178
f 179/179/179 180/180/180 181/181/181
f 179/179/179 181/181/181 182/182/182
f 183/183/183 184/184/184 185/185/185
f 183/183/183 185/185/185 186/186/186
f 187/187/187 188/188/188 189/189/189
f 187/187/187 189/189/189 190/190/190
f 191/191/191 192/192/192 193/193/193
f 191/191/191 193/193/193 194/194/194
f 195/195/195 196/196/196 197/197/197
f 195/195/195 197/197/197 198/198/198
f 199/199/199 200/200/200 201/201/201
f 199/199/199 201/201/201 202/202/202
f 203/203/203 204/204/204 205/205/205
f 203/203/203 205/205/205 206/206/206
f 207/207/207 208/208/208 209/209/209
f 207/207/207 209/209/209 210/210/210
f 211/211/211 212/212/212 213/213/213
f 211/211/211 213/213/213 214/214/214
f 215/215/215 216/216/216 217/217/217
f 215/215/215 217/217/217 218/218/218
f 219/219/219 220/220/220 221/221/221
f 219/219/219 221/221/221 222/222/222
f 223/223/223 224/224/224 225/225/225
f 223/223/223 225/225/225 226/226/226
f 227/227/227 228/228/228 229/229/229
f 227/227/227 229/229/229 230/230/230
f 231/231/231 232/232/232 233/233/233
f 231/231/231 233/233/233 234/234/234
f 235/235/235 236/236/236 237/237/237
f 235/235/235 237/237/237 238/238/238
f 239/239/239 240/240/240 241/241/241
f 239/239/239 241/241/241 242/242/242
f 243/243/243 244/244/244 245/245/245
f 243/243/243 245/245/245 246/246/246
f 247/247/247 248/248/248 249/249/249
f 247/247/247 249/249/249 250/250/250
f 251/251/251 252/252/252 253/253/253
f 251/251/251 253/253/253 254/254/254
f 255/255/255 256/256/256 257/257/257
f 255/255/255 257/257/257 258/258/258
f 259/259/259 260/260/260 261/261/261
f 259/259/259 261/261/261 262/262/262
f 263/263/263 264/264/264 265/265/265
f 263/263/263 265/265/265 266/266/266
f 267/267/267 268/268/268 269/269/269
f 267/267/267 269/269/269 270/270/270
f 271/271/271 272/272/272 273/273/273
f 271/271/271 273/273/273 274/274/274
f 275/275/275 276/276/276 277/277/277
f 275/275/275 277/277/277 278/278/278
f 279/279/279 280/280/280 276/276/276
f 279/279/279 276/276/276 275/275/275
f 760/760/760 282/282/282 283/283/283
f 760/760/760 283/283/283 284/284/284
f 285/285/285 286/286/286 287/287/287
f 285/285/285 287/287/287 288/288/288
f 289/289/289 290/290/290 291/291/291
f 289/289/289 291/291/291 292/292/292
f 293/293/293 294/294/294 295/295/295
f 293/293/293 295/295/295 296/296/296
f 297/297/297 298/298/298 299/299/299
f 297/297/297 299/299/299 300/300/300
f 301/301/301 302/302/302 303/303/303
f 301/301/301 303/303/303 304/304/304
f 305/305/305 306/306/306 307/307/307
f 305/305/305 307/307/307 308/308/308
f 309/309/309 310/310/310 311/311/311
f 309/309/309 311/311/311 312/312/312
f 313/313/313 314/314/314 315/315/315
f 313/313/313 315/315/315 316/316/316
f 317/317/317 318/318/318 319/319/319
f 317/317/317 319/319/319 320/320/320
f 321/321/321 322/322/322 323/323/323
f 321/321/321 323/323/323 324/324/324
f 325/325/325 326/326/326 327/327/327
f 325/325/325 327/327/327 328/328/328
f 329/329/329 330/330/330 331/331/331
f 329/329/329 331/331/331 332/332/332
f 333/333/333 334/334/334 335/335/335
f 333/333/333 335/335/335 336/336/336
f 337/337/337 338/338/338 339/339/339
f 337/337/337 339/339/339 340/340/340
f 341/341/341 342/342/342 343/343/343
f 341/341/341 343/343/343 344/344/344
f 345/345/345 346/346/346 347/347/347
f 345/345/345 347/347/347 348/348/348
f 349/349/349 350/350/350 351/351/351
f 349/349/349 351/351/351 352/352/352
f 353/353/353 354/354/354 355/355/355
f 353/353/353 355/355/355 356/356/356
f 357/357/357 358/358/358 359/359/359
f 357/357/357 359/359/359 360/360/360
f 361/361/361 362/362/362 363/363/363
f 361/361/361 363/363/363 364/364/364
f 365/365/365 366/366/366 367/367/367
f 365/365/365 367/367/367 368/368/368
f 369/369/369 370/370/370 371/371/371
f 369/369/369 371/371/371 372/372/372
f 373/373/373 374/374/374 375/375/375
f 373/373/373 375/375/375 376/376/376
f 377/377/377 378/378/378 379/379/379
f 377/377/377 379/379/379 380/380/380
f 381/381/381 382/382/382 383/383/383
f 381/381/381 383/383/383 384/384/384
f 385/385/385 386/386/386 387/387/387
f 385/385/385 387/387/387 388/388/388
f 389/389/389 390/390/390 391/391/391
f 389/389/389 391/391/391 392/392/392
f 393/393/393 394/394/394 395/395/395
f 393/393/393 395/395/395 396/396/396
f 397/397/397 398/398/398 399/399/399
f 397/397/397 399/399/399 400/400/400
f 401/401/401 402/402/402 403/403/403
f 401/401/401 403/403/403 404/404/404
f 405/405/405 406/406/406 407/407/407
f 405/405/405 407/407/407 408/408/408
f 409/409/409 410/410/410 411/411/411
f 409/409/409 411/411/411 412/412/412
f 413/413/413 414/414/414 415/415/415
f 413/413/413 415/415/415 416/416/416
f 417/417/417 418/418/418 419/419/419
f 417/417/417 419/419/419 420/420/420
f 421/421/421 422/422/422 423/423/423
f 421/421/421 423/423/423 424/424/424
f 425/425/425 426/426/426 427/427/427
f 425/425/425 427/427/427 428/428/428
f 429/429/429 430/430/430 431/431/431
f 429/429/429 431/431/431 432/432/432
f 433/433/433 434/434/434 435/435/435
f 433/433/433 435/435/435 436/436/436
f 437/437/437 438/438/438 439/439/439
f 437/437/437 439/439/439 440/440/440
f 438/438/438 441/441/441 442/442/442
f 438/438/438 442/442/442 439/439/439
f 441/441/441 443/443/443 444/444/444
f 441/441/441 444/444/444 442/442/442
f 443/443/443 437/437/437 440/440/440
f 443/443/443 440/440/440 444/444/444
f 445/445/445 446/446/446 447/447/447
f 445/445/445 447/447/447 448/448/448
f 449/449/449 450/450/450 451/451/451
f 449/449/449 451/451/451 452/452/452
f 453/453/453 454/454/454 455/455/455
f 453/453/453 455/455/455 456/456/456
f 457/457/457 458/458/458 459/459/459
f 457/457/457 459/459/459 460/460/460
f 461/461/461 764/764/764 749/749/749
f 461/461/461 749/749/749 462/462/462
f 463/463/463 464/464/464 454/454/454
f 463/463/463 454/454/454 453/453/453
f 465/465/465 466/466/466 467/467/467
f 465/465/465 467/467/467 468/468/468
f 469/469/469 470/470/470 446/446/446
f 469/469/469 446/446/446 445/445/445
f 448/448/448 447/447/447 471/471/471
f 448/448/448 471/471/471 472/472/472
f 473/473/473 474/474/474 475/475/475
f 473/473/473 475/475/475 476/476/476
f 456/456/456 455/455/455 477/477/477
f 456/456/456 477/477/477 478/478/478
f 458/458/458 479/479/479 480/480/480
f 458/458/458 480/480/480 459/459/459
f 481/481/481 461/461/461 462/462/462
f 481/481/481 462/462/462 482/482/482
f 483/483/483 464/464/464 463/463/463
f 483/483/483 463/463/463 484/484/484
f 485/485/485 486/486/486 487/487/487
f 485/485/485 487/487/487 488/488/488
f 489/489/489 470/470/470 469/469/469
f 489/489/489 469/469/469 490/490/490
f 491/491/491 492/492/492 493/493/493
f 491/491/491 493/493/493 494/494/494
f 495/495/495 493/493/493 492/492/492
f 495/495/495 492/492/492 496/496/496
f 497/497/497 748/748/748 751/751/751
f 497/497/497 751/751/751 498/498/498
f 499/499/499 497/497/497 498/498/498
f 499/499/499 498/498/498 500/500/500
f 501/501/501 753/753/753 502/502/502
f 501/501/501 502/502/502 503/503/503
f 504/504/504 459/459/459 480/480/480
f 504/504/504 480/480/480 743/743/743
f 505/505/505 460/460/460 459/459/459
f 505/505/505 459/459/459 504/504/504
f 506/506/506 462/462/462 749/749/749
f 506/506/506 749/749/749 752/752/752
f 482/482/482 462/462/462 506/506/506
f 482/482/482 506/506/506 507/507/507
f 508/508/508 744/744/744 740/740/740
f 508/508/508 740/740/740 509/509/509
f 510/510/510 511/511/511 461/461/461
f 510/510/510 461/461/461 481/481/481
f 764/764/764 461/461/461 511/511/511
f 764/764/764 511/511/511 512/512/512
f 458/458/458 457/457/457 771/771/771
f 458/458/458 771/771/771 513/513/513
f 479/479/479 458/458/458 513/513/513
f 479/479/479 513/513/513 514/514/514
f 515/515/515 750/750/750 742/742/742
f 515/515/515 742/742/742 516/516/516
f 517/517/517 518/518/518 519/519/519
f 517/517/517 519/519/519 520/520/520
f 521/521/521 522/522/522 518/518/518
f 521/521/521 518/518/518 517/517/517
f 523/523/523 524/524/524 763/763/763
f 523/523/523 763/763/763 772/772/772
f 525/525/525 524/524/524 523/523/523
f 525/525/525 523/523/523 526/526/526
f 741/741/741 747/747/747 527/527/527
f 741/741/741 527/527/527 528/528/528
f 7/7/7 529/529/529 530/530/530
f 7/7/7 530/530/530 8/8/8
f 531/531/531 12/12/12 11/11/11
f 531/531/531 11/11/11 532/532/532
f 533/533/533 13/13/13 15/15/15
f 533/533/533 15/15/15 534/534/534
f 6/6/6 535/535/535 536/536/536
f 6/6/6 536/536/536 4/4/4
f 537/537/537 538/538/538 539/539/539
f 537/537/537 539/539/539 540/540/540
f 541/541/541 542/542/542 543/543/543
f 541/541/541 543/543/543 544/544/544
f 545/545/545 546/546/546 547/547/547
f 545/545/545 547/547/547 548/548/548
f 542/542/542 549/549/549 550/550/550
f 542/542/542 550/550/550 543/543/543
f 551/551/551 545/545/545 548/548/548
f 551/551/551 548/548/548 552/552/552
f 553/553/553 554/554/554 555/555/555
f 553/553/553 555/555/555 556/556/556
f 557/557/557 558/558/558 559/559/559
f 557/557/557 559/559/559 560/560/560
f 561/561/561 562/562/562 563/563/563
f 561/561/561 563/563/563 564/564/564
f 565/565/565 566/566/566 567/567/567
f 565/565/565 567/567/567 23/23/23
f 568/568/568 569/569/569 570/570/570
f 568/568/568 570/570/570 571/571/571
f 572/572/572 573/573/573 574/574/574
f 572/572/572 574/574/574 575/575/575
f 576/576/576 577/577/577 578/578/578
f 576/576/576 578/578/578 579/579/579
f 580/580/580 581/581/581 582/582/582
f 580/580/580 582/582/582 35/35/35
f 583/583/583 584/584/584 585/585/585
f 583/583/583 585/585/585 586/586/586
f 737/737/737 587/587/587 588/588/588
f 737/737/737 588/588/588 589/589/589
f 590/590/590 591/591/591 592/592/592
f 590/590/590 592/592/592 593/593/593
f 594/594/594 595/595/595 596/596/596
f 594/594/594 596/596/596 597/597/597
f 598/598/598 599/599/599 600/600/600
f 598/598/598 600/600/600 26/26/26
f 601/601/601 736/736/736 603/603/603
f 601/601/601 603/603/603 604/604/604
f 605/605/605 606/606/606 607/607/607
f 605/605/605 607/607/607 608/608/608
f 609/609/609 610/610/610 29/29/29
f 609/609/609 29/29/29 611/611/611
f 612/612/612 613/613/613 614/614/614
f 612/612/612 614/614/614 41/41/41
f 19/19/19 21/21/21 23/23/23
f 19/19/19 23/23/23 22/22/22
f 20/20/20 19/19/19 615/615/615
f 20/20/20 615/615/615 616/616/616
f 22/22/22 24/24/24 617/617/617
f 22/22/22 617/617/617 618/618/618
f 25/25/25 27/27/27 619/619/619
f 25/25/25 619/619/619 620/620/620
f 26/26/26 25/25/25 30/30/30
f 26/26/26 30/30/30 29/29/29
f 28/28/28 30/30/30 621/621/621
f 28/28/28 621/621/621 622/622/622
f 31/31/31 33/33/33 35/35/35
f 31/31/31 35/35/35 34/34/34
f 32/32/32 31/31/31 623/623/623
f 32/32/32 623/623/623 624/624/624
f 34/34/34 36/36/36 625/625/625
f 34/34/34 625/625/625 626/626/626
f 37/37/37 39/39/39 41/41/41
f 37/37/37 41/41/41 40/40/40
f 38/38/38 37/37/37 627/627/627
f 38/38/38 627/627/627 628/628/628
f 40/40/40 42/42/42 629/629/629
f 40/40/40 629/629/629 630/630/630
f 568/568/568 571/571/571 631/631/631
f 568/568/568 631/631/631 632/632/632
f 633/633/633 634/634/634 601/601/601
f 633/633/633 601/601/601 604/604/604
f 583/583/583 586/586/586 635/635/635
f 583/583/583 635/635/635 636/636/636
f 574/574/574 573/573/573 637/637/637
f 574/574/574 637/637/637 638/638/638
f 22/22/22 618/618/618 615/615/615
f 22/22/22 615/615/615 19/19/19
f 34/34/34 730/730/730 623/623/623
f 34/34/34 623/623/623 31/31/31
f 30/30/30 25/25/25 754/754/754
f 30/30/30 754/754/754 621/621/621
f 40/40/40 729/729/729 627/627/627
f 40/40/40 627/627/627 37/37/37
f 739/739/739 738/738/738 589/589/589
f 739/739/739 589/589/589 639/639/639
f 640/640/640 565/565/565 23/23/23
f 640/640/640 23/23/23 21/21/21
f 559/559/559 757/757/757 641/641/641
f 559/559/559 641/641/641 642/642/642
f 765/765/765 598/598/598 26/26/26
f 765/765/765 26/26/26 29/29/29
f 592/592/592 591/591/591 643/643/643
f 592/592/592 643/643/643 644/644/644
f 735/735/735 734/734/734 645/645/645
f 735/735/735 645/645/645 646/646/646
f 647/647/647 767/767/767 755/755/755
f 647/647/647 755/755/755 648/648/648
f 649/649/649 580/580/580 35/35/35
f 649/649/649 35/35/35 33/33/33
f 650/650/650 651/651/651 652/652/652
f 650/650/650 652/652/652 653/653/653
f 654/654/654 561/561/561 756/756/756
f 654/654/654 756/756/756 655/655/655
f 656/656/656 612/612/612 41/41/41
f 656/656/656 41/41/41 39/39/39
f 657/657/657 658/658/658 659/659/659
f 657/657/657 659/659/659 660/660/660
f 661/661/661 662/662/662 663/663/663
f 661/661/661 663/663/663 664/664/664
f 665/665/665 666/666/666 667/667/667
f 665/665/665 667/667/667 668/668/668
f 669/669/669 670/670/670 671/671/671
f 669/669/669 671/671/671 672/672/672
f 673/673/673 674/674/674 675/675/675
f 673/673/673 675/675/675 676/676/676
f 680/680/680 727/727/727 759/759/759
f 732/732/732 678/678/678 679/679/679
f 678/678/678 732/732/732 762/762/762
f 677/677/677 733/733/733 281/281/281
f 683/683/683 728/728/728 682/682/682
f 728/728/728 683/683/683 684/684/684
f 728/728/728 684/684/684 761/761/761
f 681/681/681 758/758/758 731/731/731
f 687/687/687 685/685/685 686/686/686
f 685/685/685 687/687/687 227/227/227
f 227/227/227 687/687/687 228/228/228
f 228/228/228 687/687/687 688/688/688
f 690/690/690 279/279/279 689/689/689
f 279/279/279 690/690/690 280/280/280
f 278/278/278 690/690/690 689/689/689
f 690/690/690 278/278/278 277/277/277
f 769/769/769 693/693/693 694/694/694
f 693/693/693 769/769/769 770/770/770
f 768/768/768 697/697/697 698/698/698
f 697/697/697 768/768/768 745/745/745
f 667/667/667 664/664/664 663/663/663
f 664/664/664 667/667/667 702/702/702
f 702/702/702 667/667/667 666/666/666
f 702/702/702 666/666/666 699/699/699
f 702/702/702 699/699/699 701/701/701
f 701/701/701 699/699/699 700/700/700
f 703/703/703 670/670/670 669/669/669
f 670/670/670 703/703/703 668/668/668
f 668/668/668 703/703/703 665/665/665
f 665/665/665 703/703/703 706/706/706
f 706/706/706 703/703/703 704/704/704
f 706/706/706 704/704/704 705/705/705
f 709/709/709 707/707/707 708/708/708
f 707/707/707 709/709/709 674/674/674
f 674/674/674 709/709/709 710/710/710
f 674/674/674 710/710/710 672/672/672
f 674/674/674 672/672/672 675/675/675
f 675/675/675 672/672/672 671/671/671
f 673/673/673 713/713/713 714/714/714
f 713/713/713 673/673/673 712/712/712
f 712/712/712 673/673/673 711/711/711
f 711/711/711 673/673/673 661/661/661
f 661/661/661 673/673/673 676/676/676
f 661/661/661 676/676/676 662/662/662
f 671/671/671 676/676/676 675/675/675
f 676/676/676 671/671/671 662/662/662
f 662/662/662 671/671/671 670/670/670
f 662/662/662 670/670/670 668/668/668
f 662/662/662 668/668/668 663/663/663
f 663/663/663 668/668/668 667/667/667
f 569/569/569 715/715/715 716/716/716
f 715/715/715 569/569/569 717/717/717
f 717/717/717 569/569/569 746/746/746
f 719/719/719 583/583/583 718/718/718
f 583/583/583 719/719/719 720/720/720
f 583/583/583 720/720/720 584/584/584
f 602/602/602 722/722/722 723/723/723
f 722/722/722 602/602/602 721/721/721
f 721/721/721 602/602/602 766/766/766
f 604/604/604 725/725/725 726/726/726
f 725/725/725 604/604/604 724/724/724
f 724/724/724 604/604/604 603/603/603
